<?xml version="1.0" encoding="UTF-8"?>
<svg width="157px" height="106px" viewBox="0 0 157 106" version="1.1" xmlns="http://www.w3.org/2000/svg" xmlns:xlink="http://www.w3.org/1999/xlink">
    <!-- Generator: Sketch 53.1 (72631) - https://sketchapp.com -->
    <title>ico_serveis_desktop_03</title>
    <desc>Created with Sketch.</desc>
    <g id="ico_serveis_desktop_03" stroke="none" stroke-width="1" fill="none" fill-rule="evenodd">
        <g id="Group-17">
            <polygon id="Stroke-1" stroke="#38CFFF" points="93.0005424 57 64.9994576 57 51 81.5 64.9994576 106 93.0005424 106 107 81.5"></polygon>
            <path d="M91,81.5 C91,87.8508724 85.8515764,93 79.5,93 C73.1491276,93 68,87.8508724 68,81.5 C68,75.1491276 73.1491276,70 79.5,70 C85.8515764,70 91,75.1491276 91,81.5 Z" id="Stroke-3" stroke="#38CFFF"></path>
            <polygon id="Stroke-5" stroke="#00FFC9" points="93.0005424 0 64.9994576 0 51 24.5003653 64.9994576 49 93.0005424 49 107 24.5003653"></polygon>
            <path d="M91,24.5 C91,30.8508724 85.8515764,36 79.5,36 C73.1491276,36 68,30.8508724 68,24.5 C68,18.1491276 73.1491276,13 79.5,13 C85.8515764,13 91,18.1491276 91,24.5 Z" id="Stroke-7" stroke="#00FFC9"></path>
            <polygon id="Stroke-9" stroke="#0094FF" points="143 30 115 30 101 54.5 115 79 143 79 157 54.5"></polygon>
            <path d="M141,53.5 C141,59.8508724 135.851734,65 129.499648,65 C123.14897,65 118,59.8508724 118,53.5 C118,47.1491276 123.14897,42 129.499648,42 C135.851734,42 141,47.1491276 141,53.5 Z" id="Stroke-11" stroke="#0094FF"></path>
            <polygon id="Stroke-13" stroke="#FFFFFF" stroke-width="2" points="41.9998192 29 13.9994576 29 0 53.4996347 13.9994576 78 41.9998192 78 56 53.4996347"></polygon>
            <path d="M39,53.5 C39,59.8508724 33.8515764,65 27.5,65 C21.1491276,65 16,59.8508724 16,53.5 C16,47.1491276 21.1491276,42 27.5,42 C33.8515764,42 39,47.1491276 39,53.5 Z" id="Stroke-15" stroke="#FFFFFF" stroke-width="2"></path>
        </g>
    </g>
</svg>