<?xml version="1.0" encoding="UTF-8"?>
<svg viewBox="0 0 80 78" version="1.1" xmlns="http://www.w3.org/2000/svg" xmlns:xlink="http://www.w3.org/1999/xlink"  preserveAspectRatio="none">

    <g id="ico_serveis_mobile_01" stroke="none" stroke-width="1" fill="none" fill-rule="evenodd">
        <g id="Group-15">
            <path d="M43.5437868,56.6200019 C43.5437868,56.6200019 25.62323,62.0032513 22.5598763,32.2463379 C22.5598763,32.2463379 20.5680067,11.0126477 39.5613015,11.0126477 C39.5613015,11.0126477 48.5983832,10.4146449 53.5,17.4425551" id="Stroke-1" stroke="#38CFFF"></path>
            <path d="M25.225629,59 C25.225629,59 21.3865307,64.8804821 17.5468037,65.7853616 C13.7077053,66.690241 9.10041011,65.1829316 6.33565581,67.444513 C3.57153014,69.7067117 1.11480894,75.1347541 0.5,78 L42.5,78" id="Stroke-3" stroke="#38CFFF"></path>
            <path d="M54.7741124,59 C54.7741124,59 58.6131533,64.8804821 62.4528228,65.7853616 C66.2918637,66.690241 70.89909,65.1829316 73.6638029,67.444513 C76.4278872,69.7067117 78.8852003,75.1347541 79.5,78 L37.5,78" id="Stroke-5" stroke="#38CFFF"></path>
            <path d="M22.945505,26 L16.1796655,26 C16.1796655,26 10.5,26.1553955 10.5,31.6846714 L10.5,37.2126736 C10.5,37.2126736 10.5,42 15.2831106,42 L24.5,42" id="Stroke-7" stroke="#FFFFFF" stroke-width="2"></path>
            <path d="M57.054495,26 L63.8209708,26 C63.8209708,26 69.5,26.1553955 69.5,31.6846714 L69.5,37.2126736 C69.5,37.2126736 69.5,42 64.7168894,42 L55.5,42 C55.5,42 57.3942823,31.9018429 57.054495,26 Z" id="Stroke-9" stroke="#FFFFFF" stroke-width="2"></path>
            <path d="M15.8156367,26 C15.8156367,26 10.9224714,0.0302202306 39.6680967,0.0302202306 C39.6680967,0.0302202306 64.3504795,-1.94300847 63.4773706,26" id="Stroke-11" stroke="#FFFFFF" stroke-width="2"></path>
            <path d="M45.5,42.9694927 L45.5,48.9975655 L55.2040432,48.9975655 C55.2040432,48.9975655 57.9605273,49.3369976 58.5,42" id="Stroke-13" stroke="#FFFFFF" stroke-width="2" stroke-linecap="round"></path>
        </g>
    </g>
</svg>