<?xml version="1.0" encoding="UTF-8"?>
<svg width="120px" height="118px" viewBox="0 0 120 118" version="1.1" xmlns="http://www.w3.org/2000/svg" xmlns:xlink="http://www.w3.org/1999/xlink">
    <!-- Generator: Sketch 53.1 (72631) - https://sketchapp.com -->
    <title>ico_serveis_desktop_01</title>
    <desc>Created with Sketch.</desc>
    <g id="ico_serveis_desktop_01" stroke="none" stroke-width="1" fill="none" fill-rule="evenodd">
        <g id="Group-15" transform="translate(3.000000, 3.000000)">
            <path d="M62.5474325,81.4547853 C62.5474325,81.4547853 36.533721,89.1785779 32.0869172,46.4838761 C32.0869172,46.4838761 29.1954936,16.0181467 56.7664055,16.0181467 C56.7664055,16.0181467 69.8847498,15.1601427 77,25.2436659" id="Stroke-1" stroke="#38CFFF"></path>
            <path d="M35.9110326,85 C35.9110326,85 30.3351993,93.3564746 24.7584529,94.6423559 C19.1826196,95.9282373 12.4910718,93.7862712 8.47559534,97.0000975 C4.46103187,100.214801 0.892936792,107.928335 0,112 L61,112" id="Stroke-3" stroke="#38CFFF"></path>
            <path d="M78.0885919,85 C78.0885919,85 83.6643417,93.3564746 89.2410046,94.6423559 C94.8167545,95.9282373 101.508202,93.7862712 105.523619,97.0000975 C109.538122,100.214801 113.107077,107.928335 114,112 L53,112" id="Stroke-5" stroke="#38CFFF"></path>
            <path d="M31.7792928,37 L22.1138078,37 C22.1138078,37 14,37.223381 14,45.1717152 L14,53.1182184 C14,53.1182184 14,60 20.8330152,60 L34,60" id="Stroke-7" stroke="#FFFFFF" stroke-width="2"></path>
            <path d="M82.2207072,37 L91.8871012,37 C91.8871012,37 100,37.223381 100,45.1717152 L100,53.1182184 C100,53.1182184 100,60 93.1669848,60 L80,60 C80,60 82.7061176,45.4838992 82.2207072,37 Z" id="Stroke-9" stroke="#FFFFFF" stroke-width="2"></path>
            <path d="M21.4603036,37 C21.4603036,37 14.3244374,0.0430057128 56.245141,0.0430057128 C56.245141,0.0430057128 92.2402826,-2.76505052 90.9669987,37" id="Stroke-11" stroke="#FFFFFF" stroke-width="2"></path>
            <path d="M65,61.3849895 L65,69.9965221 L79.1828324,69.9965221 C79.1828324,69.9965221 83.2115398,70.4814251 84,60" id="Stroke-13" stroke="#FFFFFF" stroke-width="2" stroke-linecap="round"></path>
        </g>
    </g>
</svg>