<?xml version="1.0" encoding="UTF-8"?>
<svg width="197px" height="249px" viewBox="0 0 197 249" version="1.1" xmlns="http://www.w3.org/2000/svg" xmlns:xlink="http://www.w3.org/1999/xlink">
    <!-- Generator: Sketch 53.1 (72631) - https://sketchapp.com -->
    <title>empresa_vector_home2_xs</title>
    <desc>Created with Sketch.</desc>
    <defs>
        <polygon id="path-1" points="0 0.0346858865 188.95793 0.0346858865 188.95793 242.999874 0 242.999874"></polygon>
    </defs>
    <g id="empresa_vector_home2_xs" stroke="none" stroke-width="1" fill="none" fill-rule="evenodd">
        <g id="Group-6">
            <g id="Group-3">
                <mask id="mask-2" fill="white">
                    <use xlink:href="#path-1"></use>
                </mask>
                <g id="Clip-2"></g>
                <path d="M157.363472,176.457535 C157.261123,178.713154 156.749379,179.63605 155.830123,180.764175 C154.908984,181.891669 153.477984,184.045304 153.375007,185.787853 C153.272658,187.531032 153.886123,190.50432 153.886123,190.50432 L150.6141,190.50432 C150.6141,190.50432 148.978402,190.709548 148.466658,191.01739 C147.955542,191.324602 147.648495,192.452097 147.341449,193.170395 C147.034402,193.887434 147.955542,194.708346 148.26196,195.118172 C148.568379,195.528628 147.545519,195.83584 147.137379,196.34891 C146.727984,196.861351 148.568379,197.271807 149.284821,197.476405 C150.000007,197.681633 149.897658,197.886861 150.205333,198.397413 C150.511751,198.906706 150.6141,200.860149 150.6141,200.860149 C150.6141,200.860149 149.897658,201.372589 148.978402,201.524936 C148.057263,201.677913 149.284821,202.807926 150.205333,203.525594 C151.125216,204.243892 150.205333,204.653089 150.205333,204.653089 C150.205333,204.653089 140.08096,200.552307 136.70596,199.424182 C133.33096,198.296058 130.467705,198.399302 130.467705,198.399302 C130.467705,198.399302 137.83117,196.656123 145.8081,186.71075 C153.784402,176.765377 155.318379,162.821206 155.4201,161.385869 C155.522449,159.949903 156.238263,159.949903 156.238263,159.949903 C156.238263,159.949903 157.261123,165.589265 157.363472,167.947498 C157.465821,170.306361 157.465821,174.201916 157.363472,176.457535 M187.378681,61.9566902 C187.378681,61.9566902 186.534774,60.1883301 185.767472,57.6506798 C185.000798,55.1130295 181.549821,45.0392316 180.705914,42.8094233 C179.862007,40.5789855 177.867774,36.3497782 176.717449,34.504615 C175.566495,32.6588223 173.112007,31.3519104 172.345333,30.9672653 C171.578658,30.5826202 164.138588,28.1985762 164.138588,28.1985762 C164.138588,28.1985762 164.982495,27.1988767 164.982495,26.6612549 C164.982495,26.1223741 162.681844,25.0458715 162.067751,24.9690684 C161.454286,24.8916358 159.460053,25.6615554 159.460053,25.6615554 C159.460053,25.6615554 159.536658,24.2772109 159.536658,23.5847238 C159.536658,22.8922368 159.919681,20.8934674 160.150123,18.279014 C160.380565,15.6645606 160.45717,12.7422653 160.150123,10.5892601 C159.843705,8.43625492 157.926077,0.438029534 149.795937,0.0540139896 C141.665798,-0.330001554 134.302333,5.12931451 133.919309,5.6675658 C133.535658,6.20644663 133.382449,6.51365907 133.152007,7.43655544 C132.922193,8.35882228 132.84496,9.81996995 133.075402,9.9742057 C133.305844,10.1278119 134.685984,9.05130933 134.916426,9.51275751 C135.14624,9.9742057 135.607123,10.2814181 135.6831,10.5892601 C135.760333,10.8971021 136.066751,15.9717731 136.066751,15.9717731 C136.066751,15.9717731 136.424658,16.9972834 136.808309,17.3819285 C137.191333,17.7665736 136.808309,19.3038948 136.808309,19.5343041 C136.808309,19.7659725 136.296565,21.9705995 136.37317,22.354615 C136.450402,22.7386306 138.214193,22.2010088 138.214193,22.2010088 C138.214193,22.2010088 138.751053,22.5082212 139.0581,23.1239052 C139.364519,23.7383301 139.134705,24.8154622 139.517728,25.0458715 C139.901379,25.2769104 140.438867,24.9690684 140.438867,24.9690684 C140.438867,24.9690684 140.208426,25.8919648 140.285658,26.2759803 C140.361635,26.6612549 140.821891,28.1985762 141.205542,28.6606539 C141.589193,29.1214725 143.045937,29.0446694 143.967077,28.9678663 C144.88696,28.8910632 147.034402,28.8142601 147.264844,28.9678663 C147.494658,29.1214725 148.032147,30.4283845 147.571263,30.4283845 C147.111635,30.4283845 144.810984,29.8907627 144.580542,30.1979751 C144.3501,30.5058171 143.889844,32.8892316 143.889844,32.8892316 C143.889844,32.8892316 143.81324,35.8115269 143.736635,36.8112264 C143.66003,37.8109259 143.045937,38.5795865 142.96996,38.9642316 C142.892728,39.3488767 140.898495,41.5793145 140.361635,42.3479751 C139.824774,43.1166358 139.211309,44.5009803 139.0581,45.8085218 C138.904891,47.1154337 138.214193,52.3449699 137.676705,54.2669363 C137.140472,56.1895321 134.916426,61.7262808 134.610007,62.7259803 C134.302333,63.7256798 134.072519,65.8018819 133.535658,66.4937394 C132.99817,67.1862264 132.155519,67.7238482 132.155519,68.4931383 C132.155519,69.2624285 133.535658,70.0310891 133.075402,70.3389311 C132.615147,70.6461435 130.620914,71.5696694 131.464821,72.2608974 C132.308728,72.9533845 133.612891,73.7226746 133.075402,73.7226746 C132.538542,73.7226746 129.317379,72.7229751 129.010333,72.4145036 C128.703286,72.1072912 121.263844,69.8774829 109.759333,70.1078922 C98.2535651,70.3389311 71.5624953,81.796444 62.9727279,96.8687394 C62.9727279,96.8687394 63.0242163,98.1756513 62.5375884,98.7139026 C62.0522163,99.2521539 60.0579837,99.4831927 60.0579837,99.4831927 C60.0579837,99.4831927 40.4999372,121.244913 35.8214023,135.548548 C35.8214023,135.548548 35.5143558,136.85546 35.5903326,137.778356 C35.6675651,138.700623 36.8185186,139.469913 37.0483326,139.853928 C37.2781465,140.239203 36.3582628,139.931361 35.7441698,140.392809 C35.1307047,140.853628 33.8271698,141.315706 33.6739605,141.93076 C33.5207512,142.545815 29.9146814,152.388574 28.5345419,160.078327 C27.1544023,167.768081 25.6970302,178.533737 25.6970302,178.533737 C25.6970302,178.533737 26.5403093,179.37983 26.0800535,179.918081 C25.6204256,180.456962 25.2361465,180.456962 25.2361465,180.917781 C25.2361465,181.378599 24.9297279,191.452397 24.9297279,191.452397 C24.9297279,191.452397 25.3133791,192.068081 26.0800535,192.375294 C26.8473558,192.683136 31.2960767,194.06748 31.2960767,194.06748 L31.449286,199.449993 C31.449286,199.449993 26.6935186,199.37319 19.9441465,200.37289 C19.9441465,200.37289 19.8675419,198.758136 19.7909372,198.142452 C19.7137047,197.528027 17.1832395,197.065949 14.2684953,197.065949 C11.3537512,197.065949 8.05598372,199.065978 8.05598372,199.065978 C8.05598372,199.065978 7.97937907,201.372589 8.05598372,201.526195 C8.13258837,201.679802 9.0531,202.218682 8.66944884,202.679501 C8.28642558,203.141579 1.61303023,204.6789 1.61303023,208.755131 L1.61303023,213.599392 C1.61303023,213.599392 -0.073527907,214.829501 0.00244883721,217.59819 C0.0796813953,220.36625 0.3861,230.285812 0.3861,230.285812 L1.61303023,231.823763 L1.61303023,234.592452 L2.38033256,234.848672 L2.68675116,235.463726 L3.35170465,235.463726 L3.35170465,236.027789 L4.42605349,236.027789 L4.68098372,236.540229 L6.01026279,236.540229 L6.01026279,237.309519 L7.85128605,237.309519 L8.20919302,238.232416 L8.82328605,237.873581 L9.58996047,238.642242 L10.4081233,238.642242 L11.3286349,239.462524 L12.0953093,239.052698 L12.8111233,239.462524 L13.7831233,239.770366 L14.1404023,240.282807 L14.9077047,240.026587 L15.7258674,240.692633 L16.9019372,240.692633 L17.6177512,241.051467 L18.1803558,240.641641 L19.3564256,241.512916 L20.1745884,241.051467 L21.0429837,241.512916 L21.8617744,241.205703 L22.884007,241.512916 L23.4472395,241.512916 L24.1115651,241.87175 L25.1344256,241.410931 L26.2081465,242.12797 L26.7192628,241.512916 L27.6397744,242.12797 L28.5596581,241.769765 L28.8158442,242.38482 L30.2989605,241.769765 L30.6053791,242.38482 L31.8837977,241.974364 L32.5487512,242.590048 C32.5487512,242.590048 32.8551698,241.667151 33.4171465,242.178962 L33.9803791,242.692032 L34.5423558,242.230584 L35.9746116,242.999874 L36.3325186,242.230584 L37.0483326,242.692032 L38.071193,242.487434 L38.4284721,242.999874 L39.2472628,242.487434 L40.2694953,242.999874 L40.7297512,242.38482 L41.6502628,242.999874 L42.6731233,242.436441 L43.2351,242.999874 L44.0024023,242.282835 L44.8205651,242.999874 L45.3831698,242.230584 L46.4054023,242.999874 L47.224193,242.538426 L48.655193,242.487434 L49.6265651,242.64104 L50.1376814,241.923372 L51.0073326,242.590048 L51.5699372,241.616159 L53.2571233,241.923372 L53.2571233,241.359309 L54.6887512,241.769765 L54.9449372,241.154711 L56.1718674,241.512916 L57.2462163,240.641641 L58.4725186,240.692633 L59.0866116,239.974965 L60.5182395,240.180193 L60.5182395,239.513517 L61.8475186,239.565138 L62.5375884,238.642242 C62.5375884,238.642242 66.8073558,238.129802 71.7678209,236.899693 C76.7270302,235.668954 84.039007,232.900895 86.2894256,231.823763 C88.5392163,230.74726 90.3287512,229.311923 90.789007,229.004711 C91.2486349,228.696869 92.2714953,227.979201 92.577914,226.338636 C92.8849605,224.698701 92.577914,219.930612 92.577914,219.930612 L91.9650767,211.420576 L94.5721465,211.420576 C94.5721465,211.420576 94.1125186,218.751496 96.5161465,222.340467 C98.9185186,225.92818 103.571937,227.261532 109.043519,226.18503 C114.514472,225.107897 117.787123,220.443053 118.962565,215.008918 C120.138635,209.574783 118.502309,203.679201 118.502309,203.679201 L129.956588,208.088454 L129.956588,210.856514 L134.45617,212.650685 L134.45617,209.780641 L160.175867,218.34104 C160.175867,218.34104 161.863053,217.469765 161.863053,217.213545 L161.863053,210.036232 C161.863053,210.036232 162.732705,209.882625 163.089984,207.883226 C163.447891,205.883827 163.089984,201.116369 163.089984,201.116369 C163.089984,201.116369 164.598216,201.295786 164.829286,200.295457 C165.0591,199.295758 164.829286,198.527726 164.829286,198.527726 C164.829286,198.527726 170.734751,197.065949 171.270984,196.374721 C171.808472,195.682234 171.578658,195.297589 171.885077,194.29789 C172.192123,193.29819 171.808472,192.068081 172.421937,191.914475 C173.03603,191.760239 173.879937,192.144884 174.186356,191.606004 C174.492774,191.068382 174.26296,189.222589 174.569379,185.378027 C174.877053,181.532835 174.877053,177.995485 174.569379,174.07412 C174.26296,170.151496 173.879937,167.768081 173.7261,161.616278 C173.572263,155.464475 174.799821,150.927426 174.492774,146.159967 C174.186356,141.392509 173.342449,140.931061 173.802705,138.854859 C174.26296,136.778656 175.489891,135.702154 175.6431,133.702755 C175.796309,131.703356 176.103984,126.397017 176.103984,126.397017 C176.103984,126.397017 178.097588,126.781662 178.711681,126.397017 C179.325147,126.013001 179.248542,124.398247 179.325147,123.936169 C179.401751,123.475351 180.321635,110.556061 180.628681,103.020542 C180.935728,95.4843948 181.165542,82.5651047 181.165542,82.5651047 L181.47196,76.7211435 C181.47196,76.7211435 182.623542,76.029286 182.92996,75.2599959 C183.237007,74.4907057 183.006565,73.7994777 183.773867,73.4148326 C184.540542,73.0301876 184.84696,72.7229751 185.461053,72.5693689 C186.075147,72.4145036 186.994402,72.4919363 187.378681,72.1840943 C187.761705,71.8768819 188.988635,71.0307886 188.835426,69.8774829 C188.682216,68.7241772 188.248333,65.7250788 188.84924,65.2636306 C189.449519,64.8021824 187.378681,61.9566902 187.378681,61.9566902" id="Fill-1" fill="#00FFC9" mask="url(#mask-2)"></path>
            </g>
            <path d="M65.3003734,98.4315595 L65.3003734,100.174904 L72.9108792,100.174904 C72.9108792,100.174904 74.5564963,98.1243178 75.1734449,98.4315595 C75.7903934,98.7388012 85.8693249,99.5276821 88.1318906,99.2871773 C90.3944563,99.0473021 92.9664435,98.5341833 94.9195878,97.3039573 C96.8739949,96.0731017 107.466945,87.4596309 120.117864,84.2808125 C132.767519,81.1026238 146.342914,81 146.342914,81 C146.342914,81 155.393808,88.1773677 158.067462,90.5874522 C160.741748,92.9969071 160.227098,94.9454994 158.993201,96.380973 C157.759304,97.8158169 154.365139,100.58477 153.747559,105.404309 C153.131242,110.223219 151.794415,131.551963 151.794415,131.551963 C151.794415,131.551963 151.073905,133.499926 149.222428,133.60255 C147.371582,133.705174 100.885108,139.755569 100.885108,139.755569 C100.885108,139.755569 87.103222,141.703531 81.8588435,141.908779 C76.613202,142.114026 56.6611991,141.908779 56.6611991,141.908779 L59.6436434,133.911051 C59.6436434,133.911051 48.5360434,134.9354 43.5998234,137.191234 C38.6629719,139.447068 36.555117,139.550321 36.555117,139.550321 C36.555117,139.550321 34.1517329,138.28106 35.3205884,135.2439 C36.4900753,132.206111 40.5952776,122.445521 49.5362957,111.500035 C58.4766824,100.55392 59.6954241,99.1751096 59.6954241,99.1751096 L65.3003734,98.4315595 Z" id="Fill-4" fill="#0094FF"></path>
        </g>
    </g>
</svg>