<?xml version="1.0" encoding="UTF-8"?>
<svg width="270px" height="347px" viewBox="0 0 270 347" version="1.1" xmlns="http://www.w3.org/2000/svg" xmlns:xlink="http://www.w3.org/1999/xlink">
    <!-- Generator: Sketch 53.1 (72631) - https://sketchapp.com -->
    <title>empresa_vector_home2</title>
    <desc>Created with Sketch.</desc>
    <defs>
        <polygon id="path-1" points="0 0.049530875 269.9399 0.049530875 269.9399 346.99982 0 346.99982"></polygon>
    </defs>
    <g id="empresa_vector_home2" stroke="none" stroke-width="1" fill="none" fill-rule="evenodd">
        <g id="Group-6">
            <g id="Group-3">
                <mask id="mask-2" fill="white">
                    <use xlink:href="#path-1"></use>
                </mask>
                <g id="Clip-2"></g>
                <path d="M224.80496,251.978455 C224.658748,255.199442 223.927684,256.517323 222.614462,258.128266 C221.298548,259.73831 219.254262,262.813665 219.107153,265.301996 C218.96094,267.791227 219.837319,272.037033 219.837319,272.037033 L215.163,272.037033 C215.163,272.037033 212.826289,272.330095 212.095226,272.769688 C211.36506,273.208382 210.926422,274.818426 210.487784,275.844144 C210.049146,276.868064 211.36506,278.040312 211.802801,278.625538 C212.240542,279.211662 210.779312,279.650356 210.196256,280.383012 C209.611405,281.114768 212.240542,281.700893 213.26403,281.993056 C214.285724,282.286118 214.139512,282.57918 214.579047,283.30824 C215.016787,284.035502 215.163,286.824986 215.163,286.824986 C215.163,286.824986 214.139512,287.556742 212.826289,287.774292 C211.510375,287.99274 213.26403,289.60638 214.579047,290.631198 C215.893166,291.656916 214.579047,292.241242 214.579047,292.241242 C214.579047,292.241242 200.115658,286.385393 195.294229,284.77445 C190.472801,283.163507 186.382435,283.310937 186.382435,283.310937 C186.382435,283.310937 196.901671,280.821706 208.297286,266.619877 C219.692003,252.418048 221.883399,232.506002 222.028714,230.456364 C222.174927,228.405828 223.197518,228.405828 223.197518,228.405828 C223.197518,228.405828 224.658748,236.458745 224.80496,239.826263 C224.951173,243.19468 224.951173,248.757468 224.80496,251.978455 M267.683831,88.4731337 C267.683831,88.4731337 266.478249,85.9479446 265.382103,82.3242218 C264.286854,78.700499 259.356887,64.3152813 258.151306,61.1311518 C256.945724,57.9461233 254.096821,51.906885 252.453498,49.2720223 C250.809279,46.6362606 247.302867,44.7700119 246.207618,44.2207451 C245.112369,43.6714782 234.483698,40.2671026 234.483698,40.2671026 C234.483698,40.2671026 235.689279,38.8395482 235.689279,38.0718332 C235.689279,37.3023202 232.402635,35.7650922 231.525359,35.6554187 C230.64898,35.5448461 227.800076,36.6442788 227.800076,36.6442788 C227.800076,36.6442788 227.909512,34.6674575 227.909512,33.6785974 C227.909512,32.6897373 228.456688,29.8355275 228.78589,26.1021311 C229.115093,22.3687347 229.224528,18.1957451 228.78589,15.1212891 C228.34815,12.0468332 225.608681,0.625498964 213.994196,0.0771310881 C202.379711,-0.471236788 191.860475,7.32457668 191.313299,8.09319067 C190.765226,8.86270363 190.546355,9.30139793 190.217153,10.6192788 C189.888847,11.9362606 189.778515,14.0227554 190.107718,14.2430016 C190.43692,14.4623487 192.408548,12.9251207 192.737751,13.5840611 C193.066056,14.2430016 193.724462,14.6816959 193.833,15.1212891 C193.943332,15.5608824 194.381073,22.807429 194.381073,22.807429 C194.381073,22.807429 194.892369,24.2718409 195.440442,24.8211078 C195.987618,25.3703746 195.440442,27.565644 195.440442,27.8946648 C195.440442,28.2254834 194.709379,31.3736544 194.818814,31.9220223 C194.929146,32.4703902 197.448847,31.7026751 197.448847,31.7026751 C197.448847,31.7026751 198.215791,32.1413694 198.654429,33.020556 C199.092169,33.8979446 198.763864,35.4360715 199.31104,35.7650922 C199.859113,36.0950119 200.626953,35.6554187 200.626953,35.6554187 C200.626953,35.6554187 200.297751,36.9732995 200.408083,37.5216674 C200.516621,38.0718332 201.17413,40.2671026 201.722203,40.926942 C202.270276,41.5849834 204.351339,41.4753098 205.667252,41.3656363 C206.981372,41.2559627 210.049146,41.1462891 210.378349,41.3656363 C210.706654,41.5849834 211.474495,43.4512321 210.81609,43.4512321 C210.159478,43.4512321 206.872834,42.6835171 206.543631,43.1222114 C206.214429,43.5618047 205.55692,46.9652813 205.55692,46.9652813 C205.55692,46.9652813 205.447485,51.138271 205.33805,52.5658254 C205.228615,53.9933798 204.351339,55.0910145 204.242801,55.6402813 C204.132468,56.1895482 201.283565,59.3745767 200.516621,60.4722114 C199.749678,61.5698461 198.873299,63.5466674 198.654429,65.413815 C198.435558,67.2800637 197.448847,74.7477554 196.681007,77.4922917 C195.91496,80.2377269 192.737751,88.144113 192.30001,89.5716674 C191.860475,90.9992218 191.532169,93.9640041 190.765226,94.9519653 C189.997385,95.9408254 188.793598,96.7085404 188.793598,97.8070741 C188.793598,98.9056078 190.765226,100.003242 190.107718,100.442836 C189.450209,100.88153 186.601306,102.20031 187.806887,103.187372 C189.012468,104.176232 190.875558,105.274766 190.107718,105.274766 C189.340774,105.274766 184.739113,103.847211 184.300475,103.406719 C183.861837,102.968025 173.234063,99.7838953 156.799047,100.112916 C140.362236,100.442836 102.232136,116.803976 89.9610399,138.326965 C89.9610399,138.326965 90.0345947,140.193214 89.339412,140.961828 C88.6460233,141.730442 85.7971196,142.060362 85.7971196,142.060362 C85.7971196,142.060362 57.8570532,173.13574 51.1734319,193.561095 C51.1734319,193.561095 50.734794,195.427344 50.8433322,196.745224 C50.9536645,198.062206 52.5978837,199.16074 52.9261894,199.709108 C53.254495,200.259274 51.9403754,199.81968 51.0630997,200.478621 C50.1867209,201.136662 48.3245282,201.796502 48.1056578,202.674789 C47.8867874,203.553077 42.7352591,217.608375 40.7636312,228.589217 C38.7920033,239.570059 36.7100432,254.943237 36.7100432,254.943237 C36.7100432,254.943237 37.9147276,256.151445 37.2572193,256.920059 C36.600608,257.689572 36.0516379,257.689572 36.0516379,258.347613 C36.0516379,259.005654 35.613897,273.390872 35.613897,273.390872 C35.613897,273.390872 36.1619701,274.270059 37.2572193,274.708753 C38.3533654,275.148346 44.7086811,277.125167 44.7086811,277.125167 L44.9275515,284.811307 C44.9275515,284.811307 38.133598,284.701634 28.4916379,286.129188 C28.4916379,286.129188 28.3822027,283.823346 28.2727674,282.94416 C28.1624352,282.066771 24.547485,281.406932 20.3835648,281.406932 C16.2196445,281.406932 11.5085482,284.262939 11.5085482,284.262939 C11.5085482,284.262939 11.399113,287.556742 11.5085482,287.77609 C11.6179834,287.995437 12.933,288.76495 12.3849269,289.422991 C11.8377508,290.082831 2.3043289,292.2781 2.3043289,298.09889 L2.3043289,305.016416 C2.3043289,305.016416 -0.105039867,306.772991 0.00349833887,310.726634 C0.113830565,314.679377 0.551571429,328.844349 0.551571429,328.844349 L2.3043289,331.040517 L2.3043289,334.99416 L3.40047508,335.360038 L3.83821595,336.238325 L4.7881495,336.238325 L4.7881495,337.043797 L6.32293355,337.043797 L6.6871196,337.775553 L8.5860897,337.775553 L8.5860897,338.874087 L11.2161229,338.874087 L11.7274186,340.191968 L12.6046944,339.679559 L13.6999435,340.777193 L14.8687475,340.777193 L16.1837641,341.948543 L17.2790133,341.363318 L18.3016047,341.948543 L19.6901761,342.388136 L20.2005748,343.119893 L21.2967209,342.754015 L22.4655249,343.705118 L24.1456246,343.705118 L25.1682159,344.217527 L25.9719369,343.632302 L27.6520365,344.876468 L28.8208405,344.217527 L30.0614053,344.876468 L31.2311063,344.437774 L32.6914385,344.876468 L33.4960565,344.876468 L34.445093,345.388877 L35.9063223,344.730836 L37.4402093,345.754755 L38.1703754,344.876468 L39.485392,345.754755 L40.7995116,345.243245 L41.1654917,346.121533 L43.2842292,345.243245 L43.7219701,346.121533 L45.5482824,345.535408 L46.4982159,346.414595 C46.4982159,346.414595 46.9359568,345.096714 47.7387807,345.827572 L48.5433987,346.560227 L49.3462226,345.901287 L51.3923023,346.99982 L51.903598,345.901287 L52.9261894,346.560227 L54.3874186,346.268064 L54.8978173,346.99982 L56.0675183,346.268064 L57.5278505,346.99982 L58.1853588,346.121533 L59.5003754,346.99982 L60.9616047,346.195248 L61.7644286,346.99982 L62.8605748,345.975901 L64.0293787,346.99982 L64.8330997,345.901287 L66.2934319,346.99982 L67.4631329,346.34088 L69.5074186,346.268064 L70.895093,346.487411 L71.6252591,345.462592 L72.8676179,346.414595 L73.6713389,345.023898 L76.0816047,345.462592 L76.0816047,344.657121 L78.1267874,345.243245 L78.4927674,344.364958 L80.2455249,344.876468 L81.780309,343.632302 L83.5321694,343.705118 L84.4094452,342.680299 L86.4546279,342.973362 L86.4546279,342.021359 L88.353598,342.095074 L89.339412,340.777193 C89.339412,340.777193 95.4390797,340.045437 102.525458,338.288862 C109.610043,336.531388 120.055724,332.578644 123.270608,331.040517 C126.484595,329.503289 129.041073,327.453652 129.698581,327.014958 C130.355193,326.575364 131.816422,325.550546 132.254163,323.207846 C132.692801,320.866046 132.254163,314.057294 132.254163,314.057294 L131.378681,301.905103 L135.103066,301.905103 C135.103066,301.905103 134.446455,312.373535 137.880209,317.498527 C141.312169,322.621722 147.95991,324.525727 155.776455,322.988499 C163.592103,321.450372 168.267319,314.789051 169.946522,307.029196 C171.626621,299.269341 169.289013,290.850546 169.289013,290.850546 L185.652269,297.146888 L185.652269,301.099631 L192.080243,303.661678 L192.080243,299.563302 L228.822668,311.787411 C228.822668,311.787411 231.232934,310.543245 231.232934,310.177367 L231.232934,299.928281 C231.232934,299.928281 232.475292,299.708934 232.985691,296.853825 C233.496987,293.998717 232.985691,287.190864 232.985691,287.190864 C232.985691,287.190864 235.140309,287.447069 235.470409,286.018616 C235.798714,284.591061 235.470409,283.494325 235.470409,283.494325 C235.470409,283.494325 243.906787,281.406932 244.672834,280.419869 C245.440674,279.431009 245.112369,278.881742 245.55011,277.454188 C245.988748,276.026634 245.440674,274.270059 246.317053,274.050711 C247.194329,273.830465 248.39991,274.379732 248.837651,273.610219 C249.275392,272.842504 248.947086,270.206742 249.384827,264.716771 C249.824362,259.225901 249.824362,254.174623 249.384827,248.574978 C248.947086,242.973535 248.39991,239.570059 248.180143,230.785385 C247.960375,222.000711 249.71403,215.52188 249.275392,208.714027 C248.837651,201.906175 247.63207,201.247235 248.289578,198.282452 C248.947086,195.31767 250.699844,193.780442 250.918714,190.925333 C251.137585,188.070224 251.57712,180.492859 251.57712,180.492859 C251.57712,180.492859 254.425126,181.042126 255.302402,180.492859 C256.178781,179.944491 256.069346,177.638649 256.178781,176.97881 C256.288216,176.320768 257.602336,157.872235 258.040973,147.111639 C258.479611,136.350144 258.807917,117.90161 258.807917,117.90161 L259.245658,109.55653 C259.245658,109.55653 260.890774,108.568569 261.328515,107.470035 C261.767153,106.371502 261.43795,105.384439 262.534096,104.835173 C263.629346,104.285906 264.067086,103.847211 264.944362,103.627864 C265.821638,103.406719 267.13486,103.517292 267.683831,103.077698 C268.231007,102.639004 269.983764,101.430797 269.764894,99.7838953 C269.546023,98.1369938 268.926189,93.8543306 269.784628,93.1953902 C270.642169,92.5364497 267.683831,88.4731337 267.683831,88.4731337" id="Fill-1" fill="#00FFC9" mask="url(#mask-2)"></path>
            </g>
            <path d="M93.1477318,140.861405 L93.1477318,143.347814 L103.985092,143.347814 C103.985092,143.347814 106.328451,140.423207 107.206986,140.861405 C108.08552,141.299602 122.437919,142.424727 125.659812,142.081712 C128.881706,141.739595 132.544216,141.00777 135.325493,139.253185 C138.108569,137.497702 153.19293,125.212916 171.207838,120.679192 C189.220948,116.146365 208.552309,116 208.552309,116 C208.552309,116 221.440783,126.236574 225.248066,129.673907 C229.056249,133.110343 228.323387,135.889483 226.566318,137.936798 C224.809248,139.983214 219.975958,143.932377 219.096524,150.806146 C218.218889,157.679017 216.315247,188.098702 216.315247,188.098702 C216.315247,188.098702 215.289241,190.876944 212.652737,191.023309 C210.017133,191.169674 143.820394,199.798926 143.820394,199.798926 C143.820394,199.798926 124.194988,202.577168 116.726993,202.869898 C109.2572,203.162628 80.8455476,202.869898 80.8455476,202.869898 L85.0925482,191.463302 C85.0925482,191.463302 69.2753258,192.924258 62.2461485,196.141595 C55.216072,199.358933 52.2144865,199.506196 52.2144865,199.506196 C52.2144865,199.506196 48.7920676,197.695938 50.4565178,193.364251 C52.1218672,189.031667 57.9676753,175.110825 70.6996851,159.50005 C83.4307957,143.888377 85.166284,141.921878 85.166284,141.921878 L93.1477318,140.861405 Z" id="Fill-4" fill="#0094FF"></path>
        </g>
    </g>
</svg>