<?xml version="1.0" encoding="UTF-8"?>
<svg width="351px" height="347px" viewBox="0 0 351 347" version="1.1" xmlns="http://www.w3.org/2000/svg" xmlns:xlink="http://www.w3.org/1999/xlink">
    <!-- Generator: Sketch 53.1 (72631) - https://sketchapp.com -->
    <title>empresa_vector_home</title>
    <desc>Created with Sketch.</desc>
    <defs>
        <polygon id="path-1" points="0 0 351 0 351 347 0 347"></polygon>
    </defs>
    <g id="empresa_vector_home" stroke="none" stroke-width="1" fill="none" fill-rule="evenodd">
        <g id="Group-3">
            <mask id="mask-2" fill="white">
                <use xlink:href="#path-1"></use>
            </mask>
            <g id="Clip-2"></g>
            <path d="M182.372618,320.377864 C181.76449,320.985636 181.090021,321.323226 181.157468,320.985636 C181.224915,320.648046 181.152493,316.396402 181.152493,316.396402 L178.726064,316.261034 C178.726064,316.261034 183.183086,315.248817 184.533682,314.709004 C184.533682,314.709004 182.980745,319.770644 182.372618,320.377864 L182.372618,320.377864 Z M169.069552,316.531217 L168.934105,315.518447 L167.786403,315.586407 L167.786403,312.954199 C169.271892,314.506229 175.080063,316.194179 175.080063,316.194179 L169.069552,316.531217 Z M163.667168,295.676333 C163.667168,295.676333 157.048529,287.780264 154.888018,281.233449 L160.628189,281.773814 C160.628189,281.773814 160.560742,283.528619 161.675274,283.730841 C162.7887,283.933064 164.747424,283.393251 164.747424,283.393251 L165.084658,284.135839 L162.046232,284.540836 C162.046232,284.540836 161.910785,286.498416 162.451466,287.172491 C162.991594,287.847671 164.004402,289.130071 164.004402,289.737291 C164.004402,290.345063 164.477636,290.816916 165.084658,290.547286 C165.692785,290.277103 165.625339,289.535069 165.084658,288.927296 C164.545083,288.320076 164.409636,287.239899 164.409636,287.239899 L165.692785,287.105084 L166.503254,289.602476 L167.786403,290.209696 C167.786403,290.209696 164.81487,292.909311 163.667168,295.676333 L163.667168,295.676333 Z M162.316572,311.536984 L161.10087,310.794397 C161.10087,310.794397 160.965423,309.377182 160.763083,308.76941 C160.560742,308.162742 159.547933,307.689785 159.412487,307.217932 C159.277593,306.744975 158.939806,305.32776 158.534572,305.057577 C158.129338,304.787395 158.332231,303.977952 157.85955,303.370732 C157.386869,302.76296 156.441507,296.75651 156.441507,296.75651 C157.183976,297.903543 162.653806,303.370732 162.653806,303.370732 C163.734615,309.44459 166.907935,312.009389 166.907935,312.009389 L162.316572,311.536984 Z M163.802062,317.273804 C163.802062,317.273804 155.361252,317.138436 155.022912,317.273804 C154.685677,317.408619 152.794401,317.071581 152.794401,316.531217 C152.794401,315.991404 151.849039,316.328994 151.511804,316.531217 C151.173464,316.733439 150.83623,315.451592 151.241464,315.451592 C151.646698,315.451592 152.929294,314.742708 152.929294,314.742708 L152.8624,312.009389 C152.8624,312.009389 150.701336,310.524214 146.851889,310.524214 C143.002995,310.524214 140.976824,311.266802 140.57159,311.536984 C140.166356,311.806614 139.896569,312.346979 139.829122,313.291789 C139.761675,314.236599 140.57159,315.114002 140.57159,315.114002 L139.693675,316.531217 L138.005845,316.531217 L132.197674,316.531217 C132.197674,316.531217 132.062781,314.574189 132.062781,313.763642 C132.062781,312.954199 132.805802,309.78218 132.805802,309.377182 C132.805802,308.972185 133.143589,303.572955 133.143589,303.572955 L132.197674,303.572955 C132.062781,298.713538 129.091801,292.909311 123.35163,293.246901 C117.611459,293.584491 111.331161,301.008155 111.196267,301.21093 C111.061373,301.413153 110.048564,301.750743 109.777671,300.940748 C109.507884,300.130753 108.359628,292.707088 108.359628,292.707088 C108.359628,292.707088 109.305543,294.461893 109.777671,294.461893 C110.250905,294.461893 110.723033,293.584491 112.276522,289.872658 C113.830012,286.160274 114.302693,282.516402 114.37014,281.841222 C114.437586,281.166042 111.804394,281.098634 111.871841,280.761597 C111.939288,280.423454 111.600948,279.073647 111.600948,279.073647 C111.600948,279.073647 115.113161,270.0974 117.949247,263.956135 C120.785885,257.814871 138.748313,228.725776 138.748313,228.725776 C138.748313,228.725776 132.468015,240.266822 130.441844,245.126239 C128.416227,249.985656 129.699376,256.937468 129.699376,256.937468 L124.229545,256.937468 C124.229545,256.937468 123.35163,257.544136 123.35163,258.894496 C123.35163,260.243751 124.499333,260.986338 124.499333,260.986338 L131.252312,260.986338 C136.047122,269.625548 145.83908,272.32461 145.83908,272.32461 C148.202485,283.055661 154.144997,293.246901 154.144997,293.246901 C154.144997,293.246901 154.61823,295.744293 154.955465,297.70132 C155.293252,299.658348 156.441507,303.10055 156.441507,303.10055 C156.441507,303.10055 156.643848,304.585725 156.441507,305.125537 C156.239167,305.66535 156.576401,306.002387 156.441507,306.812382 C156.306614,307.622377 157.724103,308.567187 157.724103,308.567187 C157.724103,308.567187 157.251975,309.579957 157.994444,310.861804 C158.737465,312.144204 160.425848,311.199947 160.425848,311.199947 L165.084658,315.923444 L163.802062,317.273804 Z M144.555931,266.31816 C144.555931,266.31816 139.288441,264.158358 136.992483,260.851523 L143.678016,260.446526 C143.678016,260.446526 144.218144,264.225765 144.555931,266.31816 L144.555931,266.31816 Z M144.285591,230.278358 C142.32742,241.95422 143.475676,256.531918 143.475676,256.531918 L134.764525,256.531918 C131.916277,244.959931 144.285591,230.278358 144.285591,230.278358 L144.285591,230.278358 Z M349.84762,316.733439 C349.306939,313.156974 340.460342,312.077349 340.460342,312.077349 C340.460342,312.077349 339.988214,311.401617 339.649874,311.266802 C339.31264,311.131987 339.31264,309.849587 339.245193,309.309775 C339.177746,308.76941 335.058512,305.463127 335.058512,305.463127 C335.058512,305.463127 334.787618,304.517765 334.585278,304.11332 C334.382937,303.70777 330.938724,300.53575 330.263702,299.92853 C329.588128,299.32131 328.710213,299.32131 328.710213,299.32131 L314.529232,299.118535 C314.529232,299.118535 313.718764,297.229468 313.178083,296.823918 C312.638508,296.41892 307.708253,296.75651 307.708253,296.75651 L307.776252,283.123069 C307.776252,283.123069 309.464636,282.583257 310.342551,281.908629 C311.220466,281.233449 312.368168,278.534387 312.368168,278.534387 C314.866466,278.466427 317.230424,275.699405 317.230424,275.699405 C317.230424,275.699405 318.783361,270.705172 319.256594,268.680738 C319.728722,266.65575 317.432765,261.391336 317.432765,261.391336 C316.824637,257.881726 316.419956,234.935 316.419956,234.935 C314.461785,229.603178 305.480295,218.602496 303.859358,217.049914 C302.238422,215.497884 300.280251,215.092334 298.321528,214.350852 C296.363357,213.608264 291.366208,213.270674 291.366208,213.270674 C292.716804,212.257904 291.703995,210.031247 291.703995,210.031247 C280.56144,196.803355 265.367098,185.666754 265.367098,185.666754 C265.367098,185.666754 265.164757,181.549924 264.354289,179.997894 C263.543821,178.445312 259.897267,178.377904 259.897267,178.377904 L259.897267,175.678289 L258.614118,175.610882 C258.614118,175.610882 259.019352,174.39589 258.614118,173.518487 C258.208884,172.641085 250.037861,168.997212 247.269223,168.11981 C244.500584,167.242408 242.001732,165.960008 241.461605,165.757233 C240.920924,165.554458 239.233094,164.340018 238.355179,163.732245 C237.477264,163.125578 236.801689,163.3278 235.788881,163.057618 C234.776072,162.787435 230.04871,161.775218 228.157986,161.370773 C226.267262,160.965223 217.691006,160.290596 213.504324,160.290596 C209.31709,160.290596 203.172237,160.897816 202.226323,161.100591 C201.280961,161.302813 199.187896,161.707811 198.512322,162.248175 C197.8373,162.787435 197.702407,164.069835 197.702407,164.069835 L194.122747,163.934468 L194.122747,164.87983 C194.122747,164.87983 192.704704,164.947238 192.29947,164.947238 C191.894789,164.947238 187.707555,165.757233 187.707555,165.757233 C187.707555,165.757233 182.372618,166.702043 172.783552,168.929252 C163.194487,171.156462 158.129338,177.365687 158.129338,177.365687 C156.441507,176.757914 153.335081,177.230872 153.335081,177.230872 C151.376911,177.500502 149.012953,179.863079 148.540272,180.402339 C148.067591,180.942704 147.59491,182.157144 147.189123,181.684739 C146.784442,181.212887 146.447208,181.144927 146.447208,181.887514 L146.447208,183.979909 C146.447208,183.979909 145.501846,183.912501 144.961165,184.519169 C144.421038,185.126941 145.63674,185.599346 145.366399,185.869529 C145.096059,186.139159 143.272782,190.661538 143.272782,190.661538 L125.174907,174.39589 C125.174907,174.39589 125.783035,174.193667 126.32261,173.653302 C126.86329,173.114042 126.390057,172.708492 126.32261,171.89905 C126.255163,171.089055 121.123119,164.474833 121.123119,164.474833 L119.705077,162.854843 C119.705077,162.854843 119.029502,162.787435 118.759715,163.125578 C118.489374,163.462615 119.164949,164.340018 119.164949,164.340018 C119.164949,164.340018 124.702226,171.628867 124.702226,172.371455 L124.702226,173.585895 L120.177757,169.739247 C120.177757,169.739247 119.772523,169.06462 119.434736,168.591662 C119.096949,168.11981 118.421927,168.05185 118.421927,168.05185 L116.734097,166.76945 C116.734097,166.76945 116.395757,166.297045 116.32831,165.892048 C116.260863,165.487603 115.788735,165.419643 115.450395,165.082605 C115.113161,164.745015 113.964906,164.745015 113.964906,164.745015 L110.85848,161.707811 C110.85848,161.707811 112.817203,159.615416 113.086991,158.872828 C113.356778,158.131346 112.61431,157.118576 112.343969,156.511356 C112.074182,155.903583 110.048564,149.694359 109.642777,148.141776 C109.237543,146.589747 108.359628,144.565312 107.34682,143.283464 C106.334011,142.000512 100.93218,137.27591 100.59384,136.870912 C100.256606,136.466467 94.1786474,131.134093 94.1786474,131.134093 L92.8954983,130.864463 L91.0042217,129.177065 L89.7216255,130.594833 L88.7088167,129.71743 L86.3454121,132.012048 L80.2674539,127.557628 C80.2674539,127.557628 80.200007,123.778388 80.1320073,123.305431 C80.0645604,122.833578 79.9296667,122.090991 79.8622198,121.415811 C79.794773,120.741184 80.0645604,120.133411 80.200007,119.053786 C80.3354536,117.974161 80.4703474,116.624354 80.4703474,116.624354 L81.3482624,116.624354 L81.4157092,116.016581 L82.6308586,116.016581 C83.1035395,111.225124 79.9971136,109.402359 79.9971136,109.402359 L79.9971136,104.205905 C79.9971136,104.205905 80.1320073,100.089075 80.0645604,99.6161176 C79.9971136,99.1442652 80.1320073,96.2418754 80.1320073,95.8368779 C80.1320073,95.4318804 80.4023476,94.689293 80.4703474,94.2174405 C80.5377942,93.744483 81.2133686,92.3272681 81.0773692,91.5178257 C80.9424754,90.7072783 80.3354536,90.8426458 80.3354536,90.8426458 C80.3354536,90.8426458 80.8750286,90.1680183 80.9424754,89.4928384 C81.0099223,88.8176584 80.672688,88.7502509 80.2674539,88.3452534 C79.8622198,87.940256 79.9296667,87.7380335 80.5377942,87.535811 C81.1448161,87.333036 80.8750286,86.995446 80.672688,86.4556336 C80.4703474,85.9158211 80.1320073,83.3510213 79.9296667,82.8112089 C79.7273261,82.2713964 79.7273261,81.6641765 79.5244326,81.1917715 C79.322092,80.718814 78.6465176,80.1795541 78.2418364,80.2469616 C77.8360495,80.3143691 77.7011558,81.393994 77.7011558,81.393994 C77.7011558,81.393994 76.8232408,79.0314166 76.688347,78.4921567 C76.5534533,77.9517917 76.2831129,75.6571744 76.0802195,74.8471794 C75.8778789,74.0371845 74.932517,70.1905373 74.7976233,69.3805424 C74.6621767,68.5710999 74.1220489,65.8035251 73.4470273,63.7790903 C72.7714529,61.7541029 70.2051548,59.1893031 69.1248992,57.9748632 C68.0440907,56.7598708 66.7614945,55.0724734 66.7614945,55.0724734 C66.7614945,55.0724734 68.0440907,53.4524835 68.8551117,52.8458161 C69.665027,52.2380436 69.4626864,52.1032286 69.665027,51.6982312 C69.8679204,51.2926812 70.2051548,50.8882362 70.542942,50.2804638 C70.8807292,49.6732438 71.2859632,49.8086113 71.8935379,49.4710213 C72.5016654,49.1334314 73.5819211,47.5134415 73.5819211,47.5134415 C73.5819211,47.5134415 75.810432,48.6610264 78.3767301,48.8638014 C80.9424754,49.0660239 82.428518,48.3908439 83.1035395,47.986399 C83.7791139,47.5814015 83.711667,45.6917816 83.7791139,45.0840092 C83.8465608,44.4762367 84.3192417,44.5436442 84.7244758,44.3414217 C85.1297099,44.1391992 85.7372845,43.6667943 86.1425186,43.3966118 C86.5477527,43.1269818 86.2779652,41.8445819 86.2779652,41.8445819 C86.2779652,41.8445819 86.6826464,41.5743994 87.0198808,41.4390319 C87.3582208,41.3042169 87.3582208,40.899772 87.4256677,40.5616295 C87.4931145,40.224592 87.6280083,39.0775596 87.6954552,38.6725621 C87.762902,38.2675647 88.3710295,38.2675647 88.3710295,38.2675647 C88.3710295,38.2675647 89.1140508,38.3349722 89.518732,38.3349722 C89.9239661,38.3349722 90.329753,38.4023797 91.207668,37.7951597 C92.085583,37.1873872 91.9501364,36.3779448 91.9501364,35.8381324 C91.9501364,35.2977674 91.0727743,32.8009276 90.869328,32.1931551 C90.6669874,31.5859352 90.5320936,30.3709428 90.329753,29.8311303 C90.1268596,29.2913178 90.0594127,28.2791004 90.0594127,28.0089179 C90.0594127,27.7387354 90.1268596,27.4691055 90.7344342,27.198923 C91.3425618,26.929293 91.8821367,26.1867056 91.8821367,26.1867056 C91.8821367,26.1867056 94.9891155,27.671328 96.0019243,27.8741029 C97.0152858,28.0763254 98.0280946,28.1442854 99.8508186,27.8066955 C101.674096,27.4691055 103.497372,25.8496681 104.172947,25.1070807 C104.847968,24.3644932 104.172947,23.2169083 104.172947,23.2169083 C104.172947,23.2169083 95.1240093,17.6154562 94.5164346,17.2778662 C93.9083071,16.9408288 92.8954983,15.9280588 92.2879236,14.9158414 C91.6797961,13.9030715 90.1943064,9.85364927 89.5867317,8.50384187 C88.9786042,7.15458699 87.1558802,3.50960974 86.6826464,3.23997978 C86.2105183,2.96979729 84.7244758,2.42998483 83.9140077,2.22776236 C83.1035395,2.02498736 81.4831561,1.4851749 80.4023476,1.35035992 C79.322092,1.21554494 74.054602,0.945362448 74.054602,0.945362448 C73.9871551,0.203327517 73.176687,0 72.5016654,0 C71.8260911,0 71.7586442,1.08017743 71.7586442,1.08017743 C71.7586442,1.08017743 71.1505167,1.41776741 70.1377079,1.5525824 C69.1248992,1.6879499 66.5591539,2.36257734 65.275452,2.70016732 C63.9928557,3.03720478 62.1015791,4.45497219 61.4945573,4.99423213 C60.8864298,5.5345971 58.9277063,7.28940197 58.3875785,7.82921443 C57.8474507,8.36902689 55.1462588,10.7990117 55.1462588,10.7990117 C55.1462588,10.7990117 54.2683438,11.2714167 53.5933223,11.7432691 C52.9177479,12.2162266 53.0526416,12.4190016 52.7828541,13.363259 C52.5125138,14.3086215 52.7828541,14.9832489 52.9851947,16.3789155 C53.1875354,17.7745821 53.4578757,16.7375013 54.0654504,17.6828637 C54.6735779,18.6276736 54.5386841,16.5358313 54.8084716,16.4004638 C55.078812,16.2656488 55.4160463,16.8054613 55.4160463,16.8054613 L55.078812,19.9106261 L56.0916207,19.9106261 L55.4160463,20.584701 C55.4160463,20.584701 53.9985563,22.6096883 53.5933223,22.9472783 C53.1875354,23.2848683 52.7828541,25.1070807 52.5125138,26.0518906 C52.2421735,26.9967005 52.0398329,30.1013128 52.0398329,30.8439002 C52.0398329,31.5859352 51.6351517,31.6533427 51.3642585,32.2611151 C51.094471,32.8683351 51.1619179,33.2733325 51.2968116,34.6905474 C51.4317054,36.1077623 52.6479604,36.3779448 52.9177479,36.5127598 C53.1875354,36.6475748 52.7154073,37.8625672 52.1747266,38.4697871 C51.6351517,39.0775596 50.8241307,40.1571845 50.8241307,40.1571845 C50.8241307,40.1571845 50.2840029,40.1571845 49.9462157,40.4947745 C49.6089813,40.8323645 49.4735347,40.9671795 49.2037473,41.4390319 C48.9334069,41.9119894 48.3932791,41.4390319 48.0554919,41.4390319 C47.7182576,41.4390319 47.11013,42.3843944 46.5020025,42.7893918 C45.8949807,43.1943893 45.6246404,43.6667943 45.4217469,44.2066067 C45.2194063,44.7469717 43.2606828,46.0962266 42.4502147,46.7714065 C41.6402994,47.446034 38.1960863,49.2682463 37.5879587,50.0782413 C36.9809369,50.8882362 33.874511,53.1154461 32.5233622,54.9376584 C31.1733191,56.7598708 27.7965528,62.9690953 27.7965528,62.9690953 C27.7965528,62.9690953 25.500595,68.5710999 24.9604672,70.8651647 C24.4203394,73.1597821 23.8122118,78.0191992 23.6773181,79.6391891 C23.5424244,81.259179 23.6093184,83.8234263 23.5424244,85.2411937 C23.4744247,86.6584086 23.0697434,93.2726306 23.0697434,94.6218855 C23.0697434,95.9722454 22.9348497,103.530725 22.9348497,103.530725 C22.9348497,103.530725 23.0697434,104.881085 23.272084,105.62312 C23.4744247,106.365707 23.4744247,107.310517 23.4744247,107.985697 C23.4744247,108.659772 23.0697434,109.605134 22.86685,110.347722 C22.6639565,111.089757 22.5290628,112.709747 22.394169,114.261777 C22.2592753,115.814359 22.5290628,118.176384 22.3267222,120.538409 C22.1243816,122.900433 23.0022966,127.422261 23.0697434,128.030033 C23.1371903,128.637253 23.6773181,129.71743 24.149999,130.729648 C24.62268,131.741865 24.9604672,132.146863 25.4331481,132.687228 C25.9058291,133.226488 27.256425,133.901668 27.8645525,134.77907 C28.4715744,135.656472 30.5651916,137.073687 30.5651916,137.073687 C30.5651916,137.073687 29.9576169,137.27591 29.4849359,137.6135 C29.012255,137.95109 29.2825953,138.828492 29.0797019,139.436265 C28.8773613,140.043485 28.2692337,140.583297 28.13434,141.257925 C27.9994463,141.933104 28.2017869,143.080137 28.2017869,143.418279 C28.2017869,143.755317 27.6616591,143.755317 27.1215313,144.430497 C26.5808506,145.104572 25.9732759,145.712344 25.7703825,146.320117 C25.5680419,146.927337 24.6901269,147.804739 24.2848928,148.682141 C23.8796587,149.559544 23.9476584,149.761766 23.744765,151.179534 C23.5424244,152.596749 23.272084,156.511356 23.272084,156.511356 L21.7185946,156.983208 C21.7185946,156.983208 21.7185946,158.738013 21.7860415,159.682823 C21.8534884,160.628186 22.1918284,161.235406 22.1918284,162.180215 C22.1918284,163.125578 22.3267222,164.137795 22.394169,165.554458 C22.4616159,166.972225 22.9348497,170.211652 22.9348497,171.494052 C22.9348497,172.7759 24.2174459,177.973459 24.2848928,178.918269 C24.3523397,179.863079 24.8250206,186.207119 24.8250206,186.814339 C24.8250206,187.421559 25.027914,189.176363 25.0953609,189.918951 C25.1633606,190.661538 25.0953609,190.728946 24.9604672,191.336166 C24.8250206,191.943938 24.2848928,192.821341 24.0151053,193.900966 C23.744765,194.980591 23.3395309,196.803355 23.1371903,197.815573 C22.9348497,198.82779 21.3813603,205.576827 21.1790197,206.994042 C20.9761262,208.41181 20.7732328,213.945302 20.638339,215.363069 C20.5034453,216.780284 20.5708922,222.382289 20.3011047,224.339316 C20.0307644,226.296343 20.233105,229.26614 19.9760329,230.345765 C19.7189608,231.42539 19.6255303,231.020393 19.0179556,231.76298 C18.4098281,232.505568 16.3167637,234.462595 16.1138703,234.935 C15.9109768,235.407405 15.303955,237.23017 15.0336147,237.972205 C14.7632743,238.71424 14.2231465,240.199415 14.0882528,241.481815 C13.9528062,242.763662 13.5475721,246.003642 13.0074443,247.286042 C12.4673165,248.567889 11.7242952,251.672501 11.319614,253.090269 C10.9138271,254.506931 9.22599682,263.753913 9.09110308,264.42854 C8.9556565,265.103168 7.67250743,273.067197 7.47016681,274.88941 C7.2678262,276.711622 5.98412429,281.976037 5.71433681,284.406021 C5.44454932,286.835454 5.03876241,291.829686 4.8364218,293.112086 C4.63352835,294.394486 3.89050708,301.683335 3.75561334,302.560738 C3.6207196,303.43814 3.82361306,306.812382 3.89050708,307.8246 C3.9585068,308.83737 3.68816647,310.254584 3.48582586,311.266802 C3.28348525,312.279572 2.87769834,314.034377 2.81025147,314.574189 C2.7428046,315.114002 3.08059179,315.518447 3.08059179,316.058812 C3.08059179,316.598624 2.87769834,316.733439 2.67535773,317.273804 C2.47301712,317.813616 2.13467708,318.488244 1.79744272,319.298239 C1.46020837,320.108234 1.52765524,320.377864 1.25731492,321.120451 C0.98697459,321.863039 0.91952772,321.795079 0.514293653,322.470259 C0.109059586,323.145439 -0.0932810254,324.967651 0.0416127157,326.182643 C0.176506457,327.397083 1.46020837,328.679483 4.29629399,330.501695 C7.13237962,332.323908 8.68586901,332.999088 9.63067805,333.336125 C10.5765928,333.673715 11.0487209,333.943898 11.5894015,334.416303 C12.1300822,334.888708 13.615019,336.575553 14.8981681,337.04851 C16.18187,337.520915 17.4644662,338.6685 26.6482975,338.870722 C35.8326816,339.072945 39.9519163,337.520915 39.9519163,337.520915 C39.9519163,337.520915 41.3699591,337.115917 41.7077463,336.305923 C42.0455335,335.495928 42.1129803,334.685933 41.7077463,334.14612 C41.3025122,333.605755 41.1676185,333.741675 40.9652779,332.93168 C40.7623844,332.121685 39.1414481,330.9741 38.7367669,330.907245 C38.33098,330.839285 35.8326816,329.894476 35.4948944,329.827068 C35.15766,329.759108 32.996596,328.341893 32.3884684,327.531898 C31.7808938,326.721903 31.1733191,325.979868 30.7000853,325.305241 C30.2274044,324.630061 26.9866375,320.108234 26.5808506,319.635276 C26.1761694,319.163424 26.3110631,318.757874 26.9191906,318.757874 C27.5262125,318.757874 28.6070209,315.046594 28.7419147,314.438822 C28.8773613,313.831602 29.6198297,313.426604 30.1605103,312.819384 C30.7000853,312.212164 31.2407659,310.929212 31.3756597,309.849587 C31.5105534,308.76941 31.4431066,307.55497 31.2407659,306.069795 C31.0384253,304.585725 30.1605103,299.388718 30.1605103,299.388718 C30.1605103,299.388718 34.7518731,288.927296 37.0483838,283.123069 C39.3443416,277.318842 44.4089382,262.876511 44.4089382,262.876511 C44.4089382,262.876511 46.0298744,272.392017 46.0973213,273.809785 C46.1647682,275.227 47.11013,280.221232 47.1775769,282.516402 C47.2450238,284.810466 47.9205982,285.418239 48.2583854,286.430456 C48.5961726,287.442674 48.2583854,288.995256 48.1903857,289.939513 C48.1229388,290.884876 48.460726,291.762278 48.5961726,292.909311 C48.7310663,294.056343 49.0008538,302.965735 49.1363004,305.192945 C49.2711941,307.420155 50.216556,312.346979 50.4188966,314.506229 C50.6217901,316.666031 52.1747266,324.900243 52.2421735,325.642278 C52.3096204,326.384866 52.5805135,326.250051 52.7828541,327.060046 C52.9851947,327.869488 51.9049391,328.004856 51.9049391,328.004856 C51.9049391,328.004856 51.7700454,330.029291 51.8374923,331.31169 C51.9049391,332.593538 54.0654504,333.47094 56.4288551,333.741675 C58.7928126,334.011305 67.0987288,333.404085 72.8388998,333.066495 C78.5790708,332.728905 87.1558802,332.796865 95.7315839,332.593538 C104.308393,332.391315 106.942138,329.354111 107.279373,328.072263 C107.616607,326.789863 106.874692,326.789863 106.874692,326.789863 C106.536351,323.145439 101.471755,323.212846 100.324052,323.212846 C99.1757971,323.212846 93.9757539,322.605074 92.625158,321.930999 C91.2751149,321.255266 89.991413,320.513231 89.8565192,320.175641 C89.7216255,319.838051 89.0460511,319.365646 88.4384764,319.230831 C87.8309017,319.096016 87.3582208,318.623059 86.5477527,318.016391 C85.7372845,317.408619 85.7372845,318.218614 84.9942633,317.543434 C84.2517949,316.868254 84.0489014,317.003621 83.5762205,317.003621 C83.1035395,317.003621 82.7657523,316.194179 81.9552842,315.991404 C81.1448161,315.788629 81.2133686,315.653814 81.2802626,315.046594 C81.3482624,314.438822 80.6052411,314.101784 80.200007,313.426604 C79.794773,312.751424 76.8906876,309.242367 76.8906876,309.242367 C76.8906876,309.242367 77.0255814,305.93498 77.0255814,303.70777 C77.0255814,301.481113 75.4731977,297.903543 74.5952827,295.474111 C73.7168148,293.044126 72.1633254,288.725074 72.1633254,288.725074 C72.1633254,288.725074 76.0802195,269.692955 76.3511127,267.735375 C76.6209001,265.778348 78.038943,255.182111 78.6465176,249.647514 C79.2546452,244.114022 79.794773,240.536452 79.7273261,237.904245 C79.6598792,235.27259 78.5116239,230.008175 78.3767301,227.713558 C78.2418364,225.418941 77.9714961,215.430477 78.038943,214.080117 C78.1063898,212.730862 78.444177,211.786052 78.6465176,210.436244 C78.8494111,209.085884 78.7145173,204.632017 78.7814114,203.281657 C78.8494111,201.932403 78.9843048,201.797588 79.1191986,200.920185 C79.2546452,200.042783 79.2546452,197.410023 79.322092,196.667988 C79.3895389,195.925953 79.8622198,194.643553 80.0645604,193.495416 C80.2674539,192.348383 79.9971136,191.336166 79.8622198,189.918951 C79.7273261,188.501184 79.3895389,181.144927 79.2546452,178.715494 C79.1191986,176.285509 78.7814114,170.886832 78.5790708,168.793885 C78.3767301,166.702043 78.038943,159.413193 77.9714961,158.266161 C77.9034964,157.118576 77.566262,155.228956 77.4988151,153.608966 C77.4313683,151.988976 75.6755383,149.829174 75.6755383,149.829174 L75.5400917,145.982527 L78.3092833,147.804739 C78.3092833,147.804739 79.0517517,148.412512 79.2546452,149.154546 C79.4569858,149.897134 79.9971136,150.031949 80.8075817,150.504354 C81.6180498,150.976759 81.4831561,151.044166 81.6854967,151.718794 C81.8878373,152.394526 82.428518,152.664156 82.7657523,153.338784 C83.1035395,154.013964 84.6570289,157.118576 87.3582208,158.738013 C90.0594127,160.358003 92.8280514,160.155781 92.8280514,160.155781 L95.5966902,162.65262 C95.5966902,162.65262 94.0437536,165.150013 92.8954983,166.297045 C91.747243,167.44463 92.6931577,168.861845 92.6931577,168.861845 L94.0437536,169.942022 C94.0437536,169.942022 93.3007324,170.27906 93.9757539,171.089055 C94.6513283,171.89905 94.9211158,171.021647 95.4617964,171.359237 C96.0019243,171.696275 100.458946,175.138477 101.067074,175.881064 C101.674096,176.623099 103.092691,177.096057 103.632819,176.893282 C104.172947,176.690507 104.37584,175.340699 104.510734,174.66552 C104.645628,173.991445 105.725883,171.359237 106.199117,170.886832 C106.671245,170.413875 107.616607,170.54869 107.954947,169.874062 C108.292181,169.199435 106.603798,169.132027 106.603798,169.132027 L107.144479,168.38944 L111.12882,171.089055 L140.976824,197.342615 C140.976824,197.342615 140.368697,201.864443 139.964016,205.374052 C139.558782,208.883662 141.719846,213.608264 141.719846,213.608264 L135.912228,221.774516 C135.912228,221.774516 119.772523,248.433074 114.977714,256.734141 C110.183458,265.03576 105.86133,277.724392 105.86133,277.724392 L105.118309,277.522169 C105.118309,277.522169 104.578181,279.343829 104.510734,279.614012 C104.443287,279.884194 104.240394,281.436224 104.240394,282.313074 C104.240394,283.190476 104.172947,285.687869 103.295032,288.859889 C102.417117,292.031908 102.754904,298.578723 103.092691,300.738525 C103.430478,302.897775 105.118309,308.162742 109.37299,308.23015 C113.627118,308.297557 114.842821,306.205162 116.868991,304.517765 C118.894608,302.830368 122.068481,299.523533 123.756864,299.59094 C125.444695,299.658348 126.525503,303.505547 126.525503,303.505547 L125.174907,303.572955 C125.174907,303.572955 125.309801,305.867572 125.242354,307.8246 C125.174907,309.78218 125.579588,311.334762 125.579588,313.156974 C125.579588,314.979187 125.444695,316.666031 125.444695,316.666031 C123.621418,316.868254 123.486524,317.880471 123.486524,317.880471 L123.486524,319.433606 L124.972567,319.433606 L124.972567,320.175641 L123.891758,320.850269 L123.891758,322.739889 L124.769673,322.875256 L124.769673,323.955433 C123.553971,324.562653 123.216184,326.114683 123.216184,326.114683 C123.216184,326.114683 123.08129,329.691701 123.08129,330.703918 C123.08129,331.716135 124.702226,333.268718 124.702226,333.268718 C124.702226,333.268718 125.783035,335.563335 126.59295,336.64296 C127.403418,337.723137 126.457503,337.115917 132.738355,340.422752 C139.018654,343.730139 149.418187,345.079394 149.418187,345.079394 C149.418187,345.079394 150.228103,345.889942 150.430996,346.024757 C150.633889,346.159572 152.794401,346.834752 153.469975,346.969567 C154.144997,347.104382 154.685677,346.767344 154.753124,346.429202 C154.820571,346.092164 154.550231,345.147354 154.550231,344.337359 C154.550231,343.527364 156.239167,340.82775 156.239167,340.82775 L156.711295,338.803315 C156.711295,338.803315 156.441507,337.858505 156.441507,337.115917 C156.441507,336.37333 155.293252,335.901478 155.293252,335.901478 L155.293252,335.09093 L157.79155,334.551118 C157.79155,334.551118 157.926997,332.391315 157.656657,331.31169 C157.386869,330.231513 152.929294,330.029291 152.929294,330.029291 C152.929294,330.029291 154.955465,329.556886 155.022912,326.587088 C155.090358,323.617291 152.997294,322.672481 152.997294,322.672481 L152.929294,321.592856 L155.293252,321.592856 L155.428699,320.715454 L164.207296,320.445824 L164.139849,321.188411 L166.36836,321.255266 C165.895126,324.225063 167.448615,326.857271 170.757382,326.925231 C174.066701,326.992086 176.295212,322.943216 176.295212,322.943216 C176.295212,322.943216 180.616788,323.078031 181.697596,322.807849 C182.777852,322.537666 182.777852,322.200629 183.58832,321.120451 C184.398788,320.040826 185.816831,315.991404 186.087171,315.586407 C186.356959,315.181409 187.504661,315.383632 187.504661,315.383632 L190.54364,316.396402 C189.936618,326.384866 195.608237,340.625527 212.896196,341.243798 C230.183603,341.86262 235.384199,322.739889 235.384199,322.739889 C240.58369,318.286021 241.326711,314.101784 241.326711,314.101784 C241.326711,314.101784 241.934286,314.843819 243.352328,315.046594 C244.770371,315.248817 246.863988,315.451592 246.863988,315.451592 C243.487775,317.948984 244.29769,321.120451 244.29769,321.120451 C244.568031,326.587088 249.56518,327.599306 250.712883,327.599306 C251.861138,327.599306 254.427436,326.857271 254.427436,326.857271 L254.899564,332.189093 C254.899564,332.189093 253.954203,337.723137 267.325821,339.477942 C280.696887,341.232747 297.444166,341.097932 309.261742,341.232747 C321.079318,341.367562 340.055661,340.22053 342.081279,340.018307 C344.107449,339.815532 346.740641,338.465172 348.159237,338.128135 C349.576727,337.791097 349.576727,337.04851 350.184854,336.440738 C350.792982,335.833518 350.927876,332.189093 350.995323,329.017073 C351.062769,325.845053 350.387195,320.311009 349.84762,316.733439 L349.84762,316.733439 Z" id="Fill-1" fill="#00FFC9" mask="url(#mask-2)"></path>
        </g>
    </g>
</svg>