<?xml version="1.0" encoding="UTF-8"?>
<svg width="197px" height="194px" viewBox="0 0 197 194" version="1.1" xmlns="http://www.w3.org/2000/svg" xmlns:xlink="http://www.w3.org/1999/xlink">
    <!-- Generator: Sketch 53.1 (72631) - https://sketchapp.com -->
    <title>empresa_vector_home_xs</title>
    <desc>Created with Sketch.</desc>
    <defs>
        <polygon id="path-1" points="0 0 191 0 191 188 0 188"></polygon>
    </defs>
    <g id="empresa_vector_home_xs" stroke="none" stroke-width="1" fill="none" fill-rule="evenodd">
        <g id="Group-3" transform="translate(3.000000, 3.000000)">
            <mask id="mask-2" fill="white">
                <use xlink:href="#path-1"></use>
            </mask>
            <g id="Clip-2"></g>
            <path d="M99.2398005,173.576479 C98.9088821,173.905763 98.5418635,174.088664 98.5785654,173.905763 C98.6152672,173.722861 98.5758578,171.419376 98.5758578,171.419376 L97.2554934,171.346036 C97.2554934,171.346036 99.6808244,170.79763 100.415764,170.505167 C100.415764,170.505167 99.5707189,173.247496 99.2398005,173.576479 L99.2398005,173.576479 Z M92.0008102,171.492417 L91.9271056,170.943712 L91.3025724,170.980532 L91.3025724,169.554436 C92.1109157,170.395306 95.2714872,171.309815 95.2714872,171.309815 L92.0008102,171.492417 Z M89.0610515,160.193518 C89.0610515,160.193518 85.459456,155.915532 84.2837932,152.368555 L87.407362,152.661317 C87.407362,152.661317 87.3706602,153.612047 87.9771433,153.721609 C88.5830248,153.83117 89.6488829,153.538707 89.6488829,153.538707 L89.8323922,153.941031 L88.1790035,154.160453 C88.1790035,154.160453 88.105299,155.221044 88.3995155,155.586249 C88.6934312,155.952052 89.2445608,156.64684 89.2445608,156.975823 C89.2445608,157.305106 89.5020754,157.56075 89.8323922,157.414668 C90.1633106,157.268287 90.1266087,156.866262 89.8323922,156.536979 C89.5387773,156.207995 89.4650728,155.622769 89.4650728,155.622769 L90.1633106,155.549728 L90.6043345,156.902782 L91.3025724,157.231766 C91.3025724,157.231766 89.6855847,158.694382 89.0610515,160.193518 L89.0610515,160.193518 Z M88.3261118,168.786608 L87.6645759,168.384284 C87.6645759,168.384284 87.5908713,167.616456 87.4807657,167.287173 C87.3706602,166.958489 86.8195306,166.702246 86.7458261,166.446603 C86.6724223,166.190361 86.4886122,165.422533 86.2681002,165.276151 C86.0475882,165.12977 86.1579947,164.691225 85.9007808,164.362241 C85.643567,164.032958 85.1291393,160.778743 85.1291393,160.778743 C85.5331606,161.40019 88.5096211,164.362241 88.5096211,164.362241 C89.0977533,167.652976 90.8245457,169.042551 90.8245457,169.042551 L88.3261118,168.786608 Z M89.1344552,171.894741 C89.1344552,171.894741 84.5413079,171.821401 84.3571969,171.894741 C84.1736876,171.967782 83.1445314,171.78518 83.1445314,171.492417 C83.1445314,171.199954 82.6301037,171.382856 82.4465944,171.492417 C82.2624835,171.601978 82.0789742,170.907491 82.2994862,170.907491 C82.5199982,170.907491 83.2179351,170.523427 83.2179351,170.523427 L83.1815341,169.042551 C83.1815341,169.042551 82.0055705,168.237903 79.910857,168.237903 C77.8164444,168.237903 76.7138845,168.640227 76.4933725,168.786608 C76.2728605,168.93269 76.1260531,169.225453 76.0893512,169.737338 C76.0526494,170.249224 76.4933725,170.724589 76.4933725,170.724589 L76.0156467,171.492417 L75.0971977,171.492417 L71.9366262,171.492417 C71.9366262,171.492417 71.8632225,170.432126 71.8632225,169.992982 C71.8632225,169.554436 72.2675446,167.835878 72.2675446,167.616456 C72.2675446,167.397034 72.4513547,164.471803 72.4513547,164.471803 L71.9366262,164.471803 C71.8632225,161.839035 70.2465357,158.694382 67.1229669,158.877283 C63.9993981,159.060185 60.5819136,163.082228 60.5085099,163.192089 C60.4351061,163.30165 59.8839766,163.484552 59.7365675,163.045708 C59.5897601,162.606863 58.964926,158.58482 58.964926,158.58482 C58.964926,158.58482 59.4796545,159.53555 59.7365675,159.53555 C59.9940822,159.53555 60.2509952,159.060185 61.0963413,157.049164 C61.9416873,155.037843 62.1989012,153.063641 62.235603,152.697838 C62.2723049,152.332034 60.8394283,152.295514 60.8761301,152.112911 C60.912832,151.92971 60.728721,151.198402 60.728721,151.198402 C60.728721,151.198402 62.6399252,146.335191 64.1832082,143.007935 C65.7267921,139.680679 75.501219,123.920593 75.501219,123.920593 C75.501219,123.920593 72.0837345,130.173379 70.9811746,132.806147 C69.8789155,135.438915 70.5771533,139.205314 70.5771533,139.205314 L67.6006927,139.205314 C67.6006927,139.205314 67.1229669,139.533999 67.1229669,140.265606 C67.1229669,140.996614 67.7475002,141.398938 67.7475002,141.398938 L71.4221985,141.398938 C74.0313397,146.079547 79.3597275,147.541864 79.3597275,147.541864 C80.6457967,153.355805 83.8794711,158.877283 83.8794711,158.877283 C83.8794711,158.877283 84.1369858,160.230337 84.3204951,161.290629 C84.5043052,162.35092 85.1291393,164.21586 85.1291393,164.21586 C85.1291393,164.21586 85.2392449,165.020508 85.1291393,165.312971 C85.0190337,165.605434 85.202543,165.788037 85.1291393,166.226881 C85.0557356,166.665726 85.8270763,167.177611 85.8270763,167.177611 C85.8270763,167.177611 85.5701632,167.726317 85.9741845,168.420805 C86.3785066,169.115592 87.2972564,168.604006 87.2972564,168.604006 L89.8323922,171.163134 L89.1344552,171.894741 Z M78.6614897,144.287649 C78.6614897,144.287649 75.7951347,143.117496 74.5457673,141.325897 L78.1837638,141.106475 C78.1837638,141.106475 78.4776795,143.154017 78.6614897,144.287649 L78.6614897,144.287649 Z M78.5143814,124.761762 C77.4488242,131.087589 78.0736583,138.985593 78.0736583,138.985593 L73.3334027,138.985593 C71.7835012,132.716043 78.5143814,124.761762 78.5143814,124.761762 L78.5143814,124.761762 Z M190.372921,171.601978 C190.078705,169.664297 185.264745,169.079371 185.264745,169.079371 C185.264745,169.079371 185.007832,168.713268 184.823721,168.640227 C184.640211,168.567186 184.640211,167.872399 184.60351,167.579935 C184.566808,167.287173 182.325287,165.495873 182.325287,165.495873 C182.325287,165.495873 182.177878,164.983688 182.067772,164.764565 C181.957667,164.544844 180.083465,162.826285 179.716146,162.497302 C179.348526,162.168318 178.8708,162.168318 178.8708,162.168318 L171.154084,162.058457 C171.154084,162.058457 170.71306,161.034986 170.418843,160.815264 C170.125228,160.595842 167.442383,160.778743 167.442383,160.778743 L167.479385,153.392326 C167.479385,153.392326 168.398135,153.099862 168.875861,152.734358 C169.353587,152.368555 169.97812,150.906238 169.97812,150.906238 C171.337593,150.869419 172.623963,149.370283 172.623963,149.370283 C172.623963,149.370283 173.469008,146.664474 173.726523,145.567662 C173.983436,144.470551 172.734068,141.61836 172.734068,141.61836 C172.40315,139.7169 172.182939,127.284669 172.182939,127.284669 C171.117382,124.395958 166.230018,118.435935 165.34797,117.594766 C164.465922,116.753897 163.400365,116.534175 162.334507,116.13245 C161.268949,115.730126 158.549703,115.547224 158.549703,115.547224 C159.284642,114.998519 158.733513,113.792145 158.733513,113.792145 C152.670185,106.625449 144.402039,100.591786 144.402039,100.591786 C144.402039,100.591786 144.291933,98.3613421 143.850909,97.5204729 C143.409885,96.6793044 141.425578,96.6427839 141.425578,96.6427839 L141.425578,95.1801684 L140.72734,95.1436479 C140.72734,95.1436479 140.947852,94.4853811 140.72734,94.0100161 C140.506828,93.5346511 136.060489,91.5604494 134.553907,91.0850844 C133.047326,90.6097194 131.687552,89.9149321 131.393637,89.8050713 C131.09942,89.6952105 130.180971,89.0372431 129.703245,88.70796 C129.22552,88.3792756 128.857899,88.4888371 128.30677,88.3424558 C127.75564,88.1960745 125.183201,87.6476685 124.154346,87.4285456 C123.12549,87.208824 118.458638,86.8433198 116.180416,86.8433198 C113.901892,86.8433198 110.558112,87.1723035 110.043384,87.2821643 C109.528956,87.3917258 108.389995,87.6111481 108.022375,87.9039106 C107.655055,88.1960745 107.581652,88.8908618 107.581652,88.8908618 L105.633746,88.8175215 L105.633746,89.3297063 C105.633746,89.3297063 104.862104,89.3662268 104.641592,89.3662268 C104.421381,89.3662268 102.142857,89.8050713 102.142857,89.8050713 C102.142857,89.8050713 99.2398005,90.3169568 94.0218191,91.5236296 C88.8038376,92.7303023 86.0475882,96.0943779 86.0475882,96.0943779 C85.1291393,95.7650948 83.4387479,96.0213369 83.4387479,96.0213369 C82.3731907,96.1674189 81.0868207,97.4474319 80.8296068,97.7395958 C80.572393,98.0323584 80.3151791,98.6903258 80.0943663,98.4343831 C79.8741552,98.1787397 79.6906459,98.1419199 79.6906459,98.5442439 L79.6906459,99.6778757 C79.6906459,99.6778757 79.1762182,99.6413552 78.8820017,99.9700396 C78.5880859,100.299323 79.2496219,100.555265 79.1025136,100.701647 C78.9554054,100.847729 77.9632519,103.297894 77.9632519,103.297894 L68.1151204,94.4853811 C68.1151204,94.4853811 68.4460388,94.3758196 68.7396537,94.083057 C69.0338702,93.7908932 68.7763555,93.5711716 68.7396537,93.1326264 C68.7029518,92.6937819 65.9103014,89.1102841 65.9103014,89.1102841 L65.1386599,88.232595 C65.1386599,88.232595 64.7710396,88.1960745 64.6242322,88.3792756 C64.4771239,88.5618781 64.8447442,89.0372431 64.8447442,89.0372431 C64.8447442,89.0372431 67.8579066,92.9862451 67.8579066,93.3885691 L67.8579066,94.0465366 L65.3958737,91.9624741 C65.3958737,91.9624741 65.1753617,91.5969699 64.9915516,91.3407278 C64.8077415,91.0850844 64.4404221,91.0482646 64.4404221,91.0482646 L63.5219731,90.3534773 C63.5219731,90.3534773 63.3378621,90.0975346 63.3011603,89.8781123 C63.2644584,89.6589894 63.0075454,89.6221695 62.8234344,89.4395671 C62.6399252,89.2566653 62.0150911,89.2566653 62.0150911,89.2566653 L60.3246997,87.6111481 C60.3246997,87.6111481 61.3905578,86.4775163 61.5373652,86.0751922 C61.6841727,85.6734669 61.2801514,85.1247616 61.1330431,84.7957778 C60.9862357,84.4664948 59.8839766,81.1024192 59.6631638,80.2612507 C59.4426518,79.4203815 58.964926,78.3235695 58.4137964,77.6290816 C57.8626669,76.933995 54.923209,74.3742681 54.7390981,74.1548459 C54.5555888,73.935723 51.2482098,71.0467131 51.2482098,71.0467131 L50.549972,70.9006311 L49.5208158,69.9864216 L48.8228788,70.7545492 L48.2717493,70.2791842 L46.9856801,71.5223774 L43.6783011,69.1090319 C43.6783011,69.1090319 43.6415993,67.0614899 43.6045966,66.8052478 C43.5678947,66.5496044 43.494491,66.1472804 43.4577891,65.7814768 C43.4210873,65.4159726 43.5678947,65.0866896 43.6415993,64.5017631 C43.7153038,63.9168366 43.7887075,63.1855289 43.7887075,63.1855289 L44.2664334,63.1855289 L44.3031352,62.8562458 L44.9643703,62.8562458 C45.2215842,60.2602979 43.5311929,59.272748 43.5311929,59.272748 L43.5311929,56.4573778 C43.5311929,56.4573778 43.6045966,54.2269341 43.5678947,53.970692 C43.5311929,53.7150486 43.6045966,52.1425722 43.6045966,51.92315 C43.6045966,51.7037277 43.7517048,51.3014037 43.7887075,51.0457603 C43.8254094,50.7895182 44.1930296,50.0216899 44.1190243,49.5831448 C44.0456205,49.1440009 43.7153038,49.2173412 43.7153038,49.2173412 C43.7153038,49.2173412 44.0089187,48.851837 44.0456205,48.4860335 C44.0823224,48.1202299 43.8988131,48.0837094 43.6783011,47.8642872 C43.4577891,47.6448649 43.494491,47.5353034 43.8254094,47.425742 C44.1557261,47.3158812 44.0089187,47.1329794 43.8988131,46.8405162 C43.7887075,46.5480529 43.6045966,45.1584784 43.494491,44.8660152 C43.3843854,44.5735519 43.3843854,44.2445682 43.273979,43.9886255 C43.1638734,43.7323834 42.7962532,43.4402195 42.576042,43.47674 C42.3552292,43.5132605 42.2818255,44.0981869 42.2818255,44.0981869 C42.2818255,44.0981869 41.8040997,42.8181739 41.730696,42.52601 C41.6572922,42.2332474 41.510184,40.9900541 41.3997776,40.5512096 C41.289672,40.1123651 40.7752443,38.0283026 40.7018406,37.5894581 C40.628136,37.1509129 40.3342203,35.6514776 39.9669009,34.5546656 C39.5992807,33.4575543 38.202805,32.0679798 37.6149736,31.4100123 C37.0268414,30.7517456 36.3289044,29.837536 36.3289044,29.837536 C36.3289044,29.837536 37.0268414,28.959847 37.4681662,28.6311626 C37.9088893,28.3018795 37.7987838,28.2288386 37.9088893,28.0094163 C38.0192957,27.7896947 38.202805,27.5705718 38.3866152,27.2412887 C38.5704253,26.912305 38.7909373,26.9856453 39.1215548,26.8027436 C39.4524732,26.6198418 40.0403046,25.7421527 40.0403046,25.7421527 C40.0403046,25.7421527 41.2529701,26.363899 42.6494458,26.4737598 C44.0456205,26.5833213 44.8542648,26.2175177 45.2215842,25.9983948 C45.5892044,25.7789726 45.5525026,24.7552016 45.5892044,24.4259185 C45.6259063,24.0966354 45.8831201,24.1331559 46.1036321,24.0235945 C46.3241441,23.914033 46.6547617,23.6580903 46.8752737,23.511709 C47.0957856,23.365627 46.9489782,22.6708398 46.9489782,22.6708398 C46.9489782,22.6708398 47.1691894,22.5244585 47.3526986,22.4511182 C47.5368096,22.3780772 47.5368096,22.1589543 47.5735115,21.9757531 C47.6102133,21.7931507 47.683617,21.1717038 47.7203189,20.9522815 C47.7570208,20.7328592 48.0879392,20.7328592 48.0879392,20.7328592 C48.0879392,20.7328592 48.4922613,20.7693797 48.7124724,20.7693797 C48.9329844,20.7693797 49.1537972,20.8059002 49.631523,20.4769165 C50.1092489,20.1476334 50.0355443,19.7090883 50.0355443,19.416625 C50.0355443,19.1238624 49.5581193,17.7711077 49.4474121,17.4418247 C49.3373065,17.112841 49.2639028,16.4545742 49.1537972,16.1621109 C49.0433908,15.8696477 49.006689,15.3212417 49.006689,15.1748604 C49.006689,15.0284791 49.0433908,14.8823972 49.3740084,14.7360159 C49.7049268,14.589934 49.9985416,14.1876099 49.9985416,14.1876099 C49.9985416,14.1876099 51.6892338,14.9919587 52.2403633,15.1018195 C52.7917937,15.2113809 53.3429233,15.2482008 54.3347759,15.065299 C55.3269295,14.8823972 56.319083,14.0050075 56.6867032,13.6026835 C57.0540226,13.2003594 56.6867032,12.5786131 56.6867032,12.5786131 C56.6867032,12.5786131 51.7626375,9.54382065 51.43202,9.36091888 C51.1011016,9.17831645 50.549972,8.62961112 50.2193545,8.08120514 C49.8884361,7.53249982 49.0800927,5.33857655 48.7494751,4.60726879 C48.4185567,3.87626039 47.426704,1.90146003 47.1691894,1.75537809 C46.9122763,1.6089968 46.1036321,1.31653357 45.6626082,1.20697211 C45.2215842,1.09711131 44.3398371,0.804648075 43.7517048,0.731607104 C43.1638734,0.658566133 40.2975185,0.512184842 40.2975185,0.512184842 C40.2608166,0.110160153 39.8197926,0 39.4524732,0 C39.084853,0 39.0481511,0.585225813 39.0481511,0.585225813 C39.0481511,0.585225813 38.7172327,0.768127589 38.1661032,0.84116856 C37.6149736,0.91450888 36.2187988,1.28001308 35.5202602,1.46291486 C34.8223232,1.64551729 33.793167,2.41364488 33.4628503,2.70580876 C33.1319319,2.99857134 32.0660738,3.94930136 31.7721581,4.24176459 C31.4782424,4.53422782 30.0083631,5.85076139 30.0083631,5.85076139 C30.0083631,5.85076139 29.5306372,6.10670414 29.1633178,6.36234754 C28.7956976,6.61858963 28.8691013,6.72845044 28.7222938,7.24003658 C28.5751856,7.75222143 28.7222938,8.11772563 28.8323994,8.87387929 C28.942505,9.63003295 29.0896133,9.0681563 29.4202308,9.58034114 C29.7511492,10.0922266 29.6777455,8.95889419 29.8245529,8.88555387 C29.9716612,8.8125129 30.1551705,9.10497613 30.1551705,9.10497613 L29.9716612,10.7873133 L30.5227908,10.7873133 L30.1551705,11.1525181 C30.1551705,11.1525181 29.3838298,12.2496294 29.1633178,12.4325312 C28.942505,12.615433 28.7222938,13.6026835 28.5751856,14.114569 C28.4280773,14.6264545 28.3179717,16.3084922 28.3179717,16.7108163 C28.3179717,17.112841 28.0977606,17.1493614 27.9503515,17.4786445 C27.803544,17.8076282 27.8402459,18.0270505 27.9136496,18.7948787 C27.9870533,19.562707 28.6488901,19.7090883 28.7956976,19.7821292 C28.942505,19.8551702 28.685592,20.513437 28.3913755,20.8424207 C28.0977606,21.1717038 27.6564358,21.7566302 27.6564358,21.7566302 C27.6564358,21.7566302 27.3625201,21.7566302 27.17871,21.939532 C26.9952007,22.1224338 26.9214961,22.1954748 26.7746887,22.4511182 C26.6275804,22.7073603 26.3336647,22.4511182 26.1498546,22.4511182 C25.9663453,22.4511182 25.6354269,22.963303 25.3045085,23.1827253 C24.9741918,23.4021475 24.8270835,23.6580903 24.7166771,23.9505535 C24.6065715,24.2433161 23.5407135,24.9743245 23.0996895,25.340128 C22.6589663,25.7056322 20.7847649,26.6928827 20.4538465,27.1317273 C20.1235298,27.5705718 18.4331384,28.7772446 17.6978979,29.7644951 C16.9632591,30.7517456 15.1257595,34.1158211 15.1257595,34.1158211 C15.1257595,34.1158211 13.8763921,37.1509129 13.5824764,38.3938068 C13.2885607,39.6370001 12.9576423,42.2697679 12.8842386,43.1474569 C12.8108349,44.025146 12.8472359,45.4144212 12.8108349,46.1825487 C12.7738322,46.950377 12.5536211,50.5338748 12.5536211,51.2648832 C12.5536211,51.9964903 12.4802174,56.0915743 12.4802174,56.0915743 C12.4802174,56.0915743 12.5536211,56.8231814 12.6637266,57.225206 C12.7738322,57.6275301 12.7738322,58.1394156 12.7738322,58.5052191 C12.7738322,58.870424 12.5536211,59.3826088 12.4432147,59.7849329 C12.3328082,60.1869576 12.2594045,61.0646466 12.1860008,61.9055158 C12.1125971,62.7466844 12.2594045,64.0263981 12.149299,65.3061118 C12.0391934,66.5858256 12.5169192,69.0356916 12.5536211,69.3649747 C12.5903229,69.6939584 12.8842386,70.2791842 13.1414525,70.8275902 C13.3986663,71.3759961 13.5824764,71.5954184 13.8396903,71.888181 C14.0969041,72.1803449 14.8318438,72.5461484 15.1627622,73.0215134 C15.4930789,73.4968784 16.6323407,74.2647067 16.6323407,74.2647067 C16.6323407,74.2647067 16.3017231,74.3742681 16.0445093,74.5571699 C15.7872955,74.7400717 15.9344037,75.2154367 15.8239973,75.5447198 C15.7138917,75.8737035 15.3829733,76.1661667 15.3095696,76.5316709 C15.2361659,76.8974745 15.3462715,77.5189214 15.3462715,77.7021225 C15.3462715,77.884725 15.0523558,77.884725 14.7584401,78.2505285 C14.4642235,78.6157334 14.133606,78.9450164 14.0231996,79.2742995 C13.913094,79.6032832 13.4353682,80.0786482 13.2148562,80.5540132 C12.9943442,81.0293783 13.0313469,81.1389397 12.9209405,81.9070673 C12.8108349,82.6748955 12.6637266,84.7957778 12.6637266,84.7957778 L11.8183806,85.0514212 C11.8183806,85.0514212 11.8183806,86.0021513 11.8550824,86.5140367 C11.8917843,87.0262216 12.0758952,87.3552053 12.0758952,87.8670908 C12.0758952,88.3792756 12.149299,88.9276816 12.1860008,89.6952105 C12.2227027,90.4633381 12.4802174,92.2184168 12.4802174,92.9132041 C12.4802174,93.607692 13.1781543,96.423661 13.2148562,96.9355464 C13.251558,97.4474319 13.5087719,100.884548 13.5087719,101.213532 C13.5087719,101.542516 13.6191783,102.493246 13.6558802,102.89557 C13.6928829,103.297894 13.6558802,103.334414 13.5824764,103.663398 C13.5087719,103.992681 13.2148562,104.468046 13.0680488,105.052973 C12.9209405,105.637899 12.7004285,106.625449 12.5903229,107.173855 C12.4802174,107.722261 11.6348713,111.3788 11.5247657,112.146628 C11.4143593,112.914756 11.3039529,115.912728 11.2305492,116.680856 C11.1571454,117.448684 11.1938473,120.483776 11.0470399,121.544067 C10.8999316,122.604359 11.0100372,124.213356 10.8701489,124.798282 C10.7302607,125.383209 10.6794196,125.163786 10.3488021,125.56611 C10.0178837,125.968434 8.87892271,127.028726 8.7685163,127.284669 C8.65810989,127.540611 8.32779317,128.528161 8.1806849,128.930186 C8.03357663,129.332211 7.73966093,130.136859 7.66625721,130.831646 C7.59255266,131.526134 7.37204067,133.281512 7.07812497,133.976299 C6.78420927,134.670787 6.37988716,136.352825 6.15967601,137.120953 C5.93886319,137.888481 5.02041423,142.898374 4.94701051,143.263878 C4.87330596,143.629382 4.17506814,147.944188 4.06496257,148.931438 C3.95485699,149.918689 3.25631835,152.770879 3.10951091,154.087412 C2.96270348,155.403646 2.74189066,158.109455 2.63178508,158.804242 C2.52137867,159.49903 2.11705656,163.448032 2.04365284,163.923397 C1.97024913,164.398762 2.08065554,166.226881 2.11705656,166.775287 C2.15405925,167.323993 2.00695099,168.091821 1.89684541,168.640227 C1.78673984,169.188932 1.56592702,170.139662 1.52922516,170.432126 C1.4925233,170.724589 1.67633343,170.943712 1.67633343,171.236474 C1.67633343,171.528937 1.56592702,171.601978 1.45582144,171.894741 C1.34571587,172.187204 1.1616049,172.552708 0.978095613,172.991553 C0.794586321,173.430398 0.83128818,173.576479 0.684179911,173.978804 C0.537071643,174.381128 0.500369785,174.344308 0.2798578,174.710111 C0.0593458148,175.075915 -0.0507597603,176.063165 0.0226439564,176.721432 C0.0960476731,177.3794 0.794586321,178.074187 2.33786938,179.061437 C3.88115244,180.048688 4.72649852,180.414491 5.24062538,180.597094 C5.7553539,180.779996 6.01226691,180.926377 6.30648344,181.18232 C6.60069998,181.438262 7.40874253,182.352173 8.10698035,182.608415 C8.80551899,182.864357 9.50345597,183.486104 14.5009254,183.595665 C19.4986957,183.705227 21.7402165,182.864357 21.7402165,182.864357 C21.7402165,182.864357 22.5118581,182.644935 22.6956682,182.206091 C22.8794783,181.767246 22.9161802,181.328402 22.6956682,181.035938 C22.4751562,180.743176 22.4017525,180.816815 22.2916469,180.377971 C22.1812405,179.939126 21.2991926,179.31738 21.0789814,179.281159 C20.8581686,179.244339 19.4986957,178.732454 19.3148855,178.695933 C19.1313763,178.659113 17.9554126,177.891285 17.6244942,177.452441 C17.2938767,177.013596 16.9632591,176.611571 16.7057444,176.246067 C16.4485306,175.880264 14.6850364,173.430398 14.4642235,173.174155 C14.2440124,172.918512 14.3174161,172.69879 14.6483345,172.69879 C14.9786512,172.69879 15.5667835,170.688068 15.6401872,170.358785 C15.7138917,170.029802 16.117913,169.810379 16.4121296,169.481396 C16.7057444,169.152412 16.999961,168.457325 17.0733647,167.872399 C17.1467684,167.287173 17.1100665,166.629205 16.999961,165.824557 C16.8898554,165.020508 16.4121296,162.204838 16.4121296,162.204838 C16.4121296,162.204838 18.9105634,156.536979 20.1602316,153.392326 C21.409599,150.247672 24.1655475,142.423009 24.1655475,142.423009 C24.1655475,142.423009 25.0475955,147.578384 25.0842973,148.346512 C25.1209992,149.11434 25.6354269,151.820149 25.6721287,153.063641 C25.7088306,154.306535 26.0764509,154.635818 26.260261,155.184224 C26.4440711,155.73263 26.260261,156.573799 26.2232583,157.085385 C26.1865564,157.59757 26.3703666,158.072935 26.4440711,158.694382 C26.5174748,159.315829 26.6642823,164.142819 26.7379868,165.349492 C26.8113905,166.556165 27.3258182,169.225453 27.4359238,170.395306 C27.5463302,171.565458 28.3913755,176.026645 28.4280773,176.42867 C28.4647792,176.830994 28.6121883,176.757953 28.7222938,177.196797 C28.8323994,177.635342 28.244568,177.708683 28.244568,177.708683 C28.244568,177.708683 28.1711643,178.805495 28.2078662,179.500282 C28.244568,180.19477 29.4202308,180.670135 30.7063,180.816815 C31.9926701,180.962897 36.5124137,180.633914 39.6359825,180.451012 C42.7595513,180.26811 47.426704,180.30493 52.0932551,180.19477 C56.7604078,180.085208 58.1935853,178.439691 58.3770946,177.745203 C58.5606039,177.050416 58.1568834,177.050416 58.1568834,177.050416 C57.9727724,175.075915 55.2168239,175.112435 54.5922906,175.112435 C53.9674565,175.112435 51.1378034,174.783152 50.4028637,174.417947 C49.6682249,174.051844 48.9696863,173.64982 48.8962825,173.466918 C48.8228788,173.284016 48.4552586,173.028073 48.124641,172.955033 C47.7940235,172.881992 47.5368096,172.625749 47.0957856,172.297065 C46.6547617,171.967782 46.6547617,172.406627 46.2504396,172.040823 C45.8464183,171.675019 45.7360119,171.74836 45.478798,171.74836 C45.2215842,171.74836 45.0377741,171.309815 44.5967501,171.199954 C44.1557261,171.090093 44.1930296,171.017052 44.2294307,170.688068 C44.2664334,170.358785 43.8621113,170.176183 43.6415993,169.810379 C43.4210873,169.444576 41.8408015,167.543415 41.8408015,167.543415 C41.8408015,167.543415 41.9142052,165.751516 41.9142052,164.544844 C41.9142052,163.33847 41.0694608,161.40019 40.591735,160.083956 C40.1137083,158.767423 39.2683623,156.427417 39.2683623,156.427417 C39.2683623,156.427417 41.3997776,146.116068 41.5471867,145.055477 C41.6939941,143.995186 42.4656356,138.254285 42.7962532,135.255714 C43.1271716,132.257741 43.4210873,130.319461 43.3843854,128.893366 C43.3476836,127.46757 42.7228495,124.61538 42.6494458,123.372187 C42.576042,122.128994 42.4289338,116.717376 42.4656356,115.985769 C42.5023375,115.254761 42.6861476,114.742875 42.7962532,114.011568 C42.9066596,113.27996 42.8332559,110.866914 42.8696569,110.135307 C42.9066596,109.404299 42.9800633,109.331258 43.053467,108.855893 C43.1271716,108.380528 43.1271716,106.954133 43.1638734,106.552109 C43.2005753,106.150084 43.4577891,105.455297 43.5678947,104.833251 C43.6783011,104.211804 43.5311929,103.663398 43.4577891,102.89557 C43.3843854,102.127442 43.2005753,98.1419199 43.1271716,96.8256856 C43.053467,95.5091521 42.8696569,92.5842204 42.7595513,91.4502893 C42.6494458,90.3169568 42.4656356,86.3679548 42.4289338,85.7465079 C42.3919311,85.1247616 42.2084218,84.1009906 42.1717199,83.2233015 C42.1350181,82.3456125 41.1795664,81.1754602 41.1795664,81.1754602 L41.1058619,79.0913977 L42.6127439,80.0786482 C42.6127439,80.0786482 43.0167652,80.4079313 43.1271716,80.809956 C43.2372772,81.21228 43.5311929,81.285321 43.9722168,81.5412637 C44.4132408,81.7972065 44.3398371,81.833727 44.4499427,82.1992312 C44.5600482,82.5653341 44.8542648,82.711416 45.0377741,83.0769202 C45.2215842,83.4427238 46.0669303,85.1247616 47.5368096,86.0021513 C49.006689,86.8798403 50.5132702,86.7702788 50.5132702,86.7702788 L52.0198514,88.1230335 C52.0198514,88.1230335 51.1748061,89.4760876 50.549972,90.0975346 C49.9251379,90.7192809 50.4398664,91.4871091 50.4398664,91.4871091 L51.1748061,92.0723349 C51.1748061,92.0723349 50.770484,92.2549373 51.1378034,92.6937819 C51.5054237,93.1326264 51.6522311,92.6572614 51.9464476,92.8401631 C52.2403633,93.0227656 54.6656943,94.8877051 54.9966127,95.2900292 C55.3269295,95.6920538 56.0988718,95.9482959 56.3927875,95.8384351 C56.6867032,95.7285743 56.7971096,94.9972666 56.8705134,94.631463 C56.9439171,94.2662582 57.5317485,92.8401631 57.7892632,92.5842204 C58.0461762,92.3279783 58.5606039,92.4010193 58.7447148,92.0355151 C58.9282241,91.6700109 58.0094743,91.6334904 58.0094743,91.6334904 L58.3036908,91.2311663 L60.471808,92.6937819 L76.7138845,106.917613 C76.7138845,106.917613 76.3829661,109.367479 76.1627549,111.268939 C75.942243,113.170399 77.1182066,115.730126 77.1182066,115.730126 L73.9579359,120.154493 C73.9579359,120.154493 65.1753617,134.597746 62.5662206,139.095154 C59.9573803,143.592862 57.605453,150.467394 57.605453,150.467394 L57.2011309,150.357832 C57.2011309,150.357832 56.9072152,151.344784 56.8705134,151.491165 C56.8338115,151.637546 56.7234051,152.478415 56.7234051,152.953481 C56.7234051,153.428846 56.6867032,154.7819 56.2089774,156.500458 C55.7312516,158.219017 55.9150617,161.765994 56.0988718,162.936146 C56.282682,164.105999 57.2011309,166.958489 59.5163563,166.995009 C61.8312809,167.03153 62.4928169,165.897898 63.5953768,164.983688 C64.6976359,164.069479 66.4247291,162.277879 67.3434789,162.3144 C68.2619279,162.35092 68.8500601,164.435282 68.8500601,164.435282 L68.1151204,164.471803 C68.1151204,164.471803 68.1885241,165.714996 68.1518223,166.775287 C68.1151204,167.835878 68.3353316,168.677047 68.3353316,169.664297 C68.3353316,170.651548 68.2619279,171.565458 68.2619279,171.565458 C67.2697743,171.675019 67.1963706,172.223425 67.1963706,172.223425 L67.1963706,173.064893 L68.0050148,173.064893 L68.0050148,173.466918 L67.4168826,173.832422 L67.4168826,174.856193 L67.8946084,174.929534 L67.8946084,175.514759 C67.2330725,175.843743 67.0492624,176.684612 67.0492624,176.684612 C67.0492624,176.684612 66.9758586,178.622593 66.9758586,179.170999 C66.9758586,179.719405 67.8579066,180.560573 67.8579066,180.560573 C67.8579066,180.560573 68.4460388,181.803767 68.8867619,182.388693 C69.3277859,182.973919 68.8130574,182.644935 72.2308427,184.436534 C75.6483273,186.228433 81.3073327,186.959441 81.3073327,186.959441 C81.3073327,186.959441 81.7480558,187.398585 81.8584622,187.471626 C81.9688686,187.544667 83.1445314,187.910471 83.5121517,187.983512 C83.8794711,188.056553 84.1736876,187.87395 84.2103895,187.690749 C84.2470913,187.508147 84.0999831,186.996261 84.0999831,186.557417 C84.0999831,186.118572 85.0190337,184.655957 85.0190337,184.655957 L85.2759467,183.559145 C85.2759467,183.559145 85.1291393,183.047259 85.1291393,182.644935 C85.1291393,182.242611 84.5043052,181.986968 84.5043052,181.986968 L84.5043052,181.547824 L85.8637781,181.255361 C85.8637781,181.255361 85.9374827,180.085208 85.7903744,179.500282 C85.643567,178.915056 83.2179351,178.805495 83.2179351,178.805495 C83.2179351,178.805495 84.3204951,178.549552 84.3571969,176.940555 C84.3938988,175.331558 83.2549378,174.819673 83.2549378,174.819673 L83.2179351,174.234746 L84.5043052,174.234746 L84.5780097,173.759381 L89.3549672,173.613299 L89.3182653,174.015623 L90.5309308,174.051844 C90.2734161,175.660841 91.1187622,177.086936 92.9192591,177.123756 C94.7200569,177.159977 95.9327224,174.966353 95.9327224,174.966353 C95.9327224,174.966353 98.2843488,175.039394 98.8724811,174.893013 C99.4603125,174.746632 99.4603125,174.564029 99.9013364,173.978804 C100.34236,173.393877 101.114002,171.199954 101.26111,170.980532 C101.407918,170.761109 102.032451,170.870671 102.032451,170.870671 L103.68614,171.419376 C103.355824,176.830994 106.442089,184.546395 115.849497,184.881366 C125.256605,185.216636 128.086559,174.856193 128.086559,174.856193 C130.915911,172.443147 131.320233,170.176183 131.320233,170.176183 C131.320233,170.176183 131.650851,170.578207 132.422492,170.688068 C133.194134,170.79763 134.333395,170.907491 134.333395,170.907491 C132.496197,172.260545 132.93692,173.978804 132.93692,173.978804 C133.084028,176.940555 135.803275,177.488961 136.427808,177.488961 C137.052642,177.488961 138.449118,177.086936 138.449118,177.086936 L138.706031,179.975647 C138.706031,179.975647 138.191603,182.973919 145.467897,183.924649 C152.74389,184.875379 161.857082,184.802338 168.287729,184.875379 C174.718376,184.94842 185.044534,184.326973 186.146793,184.217411 C187.249353,184.107551 188.682229,183.375944 189.454172,183.193341 C190.225512,183.010739 190.225512,182.608415 190.556431,182.279132 C190.887349,181.950148 190.960753,179.975647 190.997455,178.257089 C191.034157,176.53853 190.666536,173.540258 190.372921,171.601978 L190.372921,171.601978 Z" id="Fill-1" fill="#00FFC9" mask="url(#mask-2)"></path>
        </g>
    </g>
</svg>