<?xml version="1.0" encoding="UTF-8"?>
<svg viewBox="0 0 129 88" version="1.1" xmlns="http://www.w3.org/2000/svg" xmlns:xlink="http://www.w3.org/1999/xlink"  preserveAspectRatio="none">
    <g id="ico_serveis_mobile_03" stroke="none" stroke-width="1" fill="none" fill-rule="evenodd">
        <g id="Group-17">
            <polygon id="Stroke-1" stroke="#38CFFF" points="76.5004455 48 53.4995545 48 42 68 53.4995545 88 76.5004455 88 88 68"></polygon>
            <path d="M75,67.5 C75,72.7463728 70.7469544,77 65.5,77 C60.2536272,77 56,72.7463728 56,67.5 C56,62.2536272 60.2536272,58 65.5,58 C70.7469544,58 75,62.2536272 75,67.5 Z" id="Stroke-3" stroke="#38CFFF"></path>
            <polygon id="Stroke-5" stroke="#00FFC9" points="76.5004455 0 53.4995545 0 42 20.0002982 53.4995545 40 76.5004455 40 88 20.0002982"></polygon>
            <path d="M75,20.5 C75,25.7463728 70.7469544,30 65.5,30 C60.2536272,30 56,25.7463728 56,20.5 C56,15.2536272 60.2536272,11 65.5,11 C70.7469544,11 75,15.2536272 75,20.5 Z" id="Stroke-7" stroke="#00FFC9"></path>
            <polygon id="Stroke-9" stroke="#0094FF" points="117.5 25 94.5 25 83 45 94.5 65 117.5 65 129 45"></polygon>
            <path d="M116,44.5 C116,49.7463728 111.747085,54 106.499709,54 C101.253497,54 97,49.7463728 97,44.5 C97,39.2536272 101.253497,35 106.499709,35 C111.747085,35 116,39.2536272 116,44.5 Z" id="Stroke-11" stroke="#0094FF"></path>
            <polygon id="Stroke-13" stroke="#FFFFFF" stroke-width="2" points="34.4998515 24 11.4995545 24 0 43.9997018 11.4995545 64 34.4998515 64 46 43.9997018"></polygon>
            <path d="M32,44.5 C32,49.7463728 27.7469544,54 22.5,54 C17.2536272,54 13,49.7463728 13,44.5 C13,39.2536272 17.2536272,35 22.5,35 C27.7469544,35 32,39.2536272 32,44.5 Z" id="Stroke-15" stroke="#FFFFFF" stroke-width="2"></path>
        </g>
    </g>
</svg>