<?xml version="1.0" encoding="UTF-8"?>
<svg width="593px" height="156px" viewBox="0 0 593 156" version="1.1" xmlns="http://www.w3.org/2000/svg" xmlns:xlink="http://www.w3.org/1999/xlink">
    <!-- Generator: Sketch 53.1 (72631) - https://sketchapp.com -->
    <title>hola_mask</title>
    <desc>Created with Sketch.</desc>
    <g id="hola_mask" stroke="none" stroke-width="1" fill="none" fill-rule="evenodd">
        <g id="Group-21">
            <path d="M96.338659,2.75723367 C96.8453227,2.25496083 97.4620195,2 98.1938672,2 L128.268712,2 C128.992883,2 129.573755,2.25496083 130.011328,2.75723367 C130.446343,3.26715534 130.589641,3.88161095 130.446343,4.60569972 L112.357423,151.3943 C112.211565,152.120939 111.884025,152.735394 111.377361,153.240217 C110.868138,153.750138 110.251441,154 109.524711,154 L79.4473078,154 C78.7205779,154 78.1422648,153.750138 77.7072504,153.240217 C77.2696772,152.735394 77.1238194,152.120939 77.2696772,151.3943 L84.2427012,93.6354731 C84.5344167,92.9113843 84.2427012,92.54934 83.3726725,92.54934 L43.927107,92.54934 C43.343676,92.54934 42.9061027,92.9113843 42.6169461,93.6354731 L35.643922,151.3943 C35.4980643,152.120939 35.1705241,152.735394 34.6613014,153.240217 C34.1520787,153.750138 33.5353819,154 32.811211,154 L2.73380726,154 C2.00707741,154 1.42620532,153.750138 0.99119097,153.240217 C0.553617716,152.735394 0.410318872,152.120939 0.553617716,151.3943 L18.6450967,4.60569972 C18.6450967,3.88161095 18.9342533,3.26715534 19.5176843,2.75723367 C20.0959975,2.25496083 20.748519,2 21.4778078,2 L51.3351454,2 C52.9319039,2 53.7328421,2.86686683 53.7328421,4.60569972 L46.7572591,60.6282436 C46.7572591,61.3523324 47.0464157,61.7143768 47.6298467,61.7143768 L87.2954784,61.7143768 C87.584635,61.7143768 87.8405258,61.6047436 88.0580329,61.3880269 C88.2755401,61.1713102 88.3855732,60.918899 88.3855732,60.6282436 L95.3585972,4.60569972 C95.5018961,3.88161095 95.8294363,3.26715534 96.338659,2.75723367" id="Fill-1" fill="#00FFC9"></path>
            <path d="M96.338659,2.75723367 C96.8453227,2.25496083 97.4620195,2 98.1938672,2 L128.268712,2 C128.992883,2 129.573755,2.25496083 130.011328,2.75723367 C130.446343,3.26715534 130.589641,3.88161095 130.446343,4.60569972 L112.357423,151.3943 C112.211565,152.120939 111.884025,152.735394 111.377361,153.240217 C110.868138,153.750138 110.251441,154 109.524711,154 L79.4473078,154 C78.7205779,154 78.1422648,153.750138 77.7072504,153.240217 C77.2696772,152.735394 77.1238194,152.120939 77.2696772,151.3943 L84.2427012,93.6354731 C84.5344167,92.9113843 84.2427012,92.54934 83.3726725,92.54934 L43.927107,92.54934 C43.343676,92.54934 42.9061027,92.9113843 42.6169461,93.6354731 L35.643922,151.3943 C35.4980643,152.120939 35.1705241,152.735394 34.6613014,153.240217 C34.1520787,153.750138 33.5353819,154 32.811211,154 L2.73380726,154 C2.00707741,154 1.42620532,153.750138 0.99119097,153.240217 C0.553617716,152.735394 0.410318872,152.120939 0.553617716,151.3943 L18.6450967,4.60569972 C18.6450967,3.88161095 18.9342533,3.26715534 19.5176843,2.75723367 C20.0959975,2.25496083 20.748519,2 21.4778078,2 L51.3351454,2 C52.9319039,2 53.7328421,2.86686683 53.7328421,4.60569972 L46.7572591,60.6282436 C46.7572591,61.3523324 47.0464157,61.7143768 47.6298467,61.7143768 L87.2954784,61.7143768 C87.584635,61.7143768 87.8405258,61.6047436 88.0580329,61.3880269 C88.2755401,61.1713102 88.3855732,60.918899 88.3855732,60.6282436 L95.3585972,4.60569972 C95.5018961,3.88161095 95.8294363,3.26715534 96.338659,2.75723367 Z" id="Stroke-3" stroke="#0444A0"></path>
            <path d="M206.29704,118.357214 C211.000527,113.802172 213.79099,107.833233 214.658228,100.458039 L220.308023,55.5445089 C220.450862,54.67579 220.524832,53.3739855 220.524832,51.6390953 C220.524832,45.2752837 218.749547,40.2132767 215.201526,36.4505267 C211.653506,32.6903242 206.840339,30.8102229 200.756925,30.8102229 C194.094502,30.8102229 188.406446,33.0851964 183.70296,37.642786 C178.994372,42.197828 176.20901,48.1667674 175.339222,55.5445089 L169.906236,100.458039 C169.763396,101.469421 169.689426,102.916437 169.689426,104.796538 C169.689426,111.162897 171.429002,116.153572 174.903052,119.768564 C178.382204,123.386103 183.08314,125.192325 189.026266,125.192325 C195.828977,125.192325 201.585902,122.912256 206.29704,118.357214 M148.184493,142.984502 C139.060648,134.304956 134.5,122.588716 134.5,107.833233 C134.5,104.220789 134.640288,101.400637 134.931068,99.372777 L140.364054,55.9775945 C141.667461,44.9874092 145.251191,35.2582673 151.117796,26.7952641 C156.98185,18.332261 164.51151,11.7519066 173.711877,7.05165347 C182.904591,2.35394791 193.153295,0 204.447784,0 C214.875037,0 223.924913,1.951433 231.605063,5.85684657 C239.280113,9.76226015 245.182428,15.2955663 249.309457,22.4542174 C253.436486,29.615416 255.5,37.968874 255.5,47.5145913 C255.5,51.279889 255.35461,54.0974933 255.066381,55.9775945 L249.852755,99.372777 C248.546798,110.655932 244.963068,120.563403 239.099013,129.097738 C233.234959,137.632073 225.664488,144.250641 216.397803,148.950894 C207.126017,153.651147 196.772735,156 185.330305,156 C169.689426,156 157.308339,151.661501 148.184493,142.984502" id="Fill-5" fill="#00FFC9"></path>
            <path d="M206.29704,118.357214 C211.000527,113.802172 213.79099,107.833233 214.658228,100.458039 L220.308023,55.5445089 C220.450862,54.67579 220.524832,53.3739855 220.524832,51.6390953 C220.524832,45.2752837 218.749547,40.2132767 215.201526,36.4505267 C211.653506,32.6903242 206.840339,30.8102229 200.756925,30.8102229 C194.094502,30.8102229 188.406446,33.0851964 183.70296,37.642786 C178.994372,42.197828 176.20901,48.1667674 175.339222,55.5445089 L169.906236,100.458039 C169.763396,101.469421 169.689426,102.916437 169.689426,104.796538 C169.689426,111.162897 171.429002,116.153572 174.903052,119.768564 C178.382204,123.386103 183.08314,125.192325 189.026266,125.192325 C195.828977,125.192325 201.585902,122.912256 206.29704,118.357214 Z M148.184493,142.984502 C139.060648,134.304956 134.5,122.588716 134.5,107.833233 C134.5,104.220789 134.640288,101.400637 134.931068,99.372777 L140.364054,55.9775945 C141.667461,44.9874092 145.251191,35.2582673 151.117796,26.7952641 C156.98185,18.332261 164.51151,11.7519066 173.711877,7.05165347 C182.904591,2.35394791 193.153295,0 204.447784,0 C214.875037,0 223.924913,1.951433 231.605063,5.85684657 C239.280113,9.76226015 245.182428,15.2955663 249.309457,22.4542174 C253.436486,29.615416 255.5,37.968874 255.5,47.5145913 C255.5,51.279889 255.35461,54.0974933 255.066381,55.9775945 L249.852755,99.372777 C248.546798,110.655932 244.963068,120.563403 239.099013,129.097738 C233.234959,137.632073 225.664488,144.250641 216.397803,148.950894 C207.126017,153.651147 196.772735,156 185.330305,156 C169.689426,156 157.308339,151.661501 148.184493,142.984502 Z" id="Stroke-7" stroke="#0444A0"></path>
            <path d="M261.990933,153.240217 C261.554548,152.735394 261.409087,152.120939 261.554548,151.391751 L279.594328,4.60315011 C279.594328,3.88161095 279.885251,3.26715534 280.464545,2.75723367 C281.043839,2.25241122 281.694588,2 282.421896,2 L312.198123,2 C313.790544,2 314.586754,2.86686683 314.586754,4.60315011 L300.025291,122.078904 C300.025291,122.802992 300.316214,123.165037 300.895508,123.165037 L368.272261,123.165037 C368.997017,123.165037 369.576311,123.419998 370.010143,123.92482 C370.446528,124.432192 370.589438,125.046648 370.446528,125.770737 L367.404596,151.391751 C367.256582,152.120939 366.891653,152.735394 366.317462,153.240217 C365.735616,153.747589 365.082316,154 364.360112,154 L263.728815,154 C263.001507,154 262.424765,153.747589 261.990933,153.240217" id="Fill-9" fill="#00FFC9"></path>
            <path d="M261.990933,153.240217 C261.554548,152.735394 261.409087,152.120939 261.554548,151.391751 L279.594328,4.60315011 C279.594328,3.88161095 279.885251,3.26715534 280.464545,2.75723367 C281.043839,2.25241122 281.694588,2 282.421896,2 L312.198123,2 C313.790544,2 314.586754,2.86686683 314.586754,4.60315011 L300.025291,122.078904 C300.025291,122.802992 300.316214,123.165037 300.895508,123.165037 L368.272261,123.165037 C368.997017,123.165037 369.576311,123.419998 370.010143,123.92482 C370.446528,124.432192 370.589438,125.046648 370.446528,125.770737 L367.404596,151.391751 C367.256582,152.120939 366.891653,152.735394 366.317462,153.240217 C365.735616,153.747589 365.082316,154 364.360112,154 L263.728815,154 C263.001507,154 262.424765,153.747589 261.990933,153.240217 Z" id="Stroke-11" stroke="#0444A0"></path>
            <path d="M436.679023,103.839006 L467.983526,103.839006 C468.705839,103.839006 469.068272,103.403023 469.068272,102.536156 L459.938537,46.7303286 C459.793053,46.1515675 459.576104,45.8966067 459.285136,45.9705453 C458.994169,46.044484 458.77722,46.2968952 458.634289,46.7303286 L436.025623,102.536156 C435.591725,103.403023 435.808768,103.839006 436.679023,103.839006 M477.981058,153.3473 C477.54716,152.913867 477.25364,152.409044 477.113261,151.827734 L474.068314,132.501703 C473.774795,131.925491 473.417467,131.632286 472.981016,131.632286 L424.940792,131.632286 C424.504341,131.632286 424.141908,131.925491 423.853493,132.501703 L416.028006,151.827734 C415.300588,153.278461 414.213289,154 412.768662,154 L380.59381,154 C379.726013,154 379.105793,153.747589 378.748465,153.240217 C378.38348,152.735394 378.421765,151.973061 378.855664,150.958317 L441.896015,4.16716708 C442.618328,2.72408877 443.636714,2 444.938409,2 L484.719247,2 C486.023495,2 486.893844,2.72408877 487.330295,4.16716708 L514.5,150.958317 L514.5,151.827734 C514.5,153.278461 513.703669,154 512.111006,154 L479.719205,154 C478.991787,154 478.417509,153.783283 477.981058,153.3473" id="Fill-13" fill="#00FFC9"></path>
            <path d="M436.679023,103.839006 L467.983526,103.839006 C468.705839,103.839006 469.068272,103.403023 469.068272,102.536156 L459.938537,46.7303286 C459.793053,46.1515675 459.576104,45.8966067 459.285136,45.9705453 C458.994169,46.044484 458.77722,46.2968952 458.634289,46.7303286 L436.025623,102.536156 C435.591725,103.403023 435.808768,103.839006 436.679023,103.839006 Z M477.981058,153.3473 C477.54716,152.913867 477.25364,152.409044 477.113261,151.827734 L474.068314,132.501703 C473.774795,131.925491 473.417467,131.632286 472.981016,131.632286 L424.940792,131.632286 C424.504341,131.632286 424.141908,131.925491 423.853493,132.501703 L416.028006,151.827734 C415.300588,153.278461 414.213289,154 412.768662,154 L380.59381,154 C379.726013,154 379.105793,153.747589 378.748465,153.240217 C378.38348,152.735394 378.421765,151.973061 378.855664,150.958317 L441.896015,4.16716708 C442.618328,2.72408877 443.636714,2 444.938409,2 L484.719247,2 C486.023495,2 486.893844,2.72408877 487.330295,4.16716708 L514.5,150.958317 L514.5,151.827734 C514.5,153.278461 513.703669,154 512.111006,154 L479.719205,154 C478.991787,154 478.417509,153.783283 477.981058,153.3473 Z" id="Stroke-15" stroke="#0444A0"></path>
            <path d="M550.476238,100.397097 C550.044162,99.8915541 549.900137,99.2762212 550.044162,98.5485453 L557.79373,4.6068669 C557.932702,3.88429752 558.256127,3.26896459 558.761478,2.75831486 C559.264303,2.25532487 559.870725,2 560.590851,2 L590.287841,2 C592.008563,2 592.726163,2.86810455 592.438112,4.6068669 L577.590881,98.5485453 C577.446856,99.2762212 577.123431,99.8915541 576.623132,100.397097 C576.117781,100.905194 575.508832,101.157965 574.793759,101.157965 L552.199487,101.157965 C551.476834,101.157965 550.905787,100.905194 550.476238,100.397097 M543.91172,149.432238 C540.970573,146.388766 539.5,142.474635 539.5,137.689847 C539.5,131.602903 541.473398,126.527044 545.417668,122.469932 C549.364464,118.41282 554.276482,116.380434 560.158776,116.380434 C565.035419,116.380434 568.946841,117.830679 571.890514,120.728617 C574.829134,123.63166 576.299707,127.54579 576.299707,132.47356 C576.299707,138.560505 574.25556,143.669556 570.167265,147.800712 C566.07897,151.934422 561.237701,154 555.640932,154 C550.761762,154 546.85034,152.475711 543.91172,149.432238" id="Fill-17" fill="#00FFC9"></path>
            <path d="M550.476238,100.397097 C550.044162,99.8915541 549.900137,99.2762212 550.044162,98.5485453 L557.79373,4.6068669 C557.932702,3.88429752 558.256127,3.26896459 558.761478,2.75831486 C559.264303,2.25532487 559.870725,2 560.590851,2 L590.287841,2 C592.008563,2 592.726163,2.86810455 592.438112,4.6068669 L577.590881,98.5485453 C577.446856,99.2762212 577.123431,99.8915541 576.623132,100.397097 C576.117781,100.905194 575.508832,101.157965 574.793759,101.157965 L552.199487,101.157965 C551.476834,101.157965 550.905787,100.905194 550.476238,100.397097 Z M543.91172,149.432238 C540.970573,146.388766 539.5,142.474635 539.5,137.689847 C539.5,131.602903 541.473398,126.527044 545.417668,122.469932 C549.364464,118.41282 554.276482,116.380434 560.158776,116.380434 C565.035419,116.380434 568.946841,117.830679 571.890514,120.728617 C574.829134,123.63166 576.299707,127.54579 576.299707,132.47356 C576.299707,138.560505 574.25556,143.669556 570.167265,147.800712 C566.07897,151.934422 561.237701,154 555.640932,154 C550.761762,154 546.85034,152.475711 543.91172,149.432238 Z" id="Stroke-19" stroke="#0444A0"></path>
        </g>
    </g>
</svg>