<?xml version="1.0" encoding="UTF-8"?>
<svg width="315px" height="90px" viewBox="0 0 315 90" version="1.1" xmlns="http://www.w3.org/2000/svg" xmlns:xlink="http://www.w3.org/1999/xlink">
    <!-- Generator: Sketch 53.1 (72631) - https://sketchapp.com -->
    <title>hola_mask copy</title>
    <desc>Created with Sketch.</desc>
    <g id="hola_mask-copy" stroke="none" stroke-width="1" fill="none" fill-rule="evenodd">
        <g id="Group-21" transform="translate(2.000000, 3.000000)">
            <path d="M50.1309908,1.39854404 C50.396015,1.13418991 50.7185948,1 51.1014075,1 L66.8328647,1 C67.2116618,1 67.5155026,1.13418991 67.7443871,1.39854404 C67.9719331,1.66692386 68.0468894,1.99032155 67.9719331,2.3714209 L58.5100364,79.6285791 C58.4337416,80.0110203 58.2624129,80.334418 57.9973887,80.6001141 C57.7310261,80.8684939 57.4084462,81 57.0283106,81 L41.2955148,81 C40.9153792,81 40.6128769,80.8684939 40.385331,80.6001141 C40.1564465,80.334418 40.0801517,80.0110203 40.1564465,79.6285791 L43.8038745,49.2291964 C43.9564641,48.848097 43.8038745,48.6575473 43.3487826,48.6575473 L22.7157175,48.6575473 C22.4105382,48.6575473 22.1816537,48.848097 22.0304026,49.2291964 L18.3829746,79.6285791 C18.3066798,80.0110203 18.135351,80.334418 17.8689884,80.6001141 C17.6026258,80.8684939 17.2800459,81 16.9012488,81 L1.16845303,81 C0.788317417,81 0.484476627,80.8684939 0.256930661,80.6001141 C0.0280461899,80.334418 -0.0469101283,80.0110203 0.0280461899,79.6285791 L9.49128136,2.3714209 C9.49128136,1.99032155 9.6425325,1.66692386 9.94771179,1.39854404 C10.2502141,1.13418991 10.591533,1 10.9730071,1 L26.5906914,1 C27.425919,1 27.8448713,1.4562457 27.8448713,2.3714209 L24.1961048,31.8569703 C24.1961048,32.2380697 24.3473559,32.4286194 24.6525352,32.4286194 L45.4007118,32.4286194 C45.5519629,32.4286194 45.6858135,32.3709177 45.7995865,32.2568563 C45.9133594,32.1427948 45.9709152,32.0099468 45.9709152,31.8569703 L49.6183432,2.3714209 C49.6932995,1.99032155 49.8646282,1.66692386 50.1309908,1.39854404" id="Fill-1" fill="#00FFC9"></path>
            <path d="M50.1309908,1.39854404 C50.396015,1.13418991 50.7185948,1 51.1014075,1 L66.8328647,1 C67.2116618,1 67.5155026,1.13418991 67.7443871,1.39854404 C67.9719331,1.66692386 68.0468894,1.99032155 67.9719331,2.3714209 L58.5100364,79.6285791 C58.4337416,80.0110203 58.2624129,80.334418 57.9973887,80.6001141 C57.7310261,80.8684939 57.4084462,81 57.0283106,81 L41.2955148,81 C40.9153792,81 40.6128769,80.8684939 40.385331,80.6001141 C40.1564465,80.334418 40.0801517,80.0110203 40.1564465,79.6285791 L43.8038745,49.2291964 C43.9564641,48.848097 43.8038745,48.6575473 43.3487826,48.6575473 L22.7157175,48.6575473 C22.4105382,48.6575473 22.1816537,48.848097 22.0304026,49.2291964 L18.3829746,79.6285791 C18.3066798,80.0110203 18.135351,80.334418 17.8689884,80.6001141 C17.6026258,80.8684939 17.2800459,81 16.9012488,81 L1.16845303,81 C0.788317417,81 0.484476627,80.8684939 0.256930661,80.6001141 C0.0280461899,80.334418 -0.0469101283,80.0110203 0.0280461899,79.6285791 L9.49128136,2.3714209 C9.49128136,1.99032155 9.6425325,1.66692386 9.94771179,1.39854404 C10.2502141,1.13418991 10.591533,1 10.9730071,1 L26.5906914,1 C27.425919,1 27.8448713,1.4562457 27.8448713,2.3714209 L24.1961048,31.8569703 C24.1961048,32.2380697 24.3473559,32.4286194 24.6525352,32.4286194 L45.4007118,32.4286194 C45.5519629,32.4286194 45.6858135,32.3709177 45.7995865,32.2568563 C45.9133594,32.1427948 45.9709152,32.0099468 45.9709152,31.8569703 L49.6183432,2.3714209 C49.6932995,1.99032155 49.8646282,1.66692386 50.1309908,1.39854404 Z" id="Stroke-3" stroke="#0444A0"></path>
            <path d="M108.38193,62.2134074 C110.830853,59.8190904 112.283739,56.681571 112.735276,52.8048665 L115.676905,29.1964726 C115.751275,28.7398383 115.789789,28.0555565 115.789789,27.143627 C115.789789,23.7985466 114.865467,21.137748 113.01815,19.1598922 C111.170834,17.1833755 108.664805,16.1951172 105.497407,16.1951172 C102.028543,16.1951172 99.0669927,17.3909366 96.6180699,19.7865926 C94.166491,22.1809096 92.7162612,25.318429 92.2633964,29.1964726 L89.4346515,52.8048665 C89.3602808,53.3364906 89.3217674,54.0971013 89.3217674,55.0853597 C89.3217674,58.4317792 90.2274969,61.0550829 92.0363,62.9552707 C93.8477592,64.8567976 96.2953539,65.8062219 99.3897087,65.8062219 C102.931616,65.8062219 105.929023,64.6077243 108.38193,62.2134074 M78.1249842,75.1585205 C73.374552,70.596195 71,64.4376582 71,56.681571 C71,54.7827223 71.0730427,53.3003348 71.2244403,52.2344084 L74.0531852,29.4241202 C74.7318184,23.6472279 76.5977276,18.5331918 79.6522408,14.0846901 C82.705426,9.63618845 86.6258274,6.17728423 91.416101,3.70663836 C96.2023905,1.23733159 101.538492,0 107.419094,0 C112.84816,0 117.560078,1.02575325 121.558835,3.07859884 C125.554935,5.13144444 128.628041,8.03997714 130.776824,11.8028578 C132.925608,15.5670777 134,19.9579979 134,24.9756185 C134,26.9548134 133.924301,28.4358618 133.774232,29.4241202 L131.059699,52.2344084 C130.379738,58.1652976 128.513829,63.373071 125.460643,67.8590675 C122.407458,72.3450641 118.465808,75.8240549 113.641005,78.2947007 C108.813546,80.7653466 103.422994,82 97.4653653,82 C89.3217674,82 82.8754163,79.7195068 78.1249842,75.1585205" id="Fill-5" fill="#00FFC9"></path>
            <path d="M108.38193,62.2134074 C110.830853,59.8190904 112.283739,56.681571 112.735276,52.8048665 L115.676905,29.1964726 C115.751275,28.7398383 115.789789,28.0555565 115.789789,27.143627 C115.789789,23.7985466 114.865467,21.137748 113.01815,19.1598922 C111.170834,17.1833755 108.664805,16.1951172 105.497407,16.1951172 C102.028543,16.1951172 99.0669927,17.3909366 96.6180699,19.7865926 C94.166491,22.1809096 92.7162612,25.318429 92.2633964,29.1964726 L89.4346515,52.8048665 C89.3602808,53.3364906 89.3217674,54.0971013 89.3217674,55.0853597 C89.3217674,58.4317792 90.2274969,61.0550829 92.0363,62.9552707 C93.8477592,64.8567976 96.2953539,65.8062219 99.3897087,65.8062219 C102.931616,65.8062219 105.929023,64.6077243 108.38193,62.2134074 Z M78.1249842,75.1585205 C73.374552,70.596195 71,64.4376582 71,56.681571 C71,54.7827223 71.0730427,53.3003348 71.2244403,52.2344084 L74.0531852,29.4241202 C74.7318184,23.6472279 76.5977276,18.5331918 79.6522408,14.0846901 C82.705426,9.63618845 86.6258274,6.17728423 91.416101,3.70663836 C96.2023905,1.23733159 101.538492,0 107.419094,0 C112.84816,0 117.560078,1.02575325 121.558835,3.07859884 C125.554935,5.13144444 128.628041,8.03997714 130.776824,11.8028578 C132.925608,15.5670777 134,19.9579979 134,24.9756185 C134,26.9548134 133.924301,28.4358618 133.774232,29.4241202 L131.059699,52.2344084 C130.379738,58.1652976 128.513829,63.373071 125.460643,67.8590675 C122.407458,72.3450641 118.465808,75.8240549 113.641005,78.2947007 C108.813546,80.7653466 103.422994,82 97.4653653,82 C89.3217674,82 82.8754163,79.7195068 78.1249842,75.1585205 Z" id="Stroke-7" stroke="#0444A0"></path>
            <path d="M137.256726,80.6001141 C137.028525,80.334418 136.952458,80.0110203 137.028525,79.6272372 L146.462171,2.370079 C146.462171,1.99032155 146.614306,1.66692386 146.917239,1.39854404 C147.220173,1.13284801 147.560473,1 147.940808,1 L163.511862,1 C164.344596,1 164.760963,1.4562457 164.760963,2.370079 L157.146253,64.199423 C157.146253,64.5805223 157.298387,64.771072 157.601321,64.771072 L192.835036,64.771072 C193.214036,64.771072 193.51697,64.9052619 193.743836,65.1709579 C193.972038,65.4379959 194.04677,65.7613936 193.972038,66.1424929 L192.381302,79.6272372 C192.303901,80.0110203 192.113066,80.334418 191.812801,80.6001141 C191.508533,80.867152 191.166899,81 190.789233,81 L138.165527,81 C137.785192,81 137.483593,80.867152 137.256726,80.6001141" id="Fill-9" fill="#00FFC9"></path>
            <path d="M137.256726,80.6001141 C137.028525,80.334418 136.952458,80.0110203 137.028525,79.6272372 L146.462171,2.370079 C146.462171,1.99032155 146.614306,1.66692386 146.917239,1.39854404 C147.220173,1.13284801 147.560473,1 147.940808,1 L163.511862,1 C164.344596,1 164.760963,1.4562457 164.760963,2.370079 L157.146253,64.199423 C157.146253,64.5805223 157.298387,64.771072 157.601321,64.771072 L192.835036,64.771072 C193.214036,64.771072 193.51697,64.9052619 193.743836,65.1709579 C193.972038,65.4379959 194.04677,65.7613936 193.972038,66.1424929 L192.381302,79.6272372 C192.303901,80.0110203 192.113066,80.334418 191.812801,80.6001141 C191.508533,80.867152 191.166899,81 190.789233,81 L138.165527,81 C137.785192,81 137.483593,80.867152 137.256726,80.6001141 Z" id="Stroke-11" stroke="#0444A0"></path>
            <path d="M229.372872,54.5994767 L245.715664,54.5994767 C246.092754,54.5994767 246.281966,54.3700119 246.281966,53.9137662 L241.515707,24.5422782 C241.439756,24.2376671 241.326495,24.1034772 241.174593,24.1423923 C241.022691,24.1813073 240.909431,24.3141554 240.834812,24.5422782 L229.031759,53.9137662 C228.805239,54.3700119 228.918548,54.5994767 229.372872,54.5994767 M250.934964,80.6564738 C250.708444,80.428351 250.555209,80.1626549 250.481923,79.8567019 L248.892282,69.6851066 C248.739047,69.3818374 248.552501,69.227519 248.324648,69.227519 L223.244825,69.227519 C223.016972,69.227519 222.827761,69.3818374 222.677191,69.6851066 L218.591826,79.8567019 C218.212071,80.6202425 217.644438,81 216.890257,81 L200.093092,81 C199.640051,81 199.31626,80.867152 199.129713,80.6001141 C198.93917,80.334418 198.959157,79.9331902 199.185677,79.3991143 L232.096449,2.14061425 C232.473539,1.38109935 233.005196,1 233.684758,1 L254.452695,1 C255.133589,1 255.587963,1.38109935 255.815816,2.14061425 L270,79.3991143 L270,79.8567019 C270,80.6202425 269.584268,81 268.752804,81 L251.842379,81 C251.462624,81 251.162817,80.8859386 250.934964,80.6564738" id="Fill-13" fill="#00FFC9"></path>
            <path d="M229.372872,54.5994767 L245.715664,54.5994767 C246.092754,54.5994767 246.281966,54.3700119 246.281966,53.9137662 L241.515707,24.5422782 C241.439756,24.2376671 241.326495,24.1034772 241.174593,24.1423923 C241.022691,24.1813073 240.909431,24.3141554 240.834812,24.5422782 L229.031759,53.9137662 C228.805239,54.3700119 228.918548,54.5994767 229.372872,54.5994767 Z M250.934964,80.6564738 C250.708444,80.428351 250.555209,80.1626549 250.481923,79.8567019 L248.892282,69.6851066 C248.739047,69.3818374 248.552501,69.227519 248.324648,69.227519 L223.244825,69.227519 C223.016972,69.227519 222.827761,69.3818374 222.677191,69.6851066 L218.591826,79.8567019 C218.212071,80.6202425 217.644438,81 216.890257,81 L200.093092,81 C199.640051,81 199.31626,80.867152 199.129713,80.6001141 C198.93917,80.334418 198.959157,79.9331902 199.185677,79.3991143 L232.096449,2.14061425 C232.473539,1.38109935 233.005196,1 233.684758,1 L254.452695,1 C255.133589,1 255.587963,1.38109935 255.815816,2.14061425 L270,79.3991143 L270,79.8567019 C270,80.6202425 269.584268,81 268.752804,81 L251.842379,81 C251.462624,81 251.162817,80.8859386 250.934964,80.6564738 Z" id="Stroke-15" stroke="#0444A0"></path>
            <path d="M288.798767,52.787946 C288.570501,52.5218706 288.494412,52.1980112 288.570501,51.8150239 L292.664612,2.37203521 C292.738031,1.99173554 292.908897,1.6678761 293.175875,1.39911308 C293.441519,1.13438151 293.761893,1 294.142336,1 L309.831312,1 C310.740373,1 311.119482,1.45689713 310.967305,2.37203521 L303.123484,51.8150239 C303.047395,52.1980112 302.876529,52.5218706 302.612221,52.787946 C302.345243,53.0553652 302.023534,53.1884029 301.64576,53.1884029 L289.709163,53.1884029 C289.327384,53.1884029 289.025699,53.0553652 288.798767,52.787946 M285.33072,78.5959148 C283.776907,76.9940872 283,74.9340187 283,72.4157092 C283,69.212054 284.04255,66.5405496 286.126315,64.4052274 C288.211415,62.2699053 290.806443,61.2002284 293.91407,61.2002284 C296.49041,61.2002284 298.556822,61.9635154 300.11197,63.4887455 C301.664448,65.0166633 302.441355,67.0767318 302.441355,69.670295 C302.441355,72.8739501 301.361428,75.5629241 299.201574,77.737217 C297.04172,79.9128536 294.484069,81 291.527285,81 C288.94961,81 286.883198,80.1977424 285.33072,78.5959148" id="Fill-17" fill="#00FFC9"></path>
            <path d="M288.798767,52.787946 C288.570501,52.5218706 288.494412,52.1980112 288.570501,51.8150239 L292.664612,2.37203521 C292.738031,1.99173554 292.908897,1.6678761 293.175875,1.39911308 C293.441519,1.13438151 293.761893,1 294.142336,1 L309.831312,1 C310.740373,1 311.119482,1.45689713 310.967305,2.37203521 L303.123484,51.8150239 C303.047395,52.1980112 302.876529,52.5218706 302.612221,52.787946 C302.345243,53.0553652 302.023534,53.1884029 301.64576,53.1884029 L289.709163,53.1884029 C289.327384,53.1884029 289.025699,53.0553652 288.798767,52.787946 Z M285.33072,78.5959148 C283.776907,76.9940872 283,74.9340187 283,72.4157092 C283,69.212054 284.04255,66.5405496 286.126315,64.4052274 C288.211415,62.2699053 290.806443,61.2002284 293.91407,61.2002284 C296.49041,61.2002284 298.556822,61.9635154 300.11197,63.4887455 C301.664448,65.0166633 302.441355,67.0767318 302.441355,69.670295 C302.441355,72.8739501 301.361428,75.5629241 299.201574,77.737217 C297.04172,79.9128536 294.484069,81 291.527285,81 C288.94961,81 286.883198,80.1977424 285.33072,78.5959148 Z" id="Stroke-19" stroke="#0444A0"></path>
        </g>
    </g>
</svg>