<?xml version="1.0" encoding="UTF-8"?>
<svg width="11px" height="12px" viewBox="0 0 11 12" version="1.1" xmlns="http://www.w3.org/2000/svg" xmlns:xlink="http://www.w3.org/1999/xlink">
    <!-- Generator: Sketch 53.1 (72631) - https://sketchapp.com -->
    <title>ico_link_extern_hover</title>
    <desc>Created with Sketch.</desc>
    <defs>
        <polygon id="path-1" points="0.000296443139 0.637 10.3623 0.637 10.3623 11 0.000296443139 11"></polygon>
    </defs>
    <g id="ico_link_extern_hover" stroke="none" stroke-width="1" fill="none" fill-rule="evenodd">
        <g id="Group-6">
            <g id="Group-3" transform="translate(0.000000, 0.363800)">
                <mask id="mask-2" fill="white">
                    <use xlink:href="#path-1"></use>
                </mask>
                <g id="Clip-2"></g>
                <path d="M0.0013,5.817 C0.0013,4.315 0.0043,2.812 0.0003,1.31 C-0.0007,0.991 0.2093,0.741 0.4533,0.669 C0.5073,0.653 0.5643,0.639 0.6203,0.639 C2.0373,0.638 3.4533,0.638 4.8703,0.637 C5.0163,0.637 5.1763,0.766 5.1803,0.938 C5.1863,1.17 5.1843,1.4 5.1803,1.631 C5.1783,1.796 5.0303,1.931 4.8593,1.932 C4.5473,1.934 4.2353,1.933 3.9233,1.933 L1.3683,1.933 C1.2973,1.933 1.2973,1.933 1.2973,2.004 L1.2973,9.627 C1.2973,9.712 1.2903,9.703 1.3723,9.703 L8.9913,9.703 C9.0733,9.703 9.0663,9.712 9.0663,9.627 L9.0663,6.156 C9.0663,6.017 9.1263,5.913 9.2513,5.851 C9.2903,5.833 9.3353,5.82 9.3773,5.82 C9.6023,5.817 9.8263,5.817 10.0503,5.819 C10.2243,5.819 10.3623,5.979 10.3623,6.133 C10.3613,7.546 10.3623,8.96 10.3613,10.373 C10.3613,10.654 10.1413,10.921 9.8643,10.979 C9.8083,10.991 9.7483,10.998 9.6903,10.998 C6.6863,10.999 3.6813,10.998 0.6763,11 C0.3553,11.001 0.1043,10.792 0.0323,10.543 C0.0143,10.478 0.0033,10.408 0.0033,10.34 C0.0013,8.927 0.0013,7.514 0.0013,6.101 L0.0013,5.817 Z" id="Fill-1" fill="#05C6FF" mask="url(#mask-2)"></path>
            </g>
            <path d="M8.4203,1.0021 C8.9563,1.0021 9.4923,1.0051 10.0283,1.0001 C10.2043,0.9981 10.3643,1.1581 10.3633,1.3351 C10.3603,2.4071 10.3603,3.4801 10.3633,4.5521 C10.3633,4.6971 10.2683,4.8211 10.1613,4.8621 C10.0263,4.9141 9.9053,4.8871 9.8043,4.7851 C9.4353,4.4181 9.0673,4.0501 8.6993,3.6821 C8.6493,3.6321 8.6493,3.6321 8.5983,3.6831 C7.5463,4.7341 6.4933,5.7841 5.4443,6.8391 C5.2893,6.9961 5.0713,7.0021 4.9213,6.8401 C4.7883,6.6961 4.6463,6.5631 4.5083,6.4241 C4.3633,6.2781 4.3633,6.0851 4.5093,5.9391 C5.5663,4.8821 6.6243,3.8231 7.6823,2.7661 C7.7333,2.7151 7.7333,2.7151 7.6823,2.6641 C7.3183,2.3011 6.9593,1.9341 6.5913,1.5761 C6.4053,1.3971 6.4533,1.0931 6.7213,1.0101 C6.7493,1.0011 6.7813,1.0021 6.8123,1.0021 L8.4203,1.0021 Z" id="Fill-4" fill="#05C6FF"></path>
        </g>
    </g>
</svg>