<?xml version="1.0" encoding="UTF-8"?>
<svg width="617px" height="769px" viewBox="0 0 617 769" version="1.1" xmlns="http://www.w3.org/2000/svg" xmlns:xlink="http://www.w3.org/1999/xlink">
    <!-- Generator: Sketch 53.1 (72631) - https://sketchapp.com -->
    <title>logo_cta_home_anima</title>
    <desc>Created with Sketch.</desc>
    <defs>
        <rect id="path-1" x="0" y="0" width="302" height="74" rx="31"></rect>
        <rect id="path-3" x="0" y="0" width="302" height="74" rx="31"></rect>
        <rect id="path-5" x="0" y="0" width="302" height="74" rx="31"></rect>
        <rect id="path-7" x="0" y="0" width="302" height="74" rx="31"></rect>
        <polygon id="path-9" points="0.000509517981 0.729608451 435.907918 0.729608451 435.907918 362 0.000509517981 362"></polygon>
        <polygon id="path-11" points="0.00458511513 0.728230672 384.899528 0.728230672 384.899528 286.93407 0.00458511513 286.93407"></polygon>
    </defs>
    <g id="logo_cta_home_anima" stroke="none" stroke-width="1" fill="none" fill-rule="evenodd">
        <rect id="gota" fill="#0444A0" x="254" y="687" width="302" height="74" rx="31"></rect>
        <g id="gota" transform="translate(254.000000, 687.000000)">
            <mask id="mask-2" fill="white">
                <use xlink:href="#path-1"></use>
            </mask>
            <g id="Mask"></g>
            <path d="M-17.3998951,20.5877838 C-40.2973567,36.4346802 -26.7953895,82.6537812 -17.3998951,81.9929871 C-8.00440067,81.332193 292.633394,76.7106883 305.846934,75.393154 C319.05687,74.0675119 322.290852,10.7942358 305.846934,8.15511334 C289.406622,5.51193697 192.81618,7.62622897 142.316299,12.2477337 C119.131666,12.2477337 5.50117187,4.74088737 -17.3998951,20.5877838 Z" id="Fill-25-Copy" fill="#0444A0" mask="url(#mask-2)"></path>
        </g>
        <g id="gota" transform="translate(254.000000, 687.000000)">
            <mask id="mask-4" fill="white">
                <use xlink:href="#path-3"></use>
            </mask>
            <g id="Mask"></g>
            <path d="M-10.4072474,25.1124687 C-33.291348,43.9418277 -19.7972594,88.7749773 -10.4072474,87.9898186 C-1.0172354,87.2046598 299.445133,81.7133656 312.650963,80.147865 C325.85319,78.5727306 331.208766,28.2482867 314.774444,25.1124687 C298.343724,21.9718337 199.686164,9.53656448 149.21575,15.0278587 C149.21575,15.0278587 12.4804565,6.28310967 -10.4072474,25.1124687 Z" id="Fill-25" fill="#135ECA" mask="url(#mask-4)"></path>
        </g>
        <g id="gota" transform="translate(254.000000, 687.000000)">
            <mask id="mask-6" fill="white">
                <use xlink:href="#path-5"></use>
            </mask>
            <g id="Mask"></g>
            <path d="M-10.4072474,52.0968004 C-33.291348,68.0490648 -19.7972594,88.6494819 -10.4072474,87.9842941 C-1.0172354,87.3191063 299.445133,82.6668727 312.650963,81.340578 C325.85319,80.0061215 331.208766,37.3711687 314.774444,34.7144984 C298.343724,32.0537472 199.686164,21.5185664 149.21575,26.1708 C149.21575,26.1708 12.4804565,36.144536 -10.4072474,52.0968004 Z" id="Fill-25" fill="#0094FF" mask="url(#mask-6)"></path>
        </g>
        <g id="gota" transform="translate(254.000000, 687.000000)">
            <mask id="mask-8" fill="white">
                <use xlink:href="#path-7"></use>
            </mask>
            <g id="Mask"></g>
            <path d="M152.35545,32.4601304 C152.35545,32.4601304 15.5092378,50.6308718 -7.39703229,64.6988907 C-30.2996963,78.7669097 -16.7946614,87.5589717 -7.39703229,86.9723544 C2.0005968,86.3857371 302.706697,82.2830147 315.92324,81.113379 C329.136176,79.9365455 325.616573,57.6666807 309.168919,55.3238103 C292.724871,52.977341 202.866805,28.3574081 152.35545,32.4601304" id="Fill-25" fill="#0094FF" mask="url(#mask-8)"></path>
        </g>
        <path d="M303.348417,749.224613 C296.940415,752.318996 291.022774,760.440863 308.769642,760.827958 C326.51651,761.215053 505.47141,760.827958 510.892635,760.827958 C516.316886,760.827958 524.205056,753.477906 517.300637,749.998802 C510.402273,746.517324 417.720821,709 417.720821,709 C417.720821,709 309.75642,746.130229 303.348417,749.224613 Z" id="gota" fill="#0094FF"></path>
        <path d="M325.751566,743.292268 C315.883277,752.133853 322.297513,758.028242 336.607593,759.014663 C350.917673,759.998067 475.766531,762.942245 486.128689,759.014663 C496.490848,755.084064 502.411215,742.800566 490.076611,734.447667 C477.738977,726.094767 409.771311,675 409.771311,675 C409.771311,675 335.619855,734.447667 325.751566,743.292268 Z" id="gota" fill="#0094FF"></path>
        <path d="M415.21633,599 C415.21633,599 394.00816,653.923961 376.743019,680.595941 C359.480907,707.264889 358,738.382704 358,738.382704 C358,738.382704 358.987272,751.717178 379.20817,751.717178 L450.234189,751.717178 C450.234189,751.717178 467.49933,755.177409 467.992966,737.891418 C468.486601,720.602395 442.835709,668.247072 442.835709,668.247072 L415.21633,599 Z" id="gota" fill="#0094FF"></path>
        <path d="M461.520526,656.257057 C448.35469,615.080724 410.998486,570 410.998486,570 C377.419092,612.854403 364.322916,639.276439 359.228613,659.570791 C357.190286,665.292587 356.02423,671.429357 356.006057,677.847825 C356,677.944753 356,677.996246 356,677.996246 C356,708.374166 380.623475,733 410.998486,733 C441.376525,733 466,708.374166 466,677.996246 C466,670.272276 464.39478,662.926932 461.520526,656.257057" id="gota" fill="#0094FF"></path>
        <path d="M461.520526,630.298893 C448.35469,589.140355 410.998486,535 410.998486,535 C377.419092,577.832732 364.322916,613.323834 359.228613,633.610952 C357.190286,639.326827 356.02423,645.460493 356.006057,651.875715 C356,651.972594 356,652.024061 356,652.024061 C356,682.386619 380.623475,707 410.998486,707 C441.376525,707 466,682.386619 466,652.024061 C466,644.303997 464.39478,636.962368 461.520526,630.298893" id="gota" fill="#0094FF"></path>
        <path d="M458.195824,623.810074 C458.1928,623.785844 458.216986,623.764642 458.213963,623.74344 C458.114197,622.647012 457.745364,621.126551 457.155836,619.282008 C456.381892,616.519737 455.36609,613.866502 454.144709,611.328362 C448.161758,597.017251 436.921427,575.661136 429.454075,564.702914 C419.114664,549.537679 410.498488,497 410.498488,497 C410.498488,497 403.357644,533.506206 384.157176,566.556543 C373.400561,585.062551 367.744117,603.49284 364.847873,616.129021 C363.033941,621.223473 362,626.690469 362,632.408856 C362,659.244082 383.712763,681 410.498488,681 C437.284214,681 459,659.244082 459,632.408856 C459,629.470914 458.694655,626.605663 458.195824,623.810074" id="gota" fill="#0094FF"></path>
        <path d="M449.608257,608.389108 L449.638391,608.386073 C449.61127,608.24647 449.572096,608.109901 449.544975,607.970298 C448.9664,603.909657 447.794184,600.052351 446.109688,596.477288 C440.007534,580.696022 428.882025,564.2046 421.044146,539.327863 C411.226458,508.187178 409.996987,438 409.996987,438 C409.996987,438 404.35287,527.467635 389.141178,549.710115 C378.651499,565.045256 373.528703,589.65189 371.359048,603.463533 C370.503239,606.744215 370,610.167535 370,613.71832 C370,635.966869 387.908694,654 409.996987,654 C432.091306,654 450,635.966869 450,613.71832 C450,611.906509 449.837276,610.137187 449.608257,608.389108" id="gota" fill="#0094FF"></path>
        <path d="M446,595.060624 C446,595.060624 445.851697,594.525276 445.585357,593.554392 C445.319017,592.066307 444.94372,590.605444 444.408013,589.199023 C438.457737,567.165087 417.846657,489.503406 417.531892,469.946587 C417.162648,447.092996 439.704692,430.101006 439.704692,430.101006 C439.704692,430.101006 347.778065,415.537739 378.155952,428.122942 C408.530812,440.70512 404.220947,469.069464 404.220947,469.069464 C399.584211,529.612124 384.284797,567.788147 376.579098,583.655 C375.295824,585.51813 374.281916,587.508292 373.525269,589.589191 C372.602158,591.264798 372.057372,592.129823 372.057372,592.129823 L372.738355,592.157044 C372.305553,593.953634 372.057372,595.801642 372.057372,597.698042 C372.057372,613.882474 388.609795,627 409.027173,627 C429.444551,627 446,613.882474 446,597.698042 C446,596.805796 445.930388,595.925649 445.830511,595.054575 L446,595.060624 Z" id="gota" fill="#0094FF"></path>
        <path d="M438.890648,569.644938 C438.890648,569.644938 425.092276,496.31787 423.982479,474.230382 C422.872682,452.145923 446,434.072414 446,434.072414 L378,433 C378,433 397.755592,438.089423 397.755592,473.082232 C397.755592,508.078071 379.814382,571.150558 379.288211,572.038178 L379.651087,572.023031 C379.436385,573.156033 379.288211,574.304183 379.288211,575.482626 C379.288211,588.469742 392.84769,599 409.579312,599 C426.304887,599 439.864366,588.469742 439.864366,575.482626 C439.864366,573.462005 439.504514,571.514089 438.887624,569.644938 L438.890648,569.644938 Z" id="gota" fill="#0094FF"></path>
        <path d="M433.646818,530.079394 L433.643791,530.076356 C433.422882,529.60243 433.186841,529.131542 432.914487,528.672806 C430.260543,523.411013 421.348497,504.116759 422.922101,485.080734 C424.771086,462.775835 459,429.944312 459,429.944312 L366,428 C366,428 392.981257,455.335805 392.981257,484.810353 C392.981257,503.49701 389.661558,519.154794 387.23155,528.119893 C385.639789,530.580662 384.719836,533.33004 384.719836,536.24347 C384.719836,546.603004 395.992288,555 409.891449,555 C423.796661,555 435.066087,546.603004 435.066087,536.24347 C435.066087,534.080423 434.55164,532.011554 433.646818,530.079394" id="gota" fill="#0094FF"></path>
        <path d="M360,428 C381.525468,445.021171 385.916129,477.182352 385.916129,477.182352 C385.916129,487.574097 396.329916,496 409.174194,496 C422.018471,496 432.432258,487.574097 432.432258,477.182352 C435.95207,453.413805 463,428 463,428 L360,428 Z" id="gota" fill="#0094FF"></path>
        <path d="M333,417 C333,417 370.908925,469 408.275687,469 C445.64245,469 477,422.596738 477,422.596738 C477,422.596738 432.694172,430.525451 407.90314,430.525451 C383.118167,430.525451 333,417 333,417" id="gota" fill="#0094FF"></path>
        <path d="M17.061916,68.6011181 L184.644082,7.90403355 C192.432956,5.08295811 201.146225,6.87634943 207.187909,12.544072 L463.344497,252.845374 C472.2059,261.158284 472.650541,275.080815 464.337631,283.942218 C464.1859,284.103961 464.031731,284.2634 463.875179,284.420481 L344.034863,404.665292 C335.48826,413.240743 321.618929,413.298938 313.000664,404.795509 L9.1022245,104.946481 C0.453260104,96.4127629 0.359834415,82.4834467 8.89355238,73.8344823 C11.1930159,71.5039649 13.9836411,69.7160477 17.061916,68.6011181 Z" id="Rectangle-Copy-2" fill="#0444A0"></path>
        <g id="Group-9" transform="translate(177.000000, 76.000000)">
            <g id="Group-3">
                <mask id="mask-10" fill="white">
                    <use xlink:href="#path-9"></use>
                </mask>
                <g id="Clip-2"></g>
                <path d="M435.908428,0.729608451 C435.908428,0.729608451 407.890034,340.142848 260.359103,360.450538 C112.828171,380.75313 0.000509517981,194.89927 0.000509517981,194.89927 C0.000509517981,194.89927 129.861357,236.157073 223.73495,171.955608 C312.192367,111.46082 356.821047,0.729608451 356.821047,0.729608451 L435.908428,0.729608451 Z" id="Fill-1" fill="#0094FF" mask="url(#mask-10)"></path>
            </g>
            <path d="M139.757042,334.734686 C139.757042,334.734686 197.935567,368.48044 270.401048,307.168163 C270.401048,307.168163 325.849744,266.354593 375.073409,142.713784 C375.073409,142.713784 405.060708,68.3485185 411,1 L357.332071,1 C357.332071,1 293.459174,153.642343 192.751443,192.796202 C92.0335076,231.955168 0,195.48238 0,195.48238 C0,195.48238 33.8907001,249.272337 84.609393,294.82502 C84.609393,294.82502 106.43782,315.507572 139.757042,334.734686" id="Fill-4" fill="#05C6FF"></path>
            <g id="Group-8">
                <mask id="mask-12" fill="white">
                    <use xlink:href="#path-11"></use>
                </mask>
                <g id="Clip-7"></g>
                <path d="M64.6445193,274.745136 C64.6445193,274.745136 123.78741,314.736713 223.467813,249.842703 C329.434918,180.859397 366.477554,66.1605204 384.899528,0.726702915 L356.777488,0.726702915 C356.777488,0.726702915 285.952743,165.500351 159.281296,195.902708 C159.281296,195.902708 82.4551443,217.948237 0.00458511513,194.665225 C0.00458511513,194.665225 29.456308,241.536799 64.6445193,274.745136" id="Fill-6" fill="#00FFC9" mask="url(#mask-12)"></path>
            </g>
        </g>
    </g>
</svg>