<?xml version="1.0" encoding="UTF-8"?>
<svg viewBox="0 0 617 499" version="1.1" xmlns="http://www.w3.org/2000/svg" xmlns:xlink="http://www.w3.org/1999/xlink" >
    <defs>
        <polygon id="path-1" points="0.000515361077 0.737670423 440.906862 0.737670423 440.906862 366 0.000515361077 366"></polygon>
        <polygon id="path-3" points="0.00463275269 0.738380228 388.898484 0.738380228 388.898484 290.933151 0.00463275269 290.933151"></polygon>
    </defs>
    <g id="logo_cta_home" stroke="none" stroke-width="1" fill="none" fill-rule="evenodd">
        <g id="Group">
            <rect id="Rectangle-Copy-4" fill="#0444A0" transform="translate(240.500000, 240.500000) rotate(-45.000000) translate(-240.500000, -240.500000) " x="132" y="10" width="217" height="461" rx="22"></rect>
            <g id="Group-9-Copy" transform="translate(175.009055, 132.009055)">
                <g id="Group-3">
                    <mask id="mask-2" fill="white">
                        <use xlink:href="#path-1"></use>
                    </mask>
                    <g id="Clip-2"></g>
                    <path d="M440.907378,0.737670423 C440.907378,0.737670423 412.567672,343.901332 263.344872,364.433417 C114.122072,384.960346 0.000515361077,197.052854 0.000515361077,197.052854 C0.000515361077,197.052854 131.350593,238.766544 226.300718,173.85567 C315.772555,112.692431 360.913031,0.737670423 360.913031,0.737670423 L440.907378,0.737670423 Z" id="Fill-1" fill="#0094FF" mask="url(#mask-2)"></path>
                </g>
                <path d="M141.45725,337.653648 C141.45725,337.653648 200.343542,371.694555 273.690598,309.846018 C273.690598,309.846018 329.813852,268.675479 379.636346,143.953264 C379.636346,143.953264 409.988454,68.9375726 416,1 L361.679177,1 C361.679177,1 297.029237,154.977407 195.096351,194.47372 C93.1531366,233.975184 0,197.183392 0,197.183392 C0,197.183392 34.3029957,251.443815 85.6387044,297.394918 C85.6387044,297.394918 107.732684,318.258367 141.45725,337.653648" id="Fill-4" fill="#05C6FF"></path>
                <g id="Group-8">
                    <mask id="mask-4" fill="white">
                        <use xlink:href="#path-3"></use>
                    </mask>
                    <g id="Clip-7"></g>
                    <path d="M65.3161507,278.574337 C65.3161507,278.574337 125.073513,319.123287 225.789556,253.324831 C332.857619,183.380086 370.285113,67.0826183 388.898484,0.736831179 L360.484267,0.736831179 C360.484267,0.736831179 288.923681,167.806976 160.936166,198.633059 C160.936166,198.633059 83.3118211,220.985843 0.00463275269,197.378329 C0.00463275269,197.378329 29.7623475,244.903166 65.3161507,278.574337" id="Fill-6" fill="#00FFC9" mask="url(#mask-4)"></path>
                </g>
            </g>
        </g>
    </g>
</svg>