<?xml version="1.0" encoding="UTF-8"?>
<svg width="137px" height="39px" viewBox="0 0 137 39" version="1.1" xmlns="http://www.w3.org/2000/svg" xmlns:xlink="http://www.w3.org/1999/xlink">
    <!-- Generator: Sketch 53.1 (72631) - https://sketchapp.com -->
    <title>logo_fimaq</title>
    <desc>Created with Sketch.</desc>
    <defs>
        <polygon id="path-1" points="0 38.1196 136.453 38.1196 136.453 -0.0004 0 -0.0004"></polygon>
    </defs>
    <g id="logo_fimaq" stroke="none" stroke-width="1" fill="none" fill-rule="evenodd">
        <g id="Group-13">
            <path d="M30.195,0.0012 L3.06,0.0012 L16.164,13.1042 C16.323,13.2632 16.323,13.5212 16.164,13.6802 L8.847,20.9962 C8.688,21.1552 8.429,21.1552 8.27,20.9962 L0,12.7262 L0,23.3862 C0.192,25.5342 1.215,29.4962 6.134,29.7582 L30.195,29.7582 C30.424,29.7582 30.611,29.5722 30.611,29.3422 L30.611,0.4172 C30.611,0.1872 30.424,0.0012 30.195,0.0012" id="Fill-1" fill="#0444A0"></path>
            <path d="M35.6471,6.4212 C35.6471,1.8752 38.0241,0.0822 43.6961,0.0822 C44.3221,0.0822 44.9481,0.0822 45.6571,0.1232 L45.6571,3.7522 C45.1151,3.7522 44.6561,3.7102 44.2391,3.7102 C40.7351,3.7102 39.8591,4.6702 39.8591,6.4632 L39.8591,8.4232 L45.6571,8.4232 L45.6571,12.0522 L39.8591,12.0522 L39.8591,29.7772 L35.6471,29.7772" id="Fill-3" fill="#0444A0"></path>
            <mask id="mask-2" fill="white">
                <use xlink:href="#path-1"></use>
            </mask>
            <g id="Clip-6"></g>
            <path d="M49.035,29.7776 L53.456,29.7776 L53.456,8.4236 L49.035,8.4236 L49.035,29.7776 Z M51.287,5.9636 C49.285,5.9636 47.992,5.4206 47.992,3.2936 C47.992,1.1246 49.285,0.5826 51.287,0.5826 C53.206,0.5826 54.457,1.1246 54.457,3.2936 C54.457,5.4206 53.206,5.9636 51.287,5.9636 L51.287,5.9636 Z" id="Fill-5" fill="#0444A0" mask="url(#mask-2)"></path>
            <path d="M83.569,29.7776 L83.569,16.9736 C83.569,13.9706 83.026,11.8846 79.606,11.8846 C76.269,11.8846 75.56,13.9286 75.56,16.9736 L75.56,29.7776 L71.056,29.7776 L71.056,16.9736 C71.056,13.9706 70.514,11.8846 67.094,11.8846 C63.757,11.8846 63.007,13.9286 63.007,16.9736 L63.007,29.7776 L58.544,29.7776 L58.544,8.4236 L60.963,8.4236 L61.964,11.1756 C62.632,9.7996 64.549,8.1316 68.512,8.1316 C71.681,8.1316 73.475,9.3406 74.392,11.4256 C75.018,9.9246 76.978,8.1316 81.024,8.1316 C86.864,8.1316 88.073,12.2186 88.073,17.2236 L88.073,29.7776 L83.569,29.7776 Z" id="Fill-7" fill="#0444A0" mask="url(#mask-2)"></path>
            <path d="M107.6335,19.9348 L101.5855,20.6018 C97.8735,21.0188 96.6225,21.8118 96.6225,23.4798 C96.6225,25.4398 98.2905,26.5668 101.4185,26.5668 C105.3395,26.5668 107.6335,24.3138 107.6335,20.6018 L107.6335,19.9348 Z M109.5935,29.7778 L108.6765,26.5668 C107.6755,28.2348 104.7135,30.0698 100.2925,30.0698 C95.7045,30.0698 92.0345,28.0258 92.0345,23.5218 C92.0345,19.6008 94.8285,17.8078 100.9185,17.2238 L107.6335,16.5568 C107.5085,13.4698 106.3825,11.6768 102.0865,11.6768 C98.1235,11.6768 97.0395,13.2618 97.0395,15.9308 L92.7015,15.9728 C92.7015,11.5508 94.5365,8.1308 102.0445,8.1308 C110.7615,8.1308 112.0125,11.8848 112.0125,17.6408 L112.0125,29.7778 L109.5935,29.7778 Z" id="Fill-8" fill="#0444A0" mask="url(#mask-2)"></path>
            <path d="M126.151,11.802 C121.313,11.802 120.27,14.805 120.27,19.142 C120.27,23.439 121.313,26.358 126.193,26.358 C131.24,26.358 132.074,23.313 132.074,19.142 C132.074,14.763 131.115,11.802 126.151,11.802 L126.151,11.802 Z M132.032,38.119 L132.032,27.151 C131.156,28.569 129.071,30.07 124.859,30.07 C117.768,30.07 115.766,25.024 115.766,19.142 C115.766,13.303 117.893,8.131 124.942,8.131 C129.947,8.131 132.283,10.008 133.075,11.468 L134.034,8.423 L136.454,8.423 L136.454,38.119 L132.032,38.119 Z" id="Fill-9" fill="#0444A0" mask="url(#mask-2)"></path>
            <path d="M28.6256,0.0003 C28.6256,0.0003 26.7856,22.2733 17.0976,23.6063 C7.4086,24.9383 -0.0004,12.7423 -0.0004,12.7423 C-0.0004,12.7423 8.5276,15.4503 14.6926,11.2363 C20.5016,7.2673 23.4326,0.0003 23.4326,0.0003 L28.6256,0.0003 Z" id="Fill-10" fill="#0094FF" mask="url(#mask-2)"></path>
            <path d="M9.1647,21.8665 C9.1647,21.8665 12.9797,24.0775 17.7307,20.0595 C17.7307,20.0595 21.3667,17.3865 24.5957,9.2855 C24.5957,9.2855 26.5617,4.4125 26.9517,0.0005 L23.4327,0.0005 C23.4327,0.0005 19.2437,10.0015 12.6397,12.5665 C6.0357,15.1325 -0.0003,12.7425 -0.0003,12.7425 C-0.0003,12.7425 2.2227,16.2665 5.5487,19.2515 C5.5487,19.2515 6.9787,20.6065 9.1647,21.8665" id="Fill-11" fill="#05C6FF" mask="url(#mask-2)"></path>
            <path d="M4.2458,18.0042 C4.2458,18.0042 8.1298,20.6312 14.6768,16.3672 C21.6368,11.8352 24.0688,4.2992 25.2788,0.0002 L23.4328,0.0002 C23.4328,0.0002 18.7808,10.8262 10.4608,12.8232 C10.4608,12.8232 5.4158,14.2722 -0.0002,12.7422 C-0.0002,12.7422 1.9338,15.8212 4.2458,18.0042" id="Fill-12" fill="#00FFC9" mask="url(#mask-2)"></path>
        </g>
    </g>
</svg>