<?xml version="1.0" encoding="UTF-8"?>
<svg viewBox="0 0 96 96" version="1.1" xmlns="http://www.w3.org/2000/svg" xmlns:xlink="http://www.w3.org/1999/xlink"  preserveAspectRatio="none">
    <g id="ico_serveis_mobile_02" stroke="none" stroke-width="1" fill="none" fill-rule="evenodd">
        <g id="Group-9">
            <path d="M39.9107709,20.5973845 L42.8069847,18.4644466 C43.8794804,17.6752596 45.3805669,17.9160752 46.1589583,19.0024974 L48.2631963,21.9376951 C48.8738192,22.7901822 49.9578618,23.1465892 50.9468128,22.8204561 L54.351766,21.6989437 C55.6117277,21.2840528 56.9661016,21.982418 57.375674,23.2601165 L58.4814518,26.7092834 C58.8020458,27.7117642 59.7237536,28.3901761 60.7636466,28.3901761 L64.3445189,28.3888 C65.6703654,28.3881119 66.7448987,29.4772863 66.7442195,30.8196611 L66.7435403,34.4463434 C66.7428611,35.5004275 67.4125766,36.4341039 68.4015276,36.7595489 L71.80716,37.8789972 C73.0678009,38.2938881 73.7585724,39.6658487 73.3483207,40.9428592 L72.2411845,44.3920261 C71.919232,45.3938189 72.2717496,46.4912498 73.113309,47.1104898 L76.0095228,49.2413635 C77.083377,50.0298625 77.3204264,51.5511288 76.5413557,52.6368629 L74.4357593,55.5706845 C73.8244572,56.4224836 73.8244572,57.5770222 74.4357593,58.4288212 L76.5413557,61.3626428 C77.3204264,62.449065 77.083377,63.9696433 76.0095228,64.7588303 L73.113309,66.889704 C72.2717496,67.508944 71.919232,68.6063749 72.2411845,69.6081677 L73.3483207,73.0573346 C73.7585724,74.3343451 73.0678009,75.7063057 71.80716,76.1205085 L68.4015276,77.2406449 C67.4125766,77.5654019 66.7428611,78.4997663 66.7435403,79.5531623 L66.7442195,83.1798447 C66.7448987,84.5229075 65.6703654,85.6113938 64.3445189,85.6113938 L60.7636466,85.6100177 C59.7237536,85.6100177 58.8020458,86.2884296 58.4814518,87.2902223 L57.375674,90.7400773 C56.9661016,92.0170878 55.6117277,92.716141 54.351766,92.3005621 L50.9468128,91.1790496 C49.9578618,90.8529166 48.8738192,91.2100116 48.2631963,92.0624987 L46.1589583,94.9970084 C45.3805669,96.0841186 43.8794804,96.3249342 42.8069847,95.5350591 L39.9107709,93.4021213 C39.0698908,92.7828813 37.9301518,92.7828813 37.0892717,93.4021213 L34.1930579,95.5350591 C33.1205621,96.3249342 31.6194757,96.0841186 30.840405,94.9970084 L28.7368463,92.0624987 C28.1255441,91.2100116 27.0421808,90.8529166 26.0532298,91.1790496 L22.6482766,92.3005621 C21.3876357,92.716141 20.0332618,92.0170878 19.6243686,90.7400773 L18.5185908,87.2902223 C18.1973176,86.2884296 17.276289,85.6100177 16.236396,85.6100177 L12.6555237,85.6113938 C11.3296772,85.6113938 10.2551439,84.5229075 10.2558231,83.1798447 L10.2565023,79.5531623 C10.2571815,78.4997663 9.58678682,77.5654019 8.59783574,77.2406449 L5.19288262,76.1205085 C3.93156247,75.7063057 3.24147023,74.3343451 3.65104269,73.0573346 L4.75885808,69.6081677 C5.08081056,68.6063749 4.72829297,67.508944 3.88673364,66.889704 L0.989840549,64.7588303 C-0.0833343823,63.9696433 -0.320383782,62.449065 0.45868688,61.3626428 L2.56428326,58.4288212 C3.17558544,57.5770222 3.17558544,56.4224836 2.56428326,55.5706845 L0.45868688,52.6368629 C-0.320383782,51.5511288 -0.0833343823,50.0298625 0.989840549,49.2413635 L3.88673364,47.1104898 C4.72829297,46.4912498 5.08081056,45.3938189 4.75885808,44.3920261 L3.65104269,40.9428592 C3.24147023,39.6658487 3.93156247,38.2938881 5.19288262,37.8789972 L8.59783574,36.7595489 C9.58678682,36.4341039 10.2571815,35.5004275 10.2565023,34.4463434 L10.2558231,30.8196611 C10.2551439,29.4772863 11.3296772,28.3881119 12.6555237,28.3888 L16.236396,28.3901761 C17.276289,28.3901761 18.1973176,27.7117642 18.5185908,26.7092834 L19.6243686,23.2601165 C20.0332618,21.982418 21.3876357,21.2840528 22.6482766,21.6989437 L26.0532298,22.8204561 C27.0421808,23.1465892 28.1255441,22.7901822 28.7368463,21.9376951 L30.840405,19.0024974 C31.6194757,17.9160752 33.1205621,17.6752596 34.1930579,18.4644466 L37.0892717,20.5973845 C37.9301518,21.2166245 39.0698908,21.2166245 39.9107709,20.5973845 Z" id="Stroke-1" stroke="#00FFC9"></path>
            <path d="M68,57 C68,73.0165175 55.0163635,86 38.9996559,86 C22.9836365,86 10,73.0165175 10,57 C10,40.9841707 22.9836365,28 38.9996559,28 C55.0163635,28 68,40.9841707 68,57 Z" id="Stroke-3" stroke="#00FFC9"></path>
            <path d="M20.1695913,63.2743196 L30.2292458,53.2010058 L41.592955,54.3516361 L42.8690168,65.858623 L32.8769546,75.8642527 C40.0246757,78.3179735 48.2675297,76.8159327 53.9118329,71.1625981 C59.7056587,65.3609053 61.1148569,56.7937344 58.7880412,49.9179833 L94.8243266,13.8355017 C96.8070357,11.848733 96.0887816,8.67715011 94.1060724,6.68969774 L89.3165735,1.89711393 C87.3338643,-0.0903384469 84.1658993,-0.807516823 82.1818246,1.17788452 L46.1482703,37.2603661 C39.2784288,34.9317583 30.6825926,36.2984309 24.8908151,42.1021747 C19.1891607,47.8108873 17.6509225,56.1073216 20.1695913,63.2743196" id="Fill-5" fill="#0444A0"></path>
            <path d="M20.1695913,63.2743196 L30.2292458,53.2010058 L41.592955,54.3516361 L42.8690168,65.858623 L32.8769546,75.8642527 C40.0246757,78.3179735 48.2675297,76.8159327 53.9118329,71.1625981 C59.7056587,65.3609053 61.1148569,56.7937344 58.7880412,49.9179833 L94.8243266,13.8355017 C96.8070357,11.848733 96.0887816,8.67715011 94.1060724,6.68969774 L89.3165735,1.89711393 C87.3338643,-0.0903384469 84.1658993,-0.807516823 82.1818246,1.17788452 L46.1482703,37.2603661 C39.2784288,34.9317583 30.6825926,36.2984309 24.8908151,42.1021747 C19.1891607,47.8108873 17.6509225,56.1073216 20.1695913,63.2743196 Z" id="Stroke-7" stroke="#FFFFFF" stroke-width="2"></path>
        </g>
    </g>
</svg>