<?xml version="1.0" encoding="UTF-8"?>
<svg viewBox="0 0 128 128" version="1.1" xmlns="http://www.w3.org/2000/svg" xmlns:xlink="http://www.w3.org/1999/xlink"  preserveAspectRatio="none">
    <g id="ico_serveis_desktop_02" stroke="none" stroke-width="1" fill="none" fill-rule="evenodd">
        <g id="Group-9">
            <path d="M53.8871351,27.4631793 L57.7612913,24.6192622 C59.1959284,23.5670128 61.2038752,23.8881003 62.2451001,25.3366632 L65.05986,29.2502601 C65.8766673,30.3869096 67.3267501,30.8621189 68.6496327,30.4272748 L73.2043103,28.9319249 C74.8897136,28.3787371 76.7014086,29.3098906 77.2492783,31.0134887 L78.7284355,35.6123779 C79.157282,36.949019 80.3902159,37.8535681 81.7812415,37.8535681 L86.5712395,37.8517333 C88.3447744,37.8508159 89.7821373,39.3030484 89.7812287,41.0928814 L89.7803201,45.9284579 C89.7794115,47.3339034 90.6752647,48.5788052 91.9981474,49.0127319 L96.5537335,50.5053297 C98.2400454,51.0585174 99.1640643,52.8877983 98.6152861,54.590479 L97.1343118,59.1893682 C96.7036481,60.5250918 97.1751976,61.9883331 98.3009198,62.8139864 L102.175076,65.6551513 C103.61153,66.7064833 103.928622,68.7348384 102.886489,70.1824839 L100.069912,74.094246 C99.2521959,75.2299781 99.2521959,76.7693629 100.069912,77.905095 L102.886489,81.8168571 C103.928622,83.26542 103.61153,85.2928577 102.175076,86.345107 L98.3009198,89.186272 C97.1751976,90.0119253 96.7036481,91.4751666 97.1343118,92.8108902 L98.6152861,97.4097794 C99.1640643,99.1124601 98.2400454,100.941741 96.5537335,101.494011 L91.9981474,102.987527 C90.6752647,103.420536 89.7794115,104.666355 89.7803201,106.070883 L89.7812287,110.90646 C89.7821373,112.69721 88.3447744,114.148525 86.5712395,114.148525 L81.7812415,114.14669 C80.3902159,114.14669 79.157282,115.051239 78.7284355,116.386963 L77.2492783,120.98677 C76.7014086,122.68945 74.8897136,123.621521 73.2043103,123.067416 L68.6496327,121.572066 C67.3267501,121.137222 65.8766673,121.613349 65.05986,122.749998 L62.2451001,126.662678 C61.2038752,128.112158 59.1959284,128.433246 57.7612913,127.380079 L53.8871351,124.536162 C52.7623214,123.710508 51.2377356,123.710508 50.1129219,124.536162 L46.2387657,127.380079 C44.8041286,128.433246 42.7961818,128.112158 41.7540483,126.662678 L38.940197,122.749998 C38.1224811,121.613349 36.6733068,121.137222 35.3504242,121.572066 L30.7957467,123.067416 C29.1094348,123.621521 27.2977398,122.68945 26.7507787,120.98677 L25.2716215,116.386963 C24.8418664,115.051239 23.6098411,114.14669 22.2188155,114.14669 L17.4288175,114.148525 C15.6552825,114.148525 14.2179197,112.69721 14.2188283,110.90646 L14.2197369,106.070883 C14.2206454,104.666355 13.3238837,103.420536 12.0010011,102.987527 L7.44632351,101.494011 C5.75910304,100.941741 4.83599265,99.1124601 5.3838623,97.4097794 L6.86574522,92.8108902 C7.29640893,91.4751666 6.82485943,90.0119253 5.69913721,89.186272 L1.82407242,86.345107 C0.388526735,85.2928577 0.0714346816,83.26542 1.11356816,81.8168571 L3.93014515,77.905095 C4.74786104,76.7693629 4.74786104,75.2299781 3.93014515,74.094246 L1.11356816,70.1824839 C0.0714346816,68.7348384 0.388526735,66.7064833 1.82407242,65.6551513 L5.69913721,62.8139864 C6.82485943,61.9883331 7.29640893,60.5250918 6.86574522,59.1893682 L5.3838623,54.590479 C4.83599265,52.8877983 5.75910304,51.0585174 7.44632351,50.5053297 L12.0010011,49.0127319 C13.3238837,48.5788052 14.2206454,47.3339034 14.2197369,45.9284579 L14.2188283,41.0928814 C14.2179197,39.3030484 15.6552825,37.8508159 17.4288175,37.8517333 L22.2188155,37.8535681 C23.6098411,37.8535681 24.8418664,36.949019 25.2716215,35.6123779 L26.7507787,31.0134887 C27.2977398,29.3098906 29.1094348,28.3787371 30.7957467,28.9319249 L35.3504242,30.4272748 C36.6733068,30.8621189 38.1224811,30.3869096 38.940197,29.2502601 L41.7540483,25.3366632 C42.7961818,23.8881003 44.8041286,23.5670128 46.2387657,24.6192622 L50.1129219,27.4631793 C51.2377356,28.2888326 52.7623214,28.2888326 53.8871351,27.4631793 Z" id="Stroke-1" stroke="#00FFC9"></path>
            <path d="M90.5,75.5 C90.5,96.7633078 73.2631032,114 51.9995432,114 C30.7368968,114 13.5,96.7633078 13.5,75.5 C13.5,54.2376059 30.7368968,37 51.9995432,37 C73.2631032,37 90.5,54.2376059 90.5,75.5 Z" id="Stroke-3" stroke="#00FFC9"></path>
            <path d="M27.0493287,84.6396743 L40.3751049,71.1649817 L55.42833,72.7041366 L57.1186976,88.0965996 L43.8824593,101.480754 C53.3508692,104.763004 64.2699744,102.75378 71.7468436,95.1915273 C79.4217816,87.4308214 81.2885118,75.9708396 78.2062364,66.7734062 L125.942614,18.5072296 C128.56906,15.8496039 127.617607,11.6070969 124.991161,8.94855672 L118.64663,2.53769785 C116.020184,-0.120842338 111.823659,-1.08018484 109.195404,1.57561176 L61.4626437,49.8417884 C52.3623343,46.7268975 40.9756421,48.555044 33.3034174,56.3184935 C25.7505765,63.9548232 23.7129103,75.0526509 27.0493287,84.6396743" id="Fill-5" fill="#0444A0"></path>
            <path d="M27.0493287,84.6396743 L40.3751049,71.1649817 L55.42833,72.7041366 L57.1186976,88.0965996 L43.8824593,101.480754 C53.3508692,104.763004 64.2699744,102.75378 71.7468436,95.1915273 C79.4217816,87.4308214 81.2885118,75.9708396 78.2062364,66.7734062 L125.942614,18.5072296 C128.56906,15.8496039 127.617607,11.6070969 124.991161,8.94855672 L118.64663,2.53769785 C116.020184,-0.120842338 111.823659,-1.08018484 109.195404,1.57561176 L61.4626437,49.8417884 C52.3623343,46.7268975 40.9756421,48.555044 33.3034174,56.3184935 C25.7505765,63.9548232 23.7129103,75.0526509 27.0493287,84.6396743 Z" id="Stroke-7" stroke="#FFFFFF" stroke-width="2"></path>
        </g>
    </g>
</svg>