<?xml version="1.0" encoding="UTF-8"?>
<svg width="388px" height="340px" viewBox="0 0 388 340" version="1.1" xmlns="http://www.w3.org/2000/svg" xmlns:xlink="http://www.w3.org/1999/xlink">
    <!-- Generator: Sketch 53.1 (72631) - https://sketchapp.com -->
    <title>serveis_escombradora_vector</title>
    <desc>Created with Sketch.</desc>
    <defs>
        <path d="M14.981,2.546 C-2.12,5.967 0.485,19.159 0.485,19.159 L0.485,19.159 C0.485,19.159 2.929,47.009 3.417,62.645 L3.417,62.645 C3.906,78.28 11.398,85.772 11.398,85.772 L11.398,85.772 L33.874,113.947 C31.919,115.739 32.57,119.322 32.57,119.322 L32.57,119.322 L38.271,140.658 L44.297,139.843 L44.623,142.124 L40.388,148.638 L42.668,154.177 L49.345,153.035 L44.623,161.342 L46.577,166.879 L53.418,165.903 C53.418,165.903 51.626,168.508 49.997,171.114 L49.997,171.114 C48.368,173.72 49.182,175.511 49.182,176.977 L49.182,176.977 C49.182,178.442 50.812,180.56 52.441,181.049 L52.441,181.049 C54.07,181.538 61.724,183.004 63.026,184.469 L63.026,184.469 C64.33,185.935 64.818,190.495 64.818,190.495 L64.818,190.495 C56.023,198.964 54.557,214.762 54.557,214.762 L54.557,214.762 C54.07,235.935 62.212,245.056 62.212,245.056 L62.212,245.056 C62.212,245.056 67.913,243.59 70.356,243.916 L70.356,243.916 C72.799,244.241 75.404,248.639 77.848,251.081 L77.848,251.081 C80.291,253.525 87.294,255.805 87.294,255.805 L87.294,255.805 L99.346,259.062 C99.346,259.062 102.929,270.627 111.561,272.906 L111.561,272.906 C120.193,275.186 126.057,272.906 126.057,272.906 L126.057,272.906 L124.101,278.769 C124.101,278.769 143.809,281.864 148.369,282.352 L148.369,282.352 C152.93,282.841 162.376,287.401 166.284,288.378 L166.284,288.378 C170.194,289.356 180.618,290.495 180.618,290.495 L180.618,290.495 L183.386,290.984 L194.208,287.239 L194.208,292.45 L194.298,295.871 C194.298,295.871 193.809,299.779 195.112,301.408 L195.112,301.408 C196.415,303.037 205.862,313.785 249.998,315.414 L249.998,315.414 C294.135,317.043 304.071,304.339 304.396,302.222 L304.396,302.222 C304.721,300.105 302.929,297.01 302.929,297.01 L302.929,297.01 L278.826,276.652 C282.409,276.326 282.083,272.906 282.083,272.906 L282.083,272.906 L282.083,260.691 C282.083,254.013 271.659,249.942 271.659,249.942 L271.659,249.942 L271.171,243.754 L284.688,239.681 L284.688,231.212 C284.688,231.212 307.491,224.046 311.236,223.232 L311.236,223.232 C314.982,222.417 313.68,220.625 313.19,214.762 L313.19,214.762 C312.702,208.898 305.373,195.055 305.373,195.055 L305.373,195.055 C305.373,195.055 295.601,177.303 293.81,175.349 L293.81,175.349 C292.018,173.394 287.458,171.928 287.458,171.928 L287.458,171.928 L287.458,168.997 C287.458,168.997 280.454,136.586 277.685,126.652 L277.685,126.652 C274.917,116.716 264.168,111.831 264.168,111.831 L264.168,111.831 L192.669,85.283 L188.76,85.121 C188.76,85.121 126.219,58.736 121.333,56.944 L121.333,56.944 C116.448,55.152 110.747,48.963 106.512,44.566 L106.512,44.566 C102.277,40.169 84.363,13.458 84.363,13.458 L84.363,13.458 C84.363,13.458 78.01,1.895 66.447,0.918 L66.447,0.918 C61.226,0.477 53.711,0.069 45.467,0.069 L45.467,0.069 C35.452,0.069 24.36,0.671 14.981,2.546 L14.981,2.546 Z M21.373,62.238 C17.709,60.038 14.29,53.931 13.067,47.336 L13.067,47.336 C11.846,40.739 9.036,13.133 9.036,13.133 L9.036,13.133 C15.266,9.712 33.711,7.026 41.04,6.903 L41.04,6.903 C48.368,6.781 56.675,7.148 65.592,8.369 L65.592,8.369 C74.508,9.59 75.731,14.966 75.731,14.966 L75.731,14.966 L79.028,20.707 L102.604,65.658 C102.604,65.658 61.316,69.078 59.973,69.444 L59.973,69.444 C58.629,69.811 56.553,72.253 56.553,72.253 L56.553,72.253 L47.025,73.231 L34.443,68.223 L31.268,59.672 C31.268,59.672 33.222,58.085 32.123,55.152 L32.123,55.152 C31.023,52.221 27.726,52.831 27.726,52.831 L27.726,52.831 C27.726,52.831 23.938,54.42 24.916,57.841 L24.916,57.841 C25.892,61.261 29.313,60.405 29.313,60.405 L29.313,60.405 L32,67.612 C32,67.612 25.038,64.436 21.373,62.238 L21.373,62.238 Z" id="path-1"></path>
    </defs>
    <g id="serveis_escombradora_vector" stroke="none" stroke-width="1" fill="none" fill-rule="evenodd">
        <g id="Group-7" transform="translate(-1.000000, 0.000000)">
            <g transform="translate(-5.000000, -70.000000)">
                <g id="Group-4" transform="translate(43.000000, 33.744000)">
                    <mask id="mask-2" fill="white">
                        <use xlink:href="#path-1"></use>
                    </mask>
                    <g id="Clip-3"></g>
                    <path d="M318.8907,220.2465 L277.8487,233.2755 C277.8487,233.2755 259.6077,239.4655 255.0467,239.4655 C250.4867,239.4655 242.0177,240.7675 220.1937,239.4655 C198.3697,238.1625 171.0077,233.6015 171.0077,233.6015 L165.4697,227.7385 L125.7307,220.2465 C125.7307,220.2465 114.3297,219.6215 102.9287,204.6245 C91.5287,189.6275 21.8737,99.4235 21.8737,99.4235 L-20.5243,68.7805 L-16.2903,-3.5325 L116.6097,-6.7895 L239.4117,50.2135 L284.3637,104.6105 L331.2687,156.0775 L318.8907,220.2465 Z" id="Fill-2" fill="#0094FF" mask="url(#mask-2)"></path>
                </g>
                <path d="M102.9727,103.1887 C101.6287,103.5547 99.5527,105.9977 99.5527,105.9977 L90.0247,106.9747 L77.4437,101.9667 L74.2677,93.4167 C74.2677,93.4167 76.2217,91.8287 75.1217,88.8967 C74.0227,85.9647 70.7257,86.5757 70.7257,86.5757 C70.7257,86.5757 66.9387,88.1637 67.9147,91.5847 C68.8927,95.0037 72.3137,94.1497 72.3137,94.1497 L74.9997,101.3557 C74.9997,101.3557 68.0377,98.1797 64.3727,95.9817 C60.7087,93.7827 57.2877,87.6747 56.0677,81.0797 C54.8457,74.4827 52.0357,46.8767 52.0357,46.8767 C58.2657,43.4567 76.7097,40.7697 84.0397,40.6477 C91.3687,40.5247 99.6747,40.8917 108.5917,42.1137 C117.5087,43.3347 118.7307,48.7097 118.7307,48.7097 L122.0287,54.4507 L145.6037,99.4017 C145.6037,99.4017 104.3167,102.8217 102.9727,103.1887 Z M356.1907,248.5067 C355.7017,242.6437 348.3727,228.7997 348.3727,228.7997 C348.3727,228.7997 338.6007,211.0467 336.8097,209.0927 C335.0177,207.1377 330.4577,205.6717 330.4577,205.6717 L330.4577,202.7417 C330.4577,202.7417 323.4537,170.3307 320.6857,160.3957 C317.9167,150.4597 307.1667,145.5747 307.1667,145.5747 L235.6687,119.0267 L231.7597,118.8647 C231.7597,118.8647 169.2187,92.4797 164.3327,90.6887 C159.4477,88.8967 153.7467,82.7087 149.5117,78.3097 C145.2777,73.9137 127.3627,47.2027 127.3627,47.2027 C127.3627,47.2027 121.0107,35.6387 109.4467,34.6627 C97.8827,33.6847 75.0817,32.8707 57.9807,36.2907 C40.8797,39.7107 43.4857,52.9037 43.4857,52.9037 C43.4857,52.9037 45.9287,80.7527 46.4167,96.3887 C46.9057,112.0237 54.3977,119.5157 54.3977,119.5157 L76.8727,147.6917 C74.9187,149.4837 75.5707,153.0667 75.5707,153.0667 L81.2707,174.4017 L87.2967,173.5867 L87.6217,175.8677 L83.3877,182.3817 L85.6677,187.9197 L92.3457,186.7797 L87.6217,195.0857 L89.5767,200.6237 L96.4167,199.6467 C96.4167,199.6467 94.6257,202.2517 92.9967,204.8587 C91.3687,207.4637 92.1827,209.2547 92.1827,210.7217 C92.1827,212.1867 93.8117,214.3037 95.4407,214.7927 C97.0697,215.2817 104.7237,216.7477 106.0267,218.2127 C107.3287,219.6787 107.8187,224.2397 107.8187,224.2397 C99.0237,232.7087 97.5577,248.5067 97.5577,248.5067 C97.0697,269.6787 105.2117,278.7997 105.2117,278.7997 C105.2117,278.7997 110.9127,277.3347 113.3557,277.6597 C115.7987,277.9857 118.4047,282.3827 120.8477,284.8257 C123.2897,287.2687 130.2937,289.5487 130.2937,289.5487 L142.3457,292.8057 C142.3457,292.8057 145.9287,304.3707 154.5617,306.6497 C163.1927,308.9297 169.0557,306.6497 169.0557,306.6497 L167.1017,312.5127 C167.1017,312.5127 186.8087,315.6077 191.3687,316.0967 C195.9287,316.5847 205.3757,321.1457 209.2847,322.1227 C213.1937,323.0997 223.6167,324.2397 223.6167,324.2397 L226.3857,324.7277 L237.2077,320.9827 L237.2077,326.1947 L237.2977,329.6147 C237.2977,329.6147 236.8087,333.5227 238.1127,335.1517 C239.4147,336.7807 248.8617,347.5297 292.9977,349.1587 C337.1347,350.7877 347.0697,338.0837 347.3957,335.9657 C347.7217,333.8487 345.9297,330.7547 345.9297,330.7547 L321.8257,310.3957 C325.4097,310.0707 325.0827,306.6497 325.0827,306.6497 L325.0827,294.4347 C325.0827,287.7567 314.6597,283.6857 314.6597,283.6857 L314.1707,277.4977 L327.6887,273.4247 L327.6887,264.9567 C327.6887,264.9567 350.4907,257.7907 354.2367,256.9757 C357.9817,256.1617 356.6787,254.3707 356.1907,248.5067 Z" id="Stroke-5" stroke="#FFFFFF"></path>
            </g>
            <rect id="Rectangle" stroke="#0444A0" opacity="0" x="2.5" y="0.5" width="386" height="339" rx="2"></rect>
        </g>
    </g>
</svg>