<?xml version="1.0" encoding="UTF-8"?>
<svg width="605px" height="308px" viewBox="0 0 605 308" version="1.1" xmlns="http://www.w3.org/2000/svg" xmlns:xlink="http://www.w3.org/1999/xlink">
    <!-- Generator: Sketch 53.1 (72631) - https://sketchapp.com -->
    <title>serveis_aspirador_vector</title>
    <desc>Created with Sketch.</desc>
    <defs>
        <path d="M78.927,1.3 C75.995,0.567 70.62,3.987 68.3,6.431 L68.3,6.431 C65.98,8.872 65.98,10.804 65.98,10.804 L65.98,10.804 C65.98,10.804 59.749,17.79 57.551,28.294 L57.551,28.294 C55.352,38.799 53.275,59.443 58.161,79.477 L58.161,79.477 C63.048,99.509 65.246,105.25 77.583,130.902 L77.583,130.902 C89.921,156.553 118.992,187.946 118.992,187.946 L118.992,187.946 C118.992,187.946 118.137,187.09 114.35,185.747 L114.35,185.747 C110.564,184.403 93.951,183.793 93.951,183.793 L93.951,183.793 C93.951,183.793 84.546,175.731 74.407,174.998 L74.407,174.998 C64.269,174.264 57.062,176.464 57.062,176.464 L57.062,176.464 C53.642,175.975 48.755,176.829 48.755,176.829 L48.755,176.829 L48.755,179.395 L36.785,183.67 C23.715,189.044 23.959,202.115 23.592,204.069 L23.592,204.069 C23.227,206.025 23.105,207.368 22.127,208.833 L22.127,208.833 C21.15,210.3 22.127,211.642 22.127,211.642 L22.127,211.642 L20.173,210.666 L14.798,212.498 L15.286,230.088 L17.485,232.653 L17.485,244.868 L12.966,245.234 L9.179,244.745 C6.125,245.113 -0.105,248.776 1.118,269.542 L1.118,269.542 C2.339,290.308 13.821,293.239 13.821,293.239 L13.821,293.239 C22.615,293.727 28.845,292.139 28.845,292.139 L28.845,292.139 L35.807,296.538 C35.807,296.538 50.465,303.134 52.054,303.744 L52.054,303.744 C53.642,304.354 56.939,303.744 57.429,305.331 L57.429,305.331 C57.917,306.921 60.482,308.752 62.314,308.752 L62.314,308.752 C64.146,308.752 65.246,305.454 65.246,305.454 L65.246,305.454 C65.246,305.454 66.1,307.409 71.11,306.554 L71.11,306.554 C76.117,305.698 74.774,298.126 74.774,298.126 L74.774,298.126 C74.774,298.126 76.24,298.492 80.026,298.247 L80.026,298.247 C83.813,298.003 87.11,301.79 87.11,301.79 L87.11,301.79 C87.11,301.79 94.929,301.546 97.617,301.057 L97.617,301.057 C100.304,300.568 108.243,298.492 108.243,298.492 L108.243,298.492 C108.243,298.492 110.564,299.59 112.763,299.59 L112.763,299.59 C114.961,299.59 115.816,296.903 115.816,296.903 L115.816,296.903 C115.816,296.903 117.893,298.247 119.114,298.37 L119.114,298.37 C120.336,298.492 121.68,298.126 122.534,297.026 L122.534,297.026 C123.39,295.926 125.1,293.973 125.1,293.973 L125.1,293.973 C125.71,289.331 123.634,284.811 123.634,284.811 L123.634,284.811 L124.366,267.71 L125.221,265.877 C143.423,270.641 172.494,270.03 188.984,265.022 L188.984,265.022 C205.474,260.015 202.543,250.12 201.199,243.646 L201.199,243.646 C199.856,237.173 181.044,224.347 164.799,212.864 L164.799,212.864 C148.553,201.382 128.765,181.349 119.359,170.844 L119.359,170.844 C109.953,160.34 91.875,133.467 82.347,115.632 L82.347,115.632 C72.82,97.799 68.177,75.323 66.467,53.946 L66.467,53.946 C64.757,32.57 74.041,19.501 74.041,19.501 L74.041,19.501 C74.041,19.501 77.951,17.423 80.637,14.981 L80.637,14.981 C83.324,12.538 83.568,11.072 83.568,11.072 L83.568,11.072 C98.715,7.774 109.709,35.991 109.709,35.991 L109.709,35.991 L146.72,109.281 L193.748,201.993 L216.591,246.578 L215.369,247.8 L211.948,243.036 C205.719,243.524 203.153,247.921 203.153,247.921 L203.153,247.921 L206.94,256.105 L206.94,257.694 L214.635,271.374 C219.889,271.13 220.988,268.442 220.988,268.442 L220.988,268.442 L218.3,262.335 L221.965,258.305 L226.85,268.198 L226.85,271.497 L232.347,281.757 L234.301,281.879 L239.432,286.888 C237.845,292.995 243.708,295.194 243.708,295.194 L243.708,295.194 C241.876,295.804 241.997,299.224 241.997,299.224 L241.997,299.224 C239.065,299.47 237.845,302.89 237.845,302.89 L237.845,302.89 L236.013,313.761 C236.013,313.761 246.272,319.256 249.938,320.6 L249.938,320.6 C253.603,321.944 259.587,320.6 259.587,320.6 L259.587,320.6 L323.35,306.921 C323.35,306.921 323.105,302.4 322.739,301.057 L322.739,301.057 C322.372,299.714 314.921,293.117 311.868,291.285 L311.868,291.285 C308.813,289.452 305.393,288.842 305.393,288.842 L305.393,288.842 C305.393,288.842 296.598,283.712 294.401,282.734 L294.401,282.734 C292.201,281.757 287.804,281.391 286.216,281.268 L286.216,281.268 C284.628,281.147 284.14,282.001 284.14,282.001 L284.14,282.001 L288.781,286.888 L270.337,288.231 C270.337,288.231 264.35,285.299 262.153,284.811 L262.153,284.811 C259.954,284.322 260.687,283.101 259.464,282.001 L259.464,282.001 C258.243,280.902 251.282,277.36 250.792,276.993 L250.792,276.993 C250.303,276.627 246.884,276.871 246.884,276.871 L246.884,276.871 C246.884,276.871 240.532,264.412 239.432,262.702 L239.432,262.702 C238.333,260.991 237.111,257.327 237.111,257.327 L237.111,257.327 L235.28,257.571 L231.86,250.975 L232.226,249.144 C232.226,249.144 230.516,245.113 229.294,243.157 L229.294,243.157 C228.072,241.203 226.729,240.593 226.729,240.593 L226.729,240.593 L187.152,163.516 L153.194,98.043 L111.541,17.668 L112.152,16.08 C112.152,16.08 109.098,12.293 106.167,8.262 L106.167,8.262 C103.235,4.231 98.471,3.865 98.471,3.865 L98.471,3.865 C94.512,1.037 90.03,0.278 86.358,0.278 L86.358,0.278 C82.098,0.278 78.927,1.3 78.927,1.3 L78.927,1.3 Z M130.597,211.765 L130.597,203.703 C130.597,201.993 125.833,202.359 125.71,201.749 L125.71,201.749 C125.589,201.138 122.412,192.22 122.412,192.22 L122.412,192.22 C122.412,192.22 141.712,210.544 146.843,215.43 L146.843,215.43 C151.973,220.315 172.25,235.218 178.113,239.37 L178.113,239.37 C183.976,243.524 188.251,248.654 188.251,248.654 L188.251,248.654 C188.251,248.654 181.655,252.564 158.935,252.807 L158.935,252.807 C136.216,253.051 125.71,248.899 125.71,248.899 L125.71,248.899 L125.833,244.99 C128.031,247.921 129.008,244.257 129.008,244.257 L129.008,244.257 L128.886,224.468 L134.628,224.468 L137.192,222.391 C137.192,222.391 137.315,217.14 137.192,215.552 L137.192,215.552 C137.071,213.964 132.551,214.574 132.551,214.574 L132.551,214.574 L130.597,211.765 Z" id="path-1"></path>
    </defs>
    <g id="serveis_aspirador_vector" stroke="none" stroke-width="1" fill="none" fill-rule="evenodd">
        <g id="Group-7">
            <g transform="translate(59.000000, -205.000000)">
                <g id="Group-4" transform="translate(92.000000, 106.038000)">
                    <mask id="mask-2" fill="white">
                        <use xlink:href="#path-1"></use>
                    </mask>
                    <g id="Clip-3"></g>
                    <path d="M132.5918,227.034 L126.4028,224.591 C126.4028,224.591 105.8818,233.222 80.9628,233.222 C56.0438,233.222 33.4048,229.639 33.4048,229.639 L33.4048,245.437 C33.4048,245.437 29.1708,255.698 27.2168,257.327 C25.2618,258.956 24.2848,260.259 24.2848,260.259 C24.2848,260.259 26.8908,268.239 26.7278,272.963 C26.5658,277.685 27.0538,289.575 27.0538,289.575 L30.7998,294.624 L40.8978,299.836 L52.1348,300.975 C52.1348,300.975 49.3658,289.738 62.8848,289.738 L76.8908,290.063 C76.8908,290.063 88.1288,290.063 86.6628,303.419 L107.9988,301.138 C107.9988,301.138 106.6958,283.712 126.5658,279.151 L127.0538,268.565 L125.2218,265.878 L118.7478,264.819 C118.7478,264.819 117.6078,265.471 115.8168,265.144 C114.0248,264.819 110.2788,264.005 110.2788,264.005 C110.2788,264.005 105.8818,267.425 99.3658,267.262 C92.8518,267.099 85.1968,261.888 86.4998,249.183 C87.8028,236.48 97.4118,233.059 103.1128,232.734 C108.8128,232.408 113.5358,235.34 114.8388,241.529 C114.8388,241.529 115.9798,244.461 117.4458,244.786 C118.9108,245.112 121.6798,246.09 122.4118,247.066 C123.1458,248.044 128.4138,249.74 128.4138,249.74 L134.0578,246.578 L132.5918,227.034 Z" id="Fill-2" fill="#0094FF" mask="url(#mask-2)"></path>
                </g>
                <path d="M238.8428,321.4675 C243.9728,326.3535 264.2498,341.2555 270.1138,345.4085 C275.9758,349.5625 280.2508,354.6925 280.2508,354.6925 C280.2508,354.6925 273.6558,358.6015 250.9358,358.8455 C228.2158,359.0895 217.7098,354.9375 217.7098,354.9375 L217.8328,351.0285 C220.0308,353.9595 221.0088,350.2945 221.0088,350.2945 L220.8858,330.5065 L226.6278,330.5065 L229.1928,328.4295 C229.1928,328.4295 229.3148,323.1775 229.1928,321.5895 C229.0708,320.0015 224.5508,320.6125 224.5508,320.6125 L222.5968,317.8025 L222.5968,309.7405 C222.5968,308.0305 217.8328,308.3975 217.7098,307.7865 C217.5888,307.1755 214.4118,298.2585 214.4118,298.2585 C214.4118,298.2585 233.7118,316.5815 238.8428,321.4675 Z M414.7388,407.0955 C414.3718,405.7515 406.9208,399.1545 403.8678,397.3225 C400.8138,395.4895 397.3938,394.8795 397.3938,394.8795 C397.3938,394.8795 388.5988,389.7495 386.4008,388.7725 C384.2008,387.7945 379.8038,387.4285 378.2158,387.3065 C376.6278,387.1845 376.1398,388.0385 376.1398,388.0385 L380.7808,392.9255 L362.3368,394.2695 C362.3368,394.2695 356.3508,391.3375 354.1528,390.8495 C351.9538,390.3605 352.6868,389.1385 351.4648,388.0385 C350.2428,386.9405 343.2808,383.3985 342.7918,383.0305 C342.3038,382.6645 338.8838,382.9085 338.8838,382.9085 C338.8838,382.9085 332.5318,370.4495 331.4328,368.7395 C330.3328,367.0295 329.1118,363.3645 329.1118,363.3645 L327.2798,363.6095 L323.8598,357.0135 L324.2258,355.1815 C324.2258,355.1815 322.5158,351.1505 321.2938,349.1955 C320.0718,347.2405 318.7288,346.6305 318.7288,346.6305 L279.1528,269.5535 L245.1948,204.0805 L203.5408,123.7055 L204.1518,122.1175 C204.1518,122.1175 201.0978,118.3315 198.1668,114.3005 C195.2358,110.2695 190.4708,109.9035 190.4708,109.9035 C181.9208,103.7955 170.9268,107.3375 170.9268,107.3375 C167.9948,106.6055 162.6198,110.0255 160.2998,112.4685 C157.9798,114.9105 157.9798,116.8415 157.9798,116.8415 C157.9798,116.8415 151.7488,123.8275 149.5508,134.3325 C147.3518,144.8375 145.2758,165.4815 150.1608,185.5145 C155.0478,205.5465 157.2458,211.2875 169.5828,236.9395 C181.9208,262.5915 210.9918,293.9845 210.9918,293.9845 C210.9918,293.9845 210.1378,293.1285 206.3508,291.7845 C202.5638,290.4415 185.9508,289.8305 185.9508,289.8305 C185.9508,289.8305 176.5458,281.7685 166.4068,281.0355 C156.2688,280.3025 149.0618,282.5015 149.0618,282.5015 C145.6418,282.0135 140.7558,282.8675 140.7558,282.8675 L140.7558,285.4335 L128.7848,289.7085 C115.7148,295.0825 115.9588,308.1535 115.5928,310.1075 C115.2268,312.0625 115.1048,313.4055 114.1268,314.8705 C113.1498,316.3375 114.1268,317.6805 114.1268,317.6805 L112.1728,316.7035 L106.7978,318.5355 L107.2858,336.1255 L109.4858,338.6915 L109.4858,350.9055 L104.9658,351.2725 L101.1788,350.7825 C98.1248,351.1505 91.8958,354.8145 93.1168,375.5795 C94.3388,396.3455 105.8218,399.2775 105.8218,399.2775 C114.6148,399.7655 120.8448,398.1775 120.8448,398.1775 L127.8078,402.5755 C127.8078,402.5755 142.4658,409.1715 144.0538,409.7815 C145.6418,410.3925 148.9398,409.7815 149.4288,411.3695 C149.9168,412.9585 152.4828,414.7905 154.3148,414.7905 C156.1468,414.7905 157.2458,411.4915 157.2458,411.4915 C157.2458,411.4915 158.1008,413.4465 163.1098,412.5915 C168.1168,411.7365 166.7738,404.1635 166.7738,404.1635 C166.7738,404.1635 168.2388,404.5295 172.0268,404.2845 C175.8138,404.0405 179.1108,407.8275 179.1108,407.8275 C179.1108,407.8275 186.9288,407.5835 189.6158,407.0955 C192.3038,406.6065 200.2428,404.5295 200.2428,404.5295 C200.2428,404.5295 202.5638,405.6285 204.7628,405.6285 C206.9608,405.6285 207.8168,402.9415 207.8168,402.9415 C207.8168,402.9415 209.8928,404.2845 211.1138,404.4075 C212.3358,404.5295 213.6798,404.1635 214.5338,403.0645 C215.3898,401.9645 217.0998,400.0105 217.0998,400.0105 C217.7098,395.3685 215.6338,390.8495 215.6338,390.8495 L216.3658,373.7475 L217.2218,371.9155 C235.4228,376.6795 264.4938,376.0685 280.9848,371.0605 C297.4748,366.0525 294.5428,356.1575 293.1988,349.6845 C291.8558,343.2105 273.0438,330.3845 256.7988,318.9025 C240.5528,307.4195 220.7648,287.3875 211.3588,276.8825 C201.9528,266.3775 183.8748,239.5045 174.3468,221.6705 C164.8198,203.8365 160.1778,181.3615 158.4678,159.9845 C156.7568,138.6085 166.0408,125.5385 166.0408,125.5385 C166.0408,125.5385 169.9498,123.4615 172.6368,121.0185 C175.3238,118.5755 175.5688,117.1105 175.5688,117.1105 C190.7158,113.8125 201.7088,142.0295 201.7088,142.0295 L238.7198,215.3195 L285.7478,308.0305 L308.5908,352.6155 L307.3688,353.8375 L303.9478,349.0735 C297.7188,349.5625 295.1538,353.9595 295.1538,353.9595 L298.9408,362.1435 L298.9408,363.7315 L306.6358,377.4115 C311.8888,377.1675 312.9878,374.4805 312.9878,374.4805 L310.2998,368.3725 L313.9648,364.3425 L318.8508,374.2365 L318.8508,377.5345 L324.3478,387.7945 L326.3018,387.9175 L331.4328,392.9255 C329.8448,399.0325 335.7078,401.2325 335.7078,401.2325 C333.8758,401.8425 333.9968,405.2625 333.9968,405.2625 C331.0658,405.5075 329.8448,408.9275 329.8448,408.9275 L328.0128,419.7985 C328.0128,419.7985 338.2728,425.2945 341.9378,426.6385 C345.6028,427.9825 351.5868,426.6385 351.5868,426.6385 L415.3498,412.9585 C415.3498,412.9585 415.1058,408.4385 414.7388,407.0955 Z" id="Stroke-5" stroke="#FFFFFF"></path>
            </g>
            <rect id="Rectangle" stroke="#0444A0" opacity="0" x="0.5" y="0.5" width="604" height="307" rx="2"></rect>
        </g>
    </g>
</svg>