<?xml version="1.0" encoding="UTF-8"?>
<svg width="283px" height="340px" viewBox="0 0 283 340" version="1.1" xmlns="http://www.w3.org/2000/svg" xmlns:xlink="http://www.w3.org/1999/xlink">
    <!-- Generator: Sketch 53.1 (72631) - https://sketchapp.com -->
    <title>serveis_fregadora_vector</title>
    <desc>Created with Sketch.</desc>
    <defs>
        <path d="M25.171,0.908 C20.163,1.396 12.59,4.694 6.726,7.869 L6.726,7.869 C0.863,11.046 0.375,15.81 0.375,15.81 L0.375,15.81 C0.375,15.81 -0.115,20.818 1.229,24.605 L1.229,24.605 C2.573,28.391 5.505,28.514 5.505,28.514 L5.505,28.514 C5.505,28.514 15.4,28.514 17.354,28.269 L17.354,28.269 C19.307,28.025 19.797,26.437 19.797,26.437 L19.797,26.437 L31.767,26.437 C32.012,31.201 34.007,33.644 34.007,33.644 L34.007,33.644 C34.007,33.644 30.668,33.4 26.881,34.132 L26.881,34.132 C23.095,34.866 17.476,39.263 17.476,40.851 L17.476,40.851 C17.476,42.439 20.285,42.683 22.117,42.561 L22.117,42.561 C23.949,42.439 24.561,41.95 25.66,41.706 L25.66,41.706 C26.759,41.461 37.386,42.806 37.386,42.806 L37.386,42.806 L39.707,55.631 C40.317,56.852 43.983,57.098 43.983,57.098 L43.983,57.098 L45.082,69.434 L53.754,158.237 L63.16,256.446 L64.26,257.423 C64.26,257.423 62.06,259.744 61.328,261.333 L61.328,261.333 C60.595,262.92 61.328,264.874 61.328,264.874 L61.328,264.874 L58.396,270.004 C58.396,270.004 49.724,270.249 44.714,270.982 L44.714,270.982 C39.707,271.715 30.179,273.914 28.102,274.769 L28.102,274.769 C26.026,275.624 22.606,281.853 20.774,284.54 L20.774,284.54 C18.941,287.228 13.444,293.947 13.444,293.947 L13.444,293.947 L13.444,301.398 C1.719,316.177 3.917,327.415 3.917,327.415 L3.917,327.415 L6.116,327.415 C7.704,364.305 20.53,364.305 20.53,364.305 L20.53,364.305 L27.981,364.305 C34.21,364.183 36.776,354.777 36.776,354.777 L36.776,354.777 L46.67,358.076 L54.365,357.464 L54.365,369.313 L55.831,370.046 L55.831,374.81 C55.831,374.81 59.129,377.253 61.205,377.741 L61.205,377.741 C63.282,378.23 64.504,377.008 64.504,377.008 L64.504,377.008 C64.504,377.008 76.352,380.674 115.806,382.749 L115.806,382.749 C155.262,384.826 169.43,375.664 169.43,375.664 L169.43,375.664 L168.209,371.39 C171.996,370.9 173.95,368.213 173.95,368.213 L173.95,368.213 L173.462,357.221 C173.096,353.311 162.102,351.357 162.102,351.357 L162.102,351.357 C175.538,350.38 188.242,348.303 188.242,348.303 L188.242,348.303 L191.052,344.272 L187.508,310.437 C181.035,273.181 116.295,267.44 106.889,267.195 L106.889,267.195 C97.484,266.951 91.621,268.05 91.621,268.05 L91.621,268.05 L91.133,271.104 L89.3,271.104 C89.3,271.104 87.223,265.974 85.88,262.187 L85.88,262.187 C84.536,258.4 82.582,256.691 81.971,256.323 L81.971,256.323 C81.361,255.957 82.338,254.98 82.338,254.98 L82.338,254.98 L71.955,146.755 L63.282,57.098 C67.801,56.608 68.046,54.532 68.046,54.532 L68.046,54.532 L67.313,34.866 C68.901,34.255 71.1,30.835 71.1,30.835 L71.1,30.835 C74.397,29.125 84.292,28.391 89.789,27.536 L89.789,27.536 C95.285,26.681 97.24,20.207 97.24,20.207 L97.24,20.207 C97.24,20.207 98.95,20.451 99.683,14.222 L99.683,14.222 C100.416,7.993 97.728,3.228 94.674,3.228 L94.674,3.228 C91.621,3.228 87.59,4.572 85.269,4.816 L85.269,4.816 C82.948,5.061 75.253,5.183 65.236,4.572 L65.236,4.572 C55.219,3.962 37.386,2.618 37.386,2.618 L37.386,2.618 C37.386,2.618 31.551,0.837 26.732,0.837 L26.732,0.837 C26.196,0.837 25.672,0.859 25.171,0.908 L25.171,0.908 Z" id="path-1"></path>
        <rect id="path-3" x="0" y="0" width="283" height="340" rx="5"></rect>
    </defs>
    <g id="serveis_fregadora_vector" stroke="none" stroke-width="1" fill="none" fill-rule="evenodd">
        <g id="Group-7">
            <g transform="translate(-98.000000, -137.000000)">
                <path d="M200.3652,395.9833 L192.6702,396.5943 L182.7752,393.2953 C182.7752,393.2953 180.2102,402.7023 173.9802,402.8243 L166.5292,402.8243 C166.5292,402.8243 153.7042,402.8243 152.1162,365.9343 L149.9172,365.9343 C149.9172,365.9343 147.7192,354.6963 159.4442,339.9173 L159.4442,332.4653 C159.4442,332.4653 164.9412,325.7473 166.7732,323.0593 C168.6062,320.3723 172.0262,314.1423 174.1022,313.2883 C176.1792,312.4323 185.7072,310.2343 190.7152,309.5013 C195.7232,308.7683 204.3962,308.5233 204.3962,308.5233 L207.3282,303.3933 C207.3282,303.3933 206.5942,301.4393 207.3282,299.8513 C208.0602,298.2633 210.2602,295.9423 210.2602,295.9423 L209.1602,294.9643 L199.7542,196.7553 L191.0822,107.9533 L189.9822,95.6163 C189.9822,95.6163 186.3172,95.3713 185.7072,94.1503 L183.3862,81.3243 C183.3862,81.3243 172.7592,79.9803 171.6602,80.2243 C170.5602,80.4683 169.9492,80.9583 168.1172,81.0803 C166.2852,81.2023 163.4752,80.9583 163.4752,79.3703 C163.4752,77.7823 169.0942,73.3843 172.8812,72.6513 C176.6682,71.9193 180.0072,72.1633 180.0072,72.1633 C180.0072,72.1633 178.0112,69.7193 177.7672,64.9563 L165.7972,64.9563 C165.7972,64.9563 165.3072,66.5443 163.3532,66.7883 C161.3992,67.0323 151.5052,67.0323 151.5052,67.0323 C151.5052,67.0323 148.5732,66.9103 147.2292,63.1243 C145.8862,59.3373 146.3752,54.3293 146.3752,54.3293 C146.3752,54.3293 146.8632,49.5653 152.7262,46.3883 C158.5902,43.2123 166.1632,39.9153 171.1712,39.4263 C176.1792,38.9373 183.3862,41.1363 183.3862,41.1363 C183.3862,41.1363 201.2192,42.4803 211.2362,43.0903 C221.2532,43.7023 228.9482,43.5803 231.2692,43.3353 C233.5902,43.0903 237.6212,41.7473 240.6752,41.7473 C243.7282,41.7473 246.4162,46.5113 245.6822,52.7413 C244.9502,58.9703 243.2402,58.7263 243.2402,58.7263 C243.2402,58.7263 241.2852,65.2003 235.7892,66.0553 C230.2922,66.9103 220.3972,67.6433 217.0992,69.3533 C217.0992,69.3533 214.9012,72.7733 213.3132,73.3843 L214.0462,93.0503 C214.0462,93.0503 213.8022,95.1273 209.2822,95.6163 L217.9552,185.2743 L228.3382,293.4993 C228.3382,293.4993 227.3602,294.4763 227.9702,294.8423 C228.5822,295.2103 230.5362,296.9203 231.8802,300.7063 C233.2232,304.4933 235.3002,309.6233 235.3002,309.6233 L237.1332,309.6233 L237.6212,306.5693 C237.6212,306.5693 243.4842,305.4693 252.8892,305.7143 C262.2952,305.9593 327.0352,311.7003 333.5092,348.9563 L337.0522,382.7913 L334.2422,386.8223 C334.2422,386.8223 321.5382,388.8983 308.1012,389.8763 C308.1012,389.8763 319.0952,391.8303 319.4622,395.7393 L319.9502,406.7323 C319.9502,406.7323 317.9962,409.4203 314.2092,409.9093 L315.4302,414.1833 C315.4302,414.1833 301.2612,423.3453 261.8062,421.2683 C222.3522,419.1923 210.5042,415.5273 210.5042,415.5273 C210.5042,415.5273 209.2822,416.7493 207.2052,416.2603 C205.1292,415.7713 201.8312,413.3293 201.8312,413.3293 L201.8312,408.5653 L200.3652,407.8323" id="Stroke-2" stroke="#FFFFFF"></path>
                <g id="Group-6" transform="translate(146.000000, 38.519000)">
                    <mask id="mask-2" fill="white">
                        <use xlink:href="#path-1"></use>
                    </mask>
                    <g id="Clip-5"></g>
                    <path d="M162.5068,278.5551 C162.5068,278.5551 135.6778,277.5121 134.9328,277.6601 C134.1878,277.8101 134.6348,280.1951 133.4428,280.9401 C132.2498,281.6851 119.5808,281.6851 119.5808,281.6851 L112.7248,279.0021 C112.7248,279.0021 105.5698,280.7911 98.2678,281.6851 C90.9638,282.5791 81.1268,282.8771 79.7848,282.5791 C78.4438,282.2821 60.1108,276.3201 51.9138,275.5751 L45.0578,275.5751 L45.0578,279.1331 L38.0528,286.7521 L38.0528,306.8741 L79.9348,315.3691 L108.6998,316.7111 C108.6998,316.7111 165.1948,315.5191 191.0518,311.0471 L180.8388,287.7961 L162.5068,278.5551 Z" id="Fill-4" fill="#0094FF" mask="url(#mask-2)"></path>
                </g>
                <path d="M200.3652,407.8323 L200.3652,395.9833" id="Path" stroke="#FFFFFF"></path>
            </g>
            <mask id="mask-4" fill="white">
                <use xlink:href="#path-3"></use>
            </mask>
            <rect stroke="#0444A0" x="0.5" y="0.5" width="282" height="339" rx="5"></rect>
        </g>
    </g>
</svg>