<?xml version="1.0" encoding="UTF-8"?>
<svg viewBox="0 0 2922 331" version="1.1" xmlns="http://www.w3.org/2000/svg" xmlns:xlink="http://www.w3.org/1999/xlink" preserveAspectRatio="none">
    <defs>
        <polygon id="path-1" points="0 330.573 2921.045 330.573 2921.045 0 0 0"></polygon>
    </defs>
    <g id="serveis_aspiradora" stroke="none" stroke-width="1" fill="none" fill-rule="evenodd">
        <g id="Group-48">
            <path d="M29.4035,200.1871 C25.6285,200.1871 22.5685,197.1261 22.5685,193.3521 L22.5685,143.2951 C22.5685,139.5211 25.6285,136.4601 29.4035,136.4601 L74.0825,136.4601 L74.0825,9.8201 C74.0825,4.6721 69.9095,0.5001 64.7615,0.5001 L9.8205,0.5001 C4.6735,0.5001 0.5005,4.6721 0.5005,9.8201 L0.5005,320.7521 C0.5005,325.9001 4.6735,330.0731 9.8205,330.0731 L64.7615,330.0731 C69.9095,330.0731 74.0825,325.9001 74.0825,320.7521 L74.0825,200.1871 L29.4035,200.1871 Z" id="Fill-1" fill="#0F2039"></path>
            <path d="M29.4035,200.1871 C25.6285,200.1871 22.5685,197.1261 22.5685,193.3521 L22.5685,143.2951 C22.5685,139.5211 25.6285,136.4601 29.4035,136.4601 L74.0825,136.4601 L74.0825,9.8201 C74.0825,4.6721 69.9095,0.5001 64.7615,0.5001 L9.8205,0.5001 C4.6735,0.5001 0.5005,4.6721 0.5005,9.8201 L0.5005,320.7521 C0.5005,325.9001 4.6735,330.0731 9.8205,330.0731 L64.7615,330.0731 C69.9095,330.0731 74.0825,325.9001 74.0825,320.7521 L74.0825,200.1871 L29.4035,200.1871 Z" id="Stroke-3" stroke="#00FFC9"></path>
            <path d="M58.0598,238.2877 L27.7438,238.2877 C24.0638,238.2877 21.0808,241.2707 21.0808,244.9507 L21.0808,273.0357 C21.0808,276.7147 24.0638,279.6977 27.7438,279.6977 L58.0598,279.6977 C61.7398,279.6977 64.7218,276.7147 64.7218,273.0357 L64.7218,244.9507 C64.7218,241.2707 61.7398,238.2877 58.0598,238.2877" id="Fill-5" fill="#0F2039"></path>
            <path d="M58.0598,238.2877 L27.7438,238.2877 C24.0638,238.2877 21.0808,241.2707 21.0808,244.9507 L21.0808,273.0357 C21.0808,276.7147 24.0638,279.6977 27.7438,279.6977 L58.0598,279.6977 C61.7398,279.6977 64.7218,276.7147 64.7218,273.0357 L64.7218,244.9507 C64.7218,241.2707 61.7398,238.2877 58.0598,238.2877 Z" id="Stroke-7" stroke="#00FFC9"></path>
            <path d="M101.1877,202.9146 L81.8457,202.9146 C79.5177,202.9146 77.6307,204.8016 77.6307,207.1296 L77.6307,209.8576 C77.6307,212.1856 79.5177,214.0726 81.8457,214.0726 L101.1877,214.0726 C103.5157,214.0726 105.4027,212.1856 105.4027,209.8576 L105.4027,207.1296 C105.4027,204.8016 103.5157,202.9146 101.1877,202.9146" id="Fill-9" fill="#0F2039"></path>
            <path d="M101.1877,202.9146 L81.8457,202.9146 C79.5177,202.9146 77.6307,204.8016 77.6307,207.1296 L77.6307,209.8576 C77.6307,212.1856 79.5177,214.0726 81.8457,214.0726 L101.1877,214.0726 C103.5157,214.0726 105.4027,212.1856 105.4027,209.8576 L105.4027,207.1296 C105.4027,204.8016 103.5157,202.9146 101.1877,202.9146 Z" id="Stroke-11" stroke="#00FFC9"></path>
            <path d="M100.9573,122.5748 L81.6153,122.5748 C79.2873,122.5748 77.4003,124.4618 77.4003,126.7898 L77.4003,129.5178 C77.4003,131.8458 79.2873,133.7328 81.6153,133.7328 L100.9573,133.7328 C103.2853,133.7328 105.1723,131.8458 105.1723,129.5178 L105.1723,126.7898 C105.1723,124.4618 103.2853,122.5748 100.9573,122.5748" id="Fill-13" fill="#0F2039"></path>
            <path d="M100.9573,122.5748 L81.6153,122.5748 C79.2873,122.5748 77.4003,124.4618 77.4003,126.7898 L77.4003,129.5178 C77.4003,131.8458 79.2873,133.7328 81.6153,133.7328 L100.9573,133.7328 C103.2853,133.7328 105.1723,131.8458 105.1723,129.5178 L105.1723,126.7898 C105.1723,124.4618 103.2853,122.5748 100.9573,122.5748 Z" id="Stroke-15" stroke="#00FFC9"></path>
            <g id="Group-20" transform="translate(133.000000, 150.573000)">
                <path d="M0.467,32.1219 L48.323,32.1219 C48.323,32.1219 43.985,25.1789 43.985,16.3769 C43.985,7.5739 48.323,0.6309 48.323,0.6309 L0.467,0.6309" id="Fill-17" fill="#0F2039"></path>
                <path d="M0.467,32.1219 L48.323,32.1219 C48.323,32.1219 43.985,25.1789 43.985,16.3769 C43.985,7.5739 48.323,0.6309 48.323,0.6309 L0.467,0.6309" id="Stroke-19" stroke="#00FFC9"></path>
            </g>
            <path d="M132.5393,185.5357 C132.5393,185.5357 135.8873,179.0267 135.8873,166.9497 C135.8873,154.8717 132.5393,148.3627 132.5393,148.3627 L110.0993,148.3627 L110.0993,185.5357 L132.5393,185.5357 Z" id="Fill-21" fill="#0F2039"></path>
            <path d="M132.5393,185.5357 C132.5393,185.5357 135.8873,179.0267 135.8873,166.9497 C135.8873,154.8717 132.5393,148.3627 132.5393,148.3627 L110.0993,148.3627 L110.0993,185.5357 L132.5393,185.5357 Z" id="Stroke-23" stroke="#00FFC9"></path>
            <path d="M179.5325,155.605 C178.3735,158.472 177.1205,162.653 177.1205,167.383 C177.1205,171.655 178.1425,175.479 179.1945,178.293 L2920.5455,178.293 L2920.5455,155.605 L179.5325,155.605 Z" id="Fill-25" fill="#0F2039"></path>
            <path d="M179.5325,155.605 C178.3735,158.472 177.1205,162.653 177.1205,167.383 C177.1205,171.655 178.1425,175.479 179.1945,178.293 L2920.5455,178.293 L2920.5455,155.605 L179.5325,155.605 Z" id="Stroke-27" stroke="#00FFC9"></path>
            <g id="Group-32" transform="translate(93.000000, 141.573000)">
                <polyline id="Fill-29" fill="#0F2039" points="0.4856 53.285 17.0986 53.285 17.0986 0.217 0.4856 0.217"></polyline>
                <polyline id="Stroke-31" stroke="#00FFC9" points="0.4856 53.285 17.0986 53.285 17.0986 0.217 0.4856 0.217"></polyline>
            </g>
            <path d="M93.4856,143.2955 L93.4856,141.9155 L102.5536,141.9155 L102.5536,133.7325 L80.6086,133.7325 L80.6086,136.4605 L86.6506,136.4605 C90.4256,136.4605 93.4856,139.5215 93.4856,143.2955" id="Fill-33" fill="#0F2039"></path>
            <path d="M93.4856,143.2955 L93.4856,141.9155 L102.5536,141.9155 L102.5536,133.7325 L80.6086,133.7325 L80.6086,136.4605 L86.6506,136.4605 C90.4256,136.4605 93.4856,139.5215 93.4856,143.2955 Z" id="Stroke-35" stroke="#00FFC9"></path>
            <path d="M93.4856,194.9839 L93.4856,193.3519 C93.4856,197.1269 90.4256,200.1869 86.6506,200.1869 L80.6086,200.1869 L80.6086,202.9149 L102.5536,202.9149 L102.5536,194.9839 L93.4856,194.9839 Z" id="Fill-37" fill="#0F2039"></path>
            <path d="M93.4856,194.9839 L93.4856,193.3519 C93.4856,197.1269 90.4256,200.1869 86.6506,200.1869 L80.6086,200.1869 L80.6086,202.9149 L102.5536,202.9149 L102.5536,194.9839 L93.4856,194.9839 Z" id="Stroke-39" stroke="#00FFC9"></path>
            <path d="M86.6506,136.4605 L29.4036,136.4605 C25.6286,136.4605 22.5686,139.5215 22.5686,143.2955 L22.5686,193.3525 C22.5686,197.1265 25.6286,200.1875 29.4036,200.1875 L86.6506,200.1875 C90.4256,200.1875 93.4856,197.1265 93.4856,193.3525 L93.4856,143.2955 C93.4856,139.5215 90.4256,136.4605 86.6506,136.4605" id="Fill-41" fill="#0F2039"></path>
            <path d="M86.6506,136.4605 L29.4036,136.4605 C25.6286,136.4605 22.5686,139.5215 22.5686,143.2955 L22.5686,193.3525 C22.5686,197.1265 25.6286,200.1875 29.4036,200.1875 L86.6506,200.1875 C90.4256,200.1875 93.4856,197.1265 93.4856,193.3525 L93.4856,143.2955 C93.4856,139.5215 90.4256,136.4605 86.6506,136.4605 Z" id="Stroke-43" stroke="#00FFC9"></path>
            <mask id="mask-2" fill="white">
                <use xlink:href="#path-1"></use>
            </mask>
            <g id="Clip-46"></g>
            <polygon id="Fill-45" fill="#0F2039" mask="url(#mask-2)" points="86.034 194.33 96.865 194.33 96.865 142.376 86.034 142.376"></polygon>
            <polygon id="Stroke-47" stroke="#00FFC9" mask="url(#mask-2)" points="86.034 194.33 96.865 194.33 96.865 142.376 86.034 142.376"></polygon>
        </g>
    </g>
</svg>